<svg xmlns="http://www.w3.org/2000/svg" width="171" height="51" viewBox="0 0 130 40" fill="none" style="user-select: auto;">
<rect x="0.25" y="0.25" width="129.285" height="39.4337" rx="9.75" stroke="black" stroke-width="0.5" style="user-select: auto;"></rect>
<path d="M30.6864 13.9668C26.6601 16.6246 27.3076 22.2338 31.3836 23.9763C31.1395 24.5621 30.9629 25.1902 30.6367 25.727C29.9165 26.9124 29.1723 28.0907 28.3403 29.1984C27.6174 30.1609 26.6254 30.7535 25.3504 30.6157C24.9415 30.5716 24.5076 30.4997 24.1465 30.3183C22.3881 29.4349 20.6622 29.4725 18.8976 30.3141C17.9647 30.759 16.946 30.9256 16.0369 30.2881C15.4085 29.8474 14.8245 29.3031 14.3363 28.7098C12.3806 26.3328 11.2162 23.5922 10.85 20.5374C10.5784 18.2724 10.8164 16.0796 12.1836 14.1529C13.3197 12.5517 14.8882 11.6641 16.8498 11.5175C17.8341 11.444 18.7562 11.757 19.6201 12.173C20.6875 12.687 21.6874 12.6995 22.7656 12.1832C24.2152 11.4892 25.7432 11.2126 27.3435 11.6497C28.588 11.9896 29.6384 12.6227 30.4492 13.6355C30.5337 13.7413 30.6073 13.8559 30.6864 13.9668Z" fill="black" style="user-select: auto;"></path>
<path d="M55.2321 29.413C55.2321 31.0946 55.2321 32.6769 55.2321 34.2835C54.5099 34.2835 53.8228 34.2835 53.0752 34.2835C53.0752 29.8348 53.0752 25.4001 53.0752 20.937C53.6504 20.937 54.2539 20.937 54.888 20.937C54.9327 21.3973 54.9765 21.848 55.0175 22.2692C55.4269 21.9139 55.7958 21.4839 56.2578 21.2124C58.0464 20.1609 60.2495 20.7197 61.383 22.464C62.5322 24.2322 62.4681 27.2478 61.2451 28.9573C60.2081 30.4069 58.4547 31.0102 56.7446 30.5059C56.1977 30.3447 55.8044 30.0692 55.2321 29.413ZM60.1229 25.7123C59.9715 25.0698 59.8905 24.473 59.688 23.9208C59.3098 22.8892 58.4453 22.3646 57.3819 22.4304C56.4373 22.489 55.5093 23.2286 55.3642 24.2468C55.2302 25.1869 55.208 26.1643 55.3006 27.1092C55.3971 28.0928 56.2471 28.8408 57.1392 28.9561C58.2352 29.0978 59.1638 28.6432 59.5873 27.6374C59.8465 27.0222 59.9532 26.3427 60.1229 25.7123Z" fill="black" style="user-select: auto;"></path>
<path d="M64.0293 20.9301C64.5998 20.9301 65.1933 20.9301 65.8257 20.9301C65.8692 21.3857 65.9124 21.8371 65.9556 22.2884C65.9877 22.3175 66.0197 22.3466 66.0518 22.3757C66.0792 22.3062 66.0945 22.2285 66.1356 22.1684C67.4474 20.2508 70.8947 20.02 72.3996 22.5877C73.0369 23.675 73.2038 24.8603 73.1232 26.086C73.0329 27.4576 72.6241 28.7126 71.5555 29.656C70.3364 30.7324 68.9251 30.9269 67.4323 30.3956C66.9722 30.2318 66.5942 29.8374 66.1744 29.5457C66.1744 31.0761 66.1744 32.6671 66.1744 34.2831C65.4525 34.2831 64.7763 34.2831 64.0295 34.2831C64.0293 29.8413 64.0293 25.3961 64.0293 20.9301ZM66.1072 25.7691C66.1199 25.7716 66.1327 25.7742 66.1456 25.7767C66.165 26.1794 66.1694 26.5835 66.2069 26.9844C66.2904 27.8745 66.9607 28.6507 67.8358 28.8952C68.7501 29.1507 69.7341 28.8573 70.2468 28.0977C71.1431 26.7696 71.1683 25.3325 70.6109 23.8786C70.2234 22.868 69.3809 22.3696 68.3186 22.4307C67.4278 22.482 66.5566 23.1803 66.3189 24.1249C66.185 24.6571 66.1737 25.22 66.1072 25.7691Z" fill="black" style="user-select: auto;"></path>
<path d="M51.2717 30.454C50.5641 30.454 49.8967 30.4676 49.2308 30.4403C49.1235 30.4359 48.9697 30.2672 48.9288 30.1441C48.5787 29.0918 48.2409 28.0351 47.9202 26.9735C47.8369 26.6974 47.7309 26.5754 47.4144 26.5815C46.2447 26.6041 45.0742 26.6033 43.9045 26.5819C43.5913 26.5762 43.4741 26.6909 43.393 26.972C43.0619 28.1191 42.7103 29.2601 42.359 30.427C41.6361 30.427 40.9176 30.427 40.1523 30.427C40.2421 30.1254 40.3249 29.8264 40.4198 29.5313C41.6938 25.5658 42.9727 21.6019 44.2388 17.6338C44.3381 17.3224 44.4652 17.1825 44.8164 17.202C45.4275 17.2358 46.0424 17.2287 46.6543 17.2039C46.9476 17.192 47.0626 17.3007 47.1484 17.5694C48.1717 20.7701 49.2075 23.9668 50.2387 27.1651C50.5542 28.1435 50.8661 29.1231 51.1783 30.1026C51.2109 30.2051 51.234 30.3107 51.2717 30.454ZM43.9427 24.9152C45.0866 24.9152 46.2243 24.9152 47.3749 24.9152C46.7836 22.9827 46.1966 21.0639 45.6274 19.2033C45.0762 21.072 44.51 22.9918 43.9427 24.9152Z" fill="black" style="user-select: auto;"></path>
<path d="M77.1582 29.8121C77.319 29.2292 77.4765 28.6582 77.6475 28.038C78.4965 28.5163 79.373 28.8179 80.3113 28.832C80.8462 28.84 81.4011 28.7968 81.9142 28.6566C82.6012 28.4688 83.0691 27.9863 83.1831 27.2506C83.3033 26.4751 83.0958 25.7909 82.4236 25.3468C81.9645 25.0435 81.4409 24.8393 80.9537 24.5766C80.1747 24.1564 79.3323 23.8147 78.6405 23.2797C76.9213 21.95 77.0001 19.4102 78.6644 18.014C80.3121 16.6317 83.6198 16.876 84.8701 17.6989C84.6964 18.2533 84.5196 18.8176 84.3347 19.4081C83.3725 18.91 82.3834 18.7429 81.3504 18.8317C80.1493 18.9351 79.4336 19.7269 79.5597 20.792C79.6242 21.3373 79.9346 21.7294 80.379 21.9873C80.9295 22.3068 81.5077 22.5841 82.0914 22.8397C82.9115 23.1988 83.715 23.5835 84.3532 24.2257C86.0344 25.9171 85.602 28.8017 83.5046 29.981C82.2266 30.6996 80.844 30.7074 79.446 30.5754C78.6375 30.4989 77.8671 30.2792 77.1582 29.8121Z" fill="black" style="user-select: auto;"></path>
<path d="M93.5075 25.722C93.5266 24.1176 93.9908 22.6851 95.2946 21.6746C96.8026 20.5059 98.5128 20.4 100.223 21.1094C101.865 21.7901 102.673 23.1699 102.795 24.9003C102.852 25.7167 102.8 26.5786 102.597 27.3682C102.042 29.5264 100.042 30.7966 97.7971 30.6707C95.1086 30.52 93.4687 28.3281 93.5075 25.722ZM95.705 25.7164C95.685 26.5542 95.873 27.3984 96.4036 28.1398C97.3055 29.4002 99.0839 29.3973 99.9216 28.0909C100.909 26.5515 100.924 24.9267 100.022 23.3522C99.182 21.8861 97.2015 21.9104 96.3018 23.3471C95.8595 24.0533 95.6983 24.8317 95.705 25.7164Z" fill="black" style="user-select: auto;"></path>
<path d="M119.107 26.1956C116.969 26.1956 114.886 26.1956 112.806 26.1956C112.648 27.6203 113.821 28.9096 115.315 28.9637C115.814 28.9818 116.32 28.976 116.814 28.9144C117.305 28.8532 117.786 28.7081 118.318 28.5896C118.412 28.9954 118.53 29.4186 118.593 29.8498C118.607 29.9415 118.438 30.1192 118.319 30.1619C117.053 30.6163 115.751 30.7375 114.42 30.5436C113.004 30.3371 111.939 29.6121 111.256 28.3517C110.22 26.4378 110.603 23.5315 112.115 21.9636C113.365 20.6677 114.912 20.3983 116.569 20.9082C118.163 21.3986 118.856 22.6882 119.092 24.2355C119.186 24.8571 119.107 25.505 119.107 26.1956ZM117.072 24.6409C117.272 23.4686 116.471 22.3476 115.34 22.1891C114.047 22.0081 112.925 23.0806 112.794 24.6409C114.222 24.6409 115.649 24.6409 117.072 24.6409Z" fill="black" style="user-select: auto;"></path>
<path d="M87.9429 22.5121C87.4567 22.5121 87.0281 22.5121 86.5674 22.5121C86.5674 21.9798 86.5674 21.4718 86.5674 20.9038C87.0025 20.9038 87.4524 20.9038 87.9429 20.9038C87.9429 20.3891 87.9516 19.9329 87.9391 19.4773C87.933 19.2541 87.9767 19.1358 88.2292 19.0714C88.8188 18.921 89.3957 18.7205 90.0418 18.5205C90.0418 18.9447 90.0418 19.314 90.0418 19.6833C90.0418 20.0588 90.0418 20.4343 90.0418 20.8729C90.8108 20.8729 91.5653 20.8729 92.3411 20.8729C92.3411 21.4446 92.3411 21.9533 92.3411 22.5041C91.5868 22.5041 90.8423 22.5041 90.079 22.5041C90.063 22.6358 90.0422 22.7285 90.042 22.8214C90.0396 24.2841 90.0393 25.7469 90.0405 27.2096C90.0406 27.3346 90.0479 27.4607 90.0648 27.5845C90.2066 28.6279 90.7121 29.0083 91.7563 28.8597C91.89 28.8407 92.0228 28.8168 92.186 28.7902C92.2166 29.2805 92.2533 29.7362 92.2663 30.1928C92.2688 30.2793 92.1999 30.41 92.1258 30.4502C91.3839 30.8534 89.5148 30.6294 88.8591 30.0778C88.1568 29.4869 87.979 28.668 87.9591 27.8263C87.9202 26.1833 87.9445 24.5389 87.9428 22.895C87.9428 22.7859 87.9429 22.6768 87.9429 22.5121Z" fill="black" style="user-select: auto;"></path>
<path d="M109.715 20.7992C109.715 21.4311 109.715 22.0684 109.715 22.7543C109.453 22.7543 109.195 22.7538 108.938 22.7544C108.155 22.7563 107.54 23.1018 107.22 23.7972C107.001 24.2749 106.853 24.8259 106.836 25.3494C106.787 26.8795 106.818 28.4121 106.818 29.9437C106.818 30.0944 106.818 30.245 106.818 30.425C106.097 30.425 105.411 30.425 104.662 30.425C104.662 27.265 104.662 24.1138 104.662 20.9343C105.229 20.9343 105.821 20.9343 106.459 20.9343C106.495 21.4716 106.532 22.0161 106.57 22.5919C107.763 20.9331 108.626 20.4426 109.715 20.7992Z" fill="black" style="user-select: auto;"></path>
<path d="M26.0582 5.37601C26.5204 8.2226 23.6839 11.4997 21.0641 11.1832C20.4266 8.77813 23.3515 5.36305 26.0582 5.37601Z" fill="black" style="user-select: auto;"></path>
<path d="M70.0099 11.9409C69.9858 12.1395 69.9649 12.3123 69.941 12.5092C69.6499 12.5092 69.3664 12.5092 69.0693 12.5092C69.0693 10.2256 69.0693 7.97375 69.0693 5.68262C69.4225 5.68262 69.7603 5.68262 70.1278 5.68262C70.1278 6.58069 70.1278 7.4658 70.1278 8.32992C70.4561 8.14117 70.7506 7.89899 71.088 7.79178C71.9861 7.50627 72.8822 7.89664 73.2814 8.76662C73.7379 9.76161 73.7193 10.7768 73.1226 11.7162C72.4128 12.8337 71.0752 12.9511 70.1413 12.0149C70.1159 11.9893 70.0764 11.9776 70.0099 11.9409ZM70.125 10.096C70.1475 10.3935 70.145 10.6186 70.1851 10.836C70.2789 11.3453 70.6299 11.6871 71.0876 11.7446C71.6432 11.8142 72.0557 11.6122 72.2791 11.1128C72.573 10.4562 72.579 9.79255 72.2291 9.14812C72.008 8.74103 71.6466 8.54091 71.1958 8.58172C70.7285 8.62403 70.3898 8.89816 70.2461 9.34741C70.1629 9.60765 70.1558 9.89232 70.125 10.096Z" fill="black" style="user-select: auto;"></path>
<path d="M46.3728 12.5315C46.0731 12.5315 45.7808 12.5567 45.4968 12.5187C45.388 12.5042 45.2508 12.3633 45.2086 12.2494C45.0494 11.8201 44.9151 11.3807 44.7896 10.9399C44.7285 10.7253 44.6426 10.6145 44.3914 10.6254C43.8912 10.6472 43.3892 10.6414 42.8885 10.6275C42.6708 10.6215 42.567 10.6918 42.5112 10.9079C42.4037 11.3236 42.2482 11.7272 42.1461 12.144C42.0757 12.4318 41.9542 12.5775 41.637 12.5374C41.423 12.5103 41.2028 12.5322 40.9199 12.5322C41.1071 11.9402 41.2709 11.4157 41.4388 10.8926C41.9265 9.37351 42.4212 7.8566 42.899 6.33442C42.9748 6.09299 43.0884 6.01638 43.3377 6.0153C44.322 6.01103 44.3246 6.00133 44.6286 6.94439C45.2163 8.76772 45.8008 10.592 46.3859 12.4162C46.3897 12.4279 46.3834 12.4427 46.3728 12.5315ZM42.8117 9.77776C43.3739 9.77776 43.9152 9.77776 44.4796 9.77776C44.1949 8.86338 43.9189 7.9766 43.6278 7.04123C43.3449 7.98982 43.0814 8.87309 42.8117 9.77776Z" fill="black" style="user-select: auto;"></path>
<path d="M108.248 12.5208C107.928 12.5208 107.613 12.5208 107.24 12.5208C107.24 11.853 107.246 11.2042 107.237 10.5555C107.232 10.1809 107.228 9.80275 107.174 9.43328C107.084 8.8111 106.793 8.59199 106.183 8.62979C105.688 8.66057 105.328 9.0271 105.315 9.56767C105.296 10.3886 105.283 11.2109 105.309 12.0313C105.322 12.4241 105.222 12.6032 104.808 12.5454C104.633 12.521 104.452 12.5414 104.24 12.5414C104.24 10.2374 104.24 7.97641 104.24 5.64447C104.488 5.64447 104.733 5.65434 104.977 5.64171C105.23 5.62858 105.319 5.73387 105.316 5.98509C105.305 6.74952 105.312 7.51421 105.312 8.29395C105.58 8.12351 105.812 7.9203 106.082 7.81401C107.059 7.42924 108.123 7.99807 108.224 9.06934C108.331 10.1955 108.248 11.3398 108.248 12.5208Z" fill="black" style="user-select: auto;"></path>
<path d="M90.4377 10.1618C90.428 11.6134 89.4482 12.6443 88.0805 12.6421C86.7445 12.6399 85.7903 11.6214 85.793 10.2C85.7957 8.72251 86.7697 7.70527 88.1764 7.71096C89.522 7.7164 90.4474 8.71934 90.4377 10.1618ZM89.377 10.2981C89.2656 9.84329 89.233 9.50175 89.0993 9.20588C88.7613 8.45717 87.8746 8.29426 87.3498 8.85531C86.7801 9.46454 86.7635 10.8246 87.3182 11.4534C87.753 11.9466 88.4457 11.9943 88.837 11.4729C89.1052 11.1156 89.2235 10.6456 89.377 10.2981Z" fill="black" style="user-select: auto;"></path>
<path d="M110.515 10.4533C110.595 11.6654 111.416 11.9999 113.227 11.5935C113.278 11.8298 113.328 12.0657 113.386 12.3336C112.507 12.6415 111.654 12.7696 110.794 12.4362C109.9 12.0893 109.547 11.3587 109.451 10.4486C109.322 9.21348 110.053 8.03986 111.153 7.76062C112.366 7.45271 113.441 8.18486 113.598 9.42673C113.729 10.4534 113.729 10.4534 112.708 10.4534C111.987 10.4533 111.266 10.4533 110.515 10.4533ZM110.517 9.62668C111.222 9.62668 111.899 9.62668 112.574 9.62668C112.609 9.00316 112.293 8.56186 111.772 8.48609C111.141 8.39418 110.683 8.79944 110.517 9.62668Z" fill="black" style="user-select: auto;"></path>
<path d="M78.6922 10.4536C78.8718 11.7058 79.7094 12.0437 81.3946 11.5841C81.4559 11.8161 81.5171 12.0479 81.5914 12.3298C80.5605 12.6727 79.5648 12.8321 78.6043 12.2382C77.7324 11.699 77.4108 10.4706 77.7843 9.27837C78.095 8.28621 78.9194 7.68594 79.94 7.7035C81.2653 7.72625 81.98 8.90388 81.8158 10.2752C81.8071 10.3475 81.5899 10.443 81.4682 10.4455C80.703 10.4612 79.9375 10.4535 79.1721 10.4536C79.0213 10.4536 78.8704 10.4536 78.6922 10.4536ZM80.8037 9.626C80.6959 8.79324 80.3754 8.44736 79.7578 8.47956C79.1948 8.50891 78.7661 8.99094 78.7436 9.626C79.4298 9.626 80.1155 9.626 80.8037 9.626Z" fill="black" style="user-select: auto;"></path>
<path d="M91.9242 7.8277C92.8444 7.7409 92.8444 7.7409 92.8824 8.36492C93.1679 8.18228 93.4393 7.9406 93.7566 7.81825C94.7969 7.41701 95.8585 8.0412 95.9437 9.17142C96.026 10.2623 95.9615 11.3644 95.9615 12.5014C95.6682 12.5014 95.3311 12.5014 94.9374 12.5014C94.9374 11.8458 94.9422 11.196 94.9356 10.5462C94.9319 10.1852 94.9336 9.82146 94.8898 9.46428C94.8183 8.88057 94.5526 8.63253 94.0529 8.62433C93.5132 8.61555 93.0894 8.92882 93.0411 9.46771C92.9842 10.1036 93.0038 10.7464 92.9913 11.3862C92.9887 11.5254 92.9906 11.6647 92.9904 11.8039C92.9897 12.6127 92.9887 12.621 92.1861 12.5292C92.0867 12.5178 91.9267 12.3626 91.925 12.2716C91.8972 10.8242 91.8906 9.37656 91.8809 7.92889C91.8808 7.90447 91.9012 7.87989 91.9242 7.8277Z" fill="black" style="user-select: auto;"></path>
<path d="M67.2923 12.5048C67.0239 12.5048 66.7244 12.5048 66.4157 12.5048C66.3855 12.3599 66.3579 12.2271 66.337 12.1269C65.9833 12.2901 65.6567 12.5028 65.2994 12.5928C64.5465 12.7823 63.8348 12.4058 63.5881 11.7533C63.3132 11.0262 63.5881 10.2181 64.3137 9.8812C64.7564 9.67573 65.2638 9.60657 65.7456 9.49066C65.8898 9.45596 66.0459 9.47026 66.1895 9.4624C66.3562 8.54033 65.3262 8.1763 64.0842 8.79639C63.7267 8.20782 63.7643 8.0348 64.4044 7.88001C64.8564 7.77071 65.3426 7.71024 65.8032 7.74913C66.7475 7.82866 67.2815 8.46841 67.2902 9.43806C67.2993 10.4512 67.2923 11.4644 67.2923 12.5048ZM66.2186 10.2267C65.9935 10.2267 65.7794 10.1728 65.6114 10.238C65.2751 10.3685 64.8938 10.502 64.6692 10.7563C64.5345 10.9088 64.5851 11.3249 64.6882 11.5639C64.8299 11.8925 65.2005 11.8658 65.5011 11.8046C65.8641 11.7309 66.1401 11.4965 66.2084 11.1254C66.2599 10.8462 66.2186 10.5499 66.2186 10.2267Z" fill="black" style="user-select: auto;"></path>
<path d="M55.1635 9.45857C55.3444 8.5319 54.3161 8.18217 53.0649 8.79399C52.7072 8.18861 52.7397 8.04176 53.3975 7.88103C53.8364 7.77382 54.307 7.71278 54.7552 7.74489C55.6718 7.81062 56.2419 8.45463 56.257 9.38331C56.2738 10.4113 56.2609 11.4397 56.2609 12.5003C56.0146 12.5003 55.7171 12.5003 55.394 12.5003C55.3696 12.3568 55.3451 12.2131 55.3358 12.1587C54.9111 12.3178 54.4938 12.5493 54.0503 12.6225C53.3791 12.7335 52.7857 12.3277 52.5643 11.7266C52.3304 11.0916 52.5188 10.3193 53.114 10.0041C53.6027 9.74533 54.1776 9.64648 54.7187 9.49211C54.8608 9.45163 55.0191 9.46794 55.1635 9.45857ZM55.282 10.1225C54.7729 10.2402 54.341 10.3016 53.9386 10.4455C53.6195 10.5596 53.4831 10.8791 53.5626 11.1989C53.616 11.4138 53.7594 11.6836 53.9401 11.7744C54.4131 12.0122 55.0559 11.6728 55.1854 11.1431C55.2556 10.8561 55.245 10.5492 55.282 10.1225Z" fill="black" style="user-select: auto;"></path>
<path d="M49.3999 11.3771C49.7031 10.4189 49.9797 9.55236 50.2514 8.68431C50.55 7.73046 50.548 7.72987 51.6069 7.84578C51.5716 7.96771 51.5457 8.08529 51.5038 8.19685C50.9966 9.54609 50.4794 10.8916 49.9848 12.2455C49.892 12.4997 49.7395 12.576 49.5153 12.5266C49.2593 12.4702 48.9085 12.7231 48.757 12.3106C48.2312 10.8788 47.7068 9.4464 47.1842 8.01328C47.1664 7.96453 47.1738 7.90649 47.1699 7.85707C47.2073 7.83992 47.2305 7.82111 47.255 7.81927C48.238 7.74484 48.2393 7.74459 48.538 8.67528C48.817 9.5445 49.093 10.4147 49.3999 11.3771Z" fill="black" style="user-select: auto;"></path>
<path d="M100.566 7.78217C100.691 6.82389 100.691 6.82389 101.64 6.67871C101.64 7.03814 101.64 7.39364 101.64 7.78853C102.029 7.78853 102.384 7.78853 102.777 7.78853C102.777 8.08022 102.777 8.33235 102.777 8.62388C102.409 8.62388 102.053 8.62388 101.669 8.62388C101.669 9.47871 101.632 10.2979 101.682 11.1117C101.715 11.6513 101.891 11.7225 102.681 11.7386C102.695 11.7623 102.722 11.7878 102.719 11.8097C102.689 12.0565 102.744 12.397 102.603 12.529C102.333 12.7823 101.368 12.6717 101.113 12.3656C100.895 12.1039 100.696 11.7532 100.662 11.4243C100.588 10.6786 100.62 9.92202 100.609 9.1698C100.607 9.00497 100.609 8.84005 100.609 8.65666C100.368 8.64002 100.165 8.62597 99.9326 8.60991C99.9326 8.35359 99.9326 8.11082 99.9326 7.82633C100.14 7.81186 100.342 7.79781 100.566 7.78217Z" fill="black" style="user-select: auto;"></path>
<path d="M75.0977 5.6709C75.4541 5.6709 75.7815 5.6709 76.1347 5.6709C76.1347 7.96044 76.1347 10.2219 76.1347 12.5119C75.7843 12.5119 75.4576 12.5119 75.0977 12.5119C75.0977 10.2377 75.0977 7.97533 75.0977 5.6709Z" fill="black" style="user-select: auto;"></path>
<path d="M60.9736 5.68945C61.3304 5.68945 61.6472 5.68945 61.9933 5.68945C61.9933 7.96495 61.9933 10.2215 61.9933 12.5053C61.654 12.5053 61.3274 12.5053 60.9736 12.5053C60.9736 10.2371 60.9736 7.98042 60.9736 5.68945Z" fill="black" style="user-select: auto;"></path>
<path d="M59.0926 12.5077C58.7428 12.5077 58.4294 12.5077 58.0898 12.5077C58.0898 10.9475 58.0898 9.41198 58.0898 7.84473C58.4245 7.84473 58.7469 7.84473 59.0926 7.84473C59.0926 9.39609 59.0926 10.9323 59.0926 12.5077Z" fill="black" style="user-select: auto;"></path>
<path d="M58.5984 7.05674C58.2127 7.05774 57.9538 6.81748 57.9474 6.45253C57.9409 6.08625 58.2406 5.79472 58.6143 5.80392C58.9728 5.81279 59.253 6.09628 59.2477 6.44501C59.2424 6.80251 58.9735 7.05582 58.5984 7.05674Z" fill="black" style="user-select: auto;"></path>
</svg>