<svg width="30" height="30" viewBox="0 0 37 34" fill="none" xmlns="http://www.w3.org/2000/svg" style="user-select: auto;"><path d="M31.9325 1H5.4915C4.90108 1.00058 4.31656 1.11746 3.77131 1.34394C3.22606 1.57042 2.73076 1.90208 2.31369 2.31998C1.89661 2.73789 1.56593 3.23385 1.34053 3.77954C1.11513 4.32524 0.999417 4.90999 1 5.50041V8.93142C1 9.10868 1.07042 9.27869 1.19577 9.40403C1.32111 9.52938 1.49112 9.59979 1.66838 9.59979H3.56212V30.8497C3.56329 31.5336 3.83549 32.1892 4.31906 32.6727C4.80264 33.1563 5.45817 33.4285 6.14206 33.4297H31.2909C31.9732 33.4262 32.6265 33.1529 33.1081 32.6696C33.5898 32.1863 33.8607 31.5321 33.8619 30.8497V9.58643H35.7467C35.924 9.58643 36.094 9.51601 36.2193 9.39066C36.3447 9.26532 36.4151 9.09531 36.4151 8.91805V5.50041C36.4163 4.30955 35.945 3.16686 35.1046 2.32313C34.2642 1.47939 33.1234 1.00354 31.9325 1ZM21.3053 8.91805V16.3994L19.1576 14.5057C19.0351 14.3961 18.8764 14.3355 18.712 14.3355C18.5476 14.3355 18.389 14.3961 18.2664 14.5057L16.1142 16.3994V2.33676H21.3053V8.91805ZM2.33676 5.50041C2.33794 4.66408 2.67069 3.86235 3.26206 3.27097C3.85344 2.6796 4.65517 2.34685 5.4915 2.34567H14.782V8.24967H2.33676V5.50041ZM32.5252 30.8497C32.5252 31.013 32.493 31.1747 32.4305 31.3255C32.368 31.4763 32.2765 31.6134 32.161 31.7288C32.0456 31.8443 31.9085 31.9358 31.7577 31.9983C31.6069 32.0608 31.4452 32.0929 31.282 32.0929H6.13314C5.80498 32.0906 5.49105 31.9586 5.25984 31.7257C5.02862 31.4928 4.89886 31.1779 4.89887 30.8497V9.58643H14.7909V17.8743C14.7906 18.0029 14.8275 18.1289 14.897 18.2371C14.9666 18.3453 15.0659 18.4312 15.183 18.4843C15.3002 18.5375 15.4302 18.5557 15.5574 18.5368C15.6846 18.5179 15.8037 18.4627 15.9004 18.3778L18.712 15.8959L21.5326 18.3734C21.5883 18.4206 21.6516 18.4583 21.7197 18.4848H21.7865C21.8344 18.4992 21.8837 18.5082 21.9336 18.5115H21.9737H22.0806C22.2377 18.4888 22.3812 18.4099 22.4844 18.2895C22.5877 18.169 22.6437 18.0151 22.6421 17.8565V9.58643H32.5252V30.8497ZM35.0784 8.24967H22.6421V2.33676H31.9325C32.3474 2.33734 32.7581 2.41963 33.1412 2.57894C33.5242 2.73825 33.8722 2.97144 34.1651 3.26521C34.4581 3.55899 34.6903 3.90758 34.8485 4.2911C35.0067 4.67461 35.0879 5.08554 35.0873 5.50041L35.0784 8.24967ZM21.8668 23.8006V28.7822C21.8668 28.9595 21.9372 29.1295 22.0625 29.2548C22.1879 29.3802 22.3579 29.4506 22.5351 29.4506H29.2189C29.3962 29.4506 29.5662 29.3802 29.6915 29.2548C29.8169 29.1295 29.8873 28.9595 29.8873 28.7822V23.8006C29.8873 23.6233 29.8169 23.4533 29.6915 23.328C29.5662 23.2026 29.3962 23.1322 29.2189 23.1322H22.5351C22.3579 23.1322 22.1879 23.2026 22.0625 23.328C21.9372 23.4533 21.8668 23.6233 21.8668 23.8006ZM23.2035 24.469H28.5505V28.1139H23.2035V24.469ZM15.6286 23.8006C15.6286 23.9779 15.5581 24.1479 15.4328 24.2732C15.3075 24.3986 15.1375 24.469 14.9602 24.469H10.6291C10.4518 24.469 10.2818 24.3986 10.1565 24.2732C10.0311 24.1479 9.96072 23.9779 9.96072 23.8006C9.96072 23.6233 10.0311 23.4533 10.1565 23.328C10.2818 23.2026 10.4518 23.1322 10.6291 23.1322H14.9691C15.1464 23.1322 15.3164 23.2026 15.4417 23.328C15.5671 23.4533 15.6375 23.6233 15.6375 23.8006H15.6286ZM9.09628 23.8006C9.09628 23.9779 9.02587 24.1479 8.90052 24.2732C8.77518 24.3986 8.60517 24.469 8.42791 24.469H8.18729C8.01003 24.469 7.84002 24.3986 7.71468 24.2732C7.58933 24.1479 7.51891 23.9779 7.51891 23.8006C7.51891 23.6233 7.58933 23.4533 7.71468 23.328C7.84002 23.2026 8.01003 23.1322 8.18729 23.1322H8.42791C8.51643 23.131 8.6043 23.1475 8.68642 23.1805C8.76854 23.2136 8.84328 23.2626 8.90629 23.3248C8.9693 23.387 9.01933 23.4611 9.05348 23.5427C9.08762 23.6244 9.1052 23.7121 9.1052 23.8006H9.09628ZM15.6375 28.7822C15.6375 28.9595 15.5671 29.1295 15.4417 29.2548C15.3164 29.3802 15.1464 29.4506 14.9691 29.4506H10.6291C10.4518 29.4506 10.2818 29.3802 10.1565 29.2548C10.0311 29.1295 9.96072 28.9595 9.96072 28.7822C9.96072 28.605 10.0311 28.435 10.1565 28.3096C10.2818 28.1843 10.4518 28.1139 10.6291 28.1139H14.9691C15.1464 28.1139 15.3164 28.1843 15.4417 28.3096C15.5671 28.435 15.6375 28.605 15.6375 28.7822ZM9.1052 28.7822C9.1052 28.9595 9.03478 29.1295 8.90943 29.2548C8.78409 29.3802 8.61408 29.4506 8.43682 29.4506H8.1962C8.01894 29.4506 7.84893 29.3802 7.72359 29.2548C7.59824 29.1295 7.52782 28.9595 7.52782 28.7822C7.52782 28.605 7.59824 28.435 7.72359 28.3096C7.84893 28.1843 8.01894 28.1139 8.1962 28.1139H8.43682C8.61408 28.1139 8.78409 28.1843 8.90943 28.3096C9.03478 28.435 9.1052 28.605 9.1052 28.7822Z" fill="#272D4E" stroke="#272D4E" stroke-width="0.5" style="user-select: auto;"></path></svg>