<svg width="30" height="30" viewBox="0 0 39 36" fill="none" xmlns="http://www.w3.org/2000/svg" style="user-select: auto;"><path d="M38.1708 5.71644C37.765 5.31067 37.1564 5.31067 36.7506 5.71644L17.7805 24.6865L10.5273 17.3825C10.1215 16.9767 9.51284 16.9767 9.10707 17.3825C8.70129 17.7883 8.70129 18.397 9.10707 18.8027L17.0704 26.7661C17.2733 26.969 17.5269 27.0704 17.7805 27.0704C18.0342 27.0704 18.2878 26.969 18.4907 26.7661L38.1201 7.13666C38.5259 6.78161 38.5259 6.12222 38.1708 5.71644Z" fill="#272D4E" stroke="#272D4E" stroke-width="0.5" style="user-select: auto;"></path><path d="M32.7434 3.02888C33.3013 3.02888 33.7578 2.57238 33.7578 2.01444C33.7578 1.4565 33.3013 1 32.7434 1H2.31013C1.19425 1 0.28125 1.913 0.28125 3.02888V33.4621C0.28125 34.578 1.19425 35.491 2.31013 35.491H32.7434C33.8593 35.491 34.7723 34.578 34.7723 33.4621V16.7746C34.7723 16.2166 34.3158 15.7601 33.7578 15.7601C33.1999 15.7601 32.7434 16.2166 32.7434 16.7746V33.4621H2.31013V3.02888H32.7434Z" fill="#272D4E" stroke="#272D4E" stroke-width="0.5" style="user-select: auto;"></path></svg>