<svg width="30" height="30" viewBox="0 0 37 37" fill="none" xmlns="http://www.w3.org/2000/svg" style="user-select: auto;"><path d="M18.6172 0.71875C8.90277 0.71875 1 8.62152 1 18.336C1 28.0504 8.90277 35.9538 18.6172 35.9538C28.3317 35.9538 36.235 28.0504 36.235 18.336C36.235 8.62152 28.3317 0.71875 18.6172 0.71875ZM18.6172 34.2658C9.83393 34.2658 2.6879 27.1193 2.6879 18.336C2.6879 9.55268 9.83393 2.40665 18.6172 2.40665C27.4005 2.40665 34.5471 9.55268 34.5471 18.336C34.5471 27.1193 27.4005 34.2658 18.6172 34.2658Z" fill="#272D4E" stroke="#272D4E" stroke-width="0.5" style="user-select: auto;"></path><path d="M29.0965 17.4916H19.4613V4.41036C19.4613 3.94393 19.0838 3.56641 18.6174 3.56641C18.151 3.56641 17.7734 3.94393 17.7734 4.41036V18.3356C17.7734 18.802 18.151 19.1795 18.6174 19.1795H29.0965C29.5623 19.1795 29.9404 18.802 29.9404 18.3356C29.9404 17.8691 29.5623 17.4916 29.0965 17.4916Z" fill="#272D4E" stroke="#272D4E" stroke-width="0.5" style="user-select: auto;"></path></svg>