<svg xmlns="http://www.w3.org/2000/svg" width="171" height="51" viewBox="0 0 171 51" fill="none" style="user-select: auto;">
<rect x="0.617188" y="0.25" width="169.173" height="50.5" rx="9.75" stroke="black" stroke-width="0.5" style="user-select: auto;"></rect>
<path d="M63.5298 31.3914C61.6582 31.3914 59.8702 31.3914 58.0546 31.3914C58.0546 30.6183 58.0546 29.896 58.0546 29.1382C60.603 29.1382 63.1391 29.1382 65.7322 29.1382C65.9458 30.4905 65.8845 31.8237 65.4672 33.1287C64.551 35.9933 61.7889 38.0086 58.7741 38.1327C55.2726 38.2769 52.5216 36.96 50.6779 33.9765C48.3165 30.1552 49.6407 25.2271 53.5959 22.8147C56.725 20.9061 60.6911 21.2199 63.4699 23.5942C63.5642 23.6748 63.6692 23.7427 63.7336 23.7902C63.1755 24.3767 62.6647 24.9133 62.135 25.4701C61.2763 24.7396 60.3458 24.1754 59.223 23.9961C56.7654 23.6036 54.6916 24.2903 53.2144 26.3277C51.7195 28.3894 51.6022 30.6483 52.8485 32.8467C54.1045 35.0624 56.1283 36.0283 58.6666 35.8136C60.5919 35.6507 62.1456 34.8309 63.0194 33.0226C63.254 32.5368 63.3492 31.9837 63.5298 31.3914Z" fill="black" style="user-select: auto;"></path>
<path d="M98.2785 28.6721C98.2785 28.3186 98.2785 28.0772 98.2785 27.8085C99.0332 27.8085 99.7528 27.8085 100.503 27.8085C100.513 27.9339 100.528 28.036 100.528 28.1381C100.525 31.4285 100.543 34.7192 100.507 38.0093C100.48 40.4092 99.0643 42.2242 96.895 42.7599C94.393 43.3779 91.9214 42.3286 90.8154 40.1766C90.752 40.0534 90.7067 39.9208 90.6361 39.7524C91.3233 39.4666 91.9902 39.1893 92.6518 38.9141C93.9236 40.6829 94.9832 41.1452 96.5197 40.6158C97.7935 40.1768 98.3137 39.1006 98.2474 36.9775C98.023 37.1548 97.8326 37.3246 97.6237 37.4671C96.1423 38.4773 94.0544 38.3883 92.4386 37.1714C90.6504 35.8248 89.8612 34.003 90.3082 31.7914C90.7413 29.6488 92.0675 28.2219 94.1948 27.6301C95.6841 27.2158 97.0328 27.5384 98.2785 28.6721ZM98.4776 32.8148C98.3786 32.3671 98.3266 31.9024 98.172 31.4749C97.6944 30.1552 96.371 29.4191 95.1114 29.6387C93.5021 29.9193 92.2897 31.5215 92.6593 33.5132C92.9245 34.9424 94.0518 35.9315 95.3413 36.0029C97.1218 36.1018 98.4177 34.7643 98.4776 32.8148Z" fill="black" style="user-select: auto;"></path>
<path d="M123.136 37.7861C122.292 37.7861 121.535 37.7861 120.751 37.7861C120.751 32.5709 120.751 27.387 120.751 22.1672C120.931 22.1541 121.085 22.1334 121.239 22.1332C122.963 22.131 124.687 22.1245 126.412 22.1336C128.791 22.1462 130.898 23.6611 131.458 25.7474C132.217 28.5732 130.316 31.417 127.329 31.8045C126.209 31.9499 125.061 31.8798 123.925 31.9057C123.682 31.9112 123.438 31.9065 123.136 31.9065C123.136 32.9351 123.136 33.9083 123.136 34.8814C123.136 35.8379 123.136 36.7942 123.136 37.7861ZM123.163 29.6971C123.375 29.6971 123.55 29.6977 123.725 29.697C124.739 29.6929 125.757 29.7452 126.765 29.6704C128.095 29.5718 129.159 28.4305 129.232 27.1474C129.304 25.8703 128.37 24.6043 127.006 24.4479C125.749 24.3039 124.463 24.4173 123.163 24.4173C123.163 26.1434 123.163 27.8806 123.163 29.6971Z" fill="black" style="user-select: auto;"></path>
<path d="M143.519 31.6619C143.544 30.7229 143.04 30.0835 142.064 29.7478C140.83 29.3234 139.703 29.6629 138.926 30.7289C138.258 30.4532 137.578 30.1723 136.856 29.8745C137.072 29.2234 137.507 28.769 138.011 28.3823C139.762 27.0364 142.845 27.1499 144.515 28.5952C145.324 29.2958 145.723 30.197 145.861 31.2328C145.889 31.443 145.876 31.6591 145.876 31.8725C145.877 33.8264 145.877 35.7804 145.877 37.7711C145.104 37.7711 144.369 37.7711 143.579 37.7711C143.579 37.4198 143.579 37.0728 143.579 36.6161C143.451 36.732 143.398 36.7656 143.364 36.8124C141.948 38.7325 138.743 38.3961 137.369 36.8262C136.03 35.2971 136.346 33.0418 138.122 31.9492C139.648 31.0106 141.289 30.8792 142.984 31.4532C143.151 31.5095 143.312 31.5805 143.519 31.6619ZM141.493 32.9553C140.91 33.1135 140.312 33.2152 139.765 33.4415C139.18 33.684 138.876 34.2767 138.948 34.8106C139.032 35.4238 139.464 35.7216 139.999 35.89C141.466 36.3522 143.128 35.4144 143.48 33.9121C143.512 33.7745 143.38 33.485 143.262 33.445C142.698 33.2517 142.112 33.12 141.493 32.9553Z" fill="black" style="user-select: auto;"></path>
<path d="M89.2248 32.823C89.2197 35.8453 86.8809 38.148 83.8171 38.1472C80.7629 38.1465 78.411 35.8313 78.4024 32.8174C78.3937 29.7932 80.7661 27.4629 83.8486 27.4678C86.9027 27.4726 89.2299 29.7908 89.2248 32.823ZM83.7972 36.0089C85.498 36.0161 86.8289 34.6361 86.8487 32.8449C86.8685 31.0456 85.5157 29.5901 83.8211 29.5876C82.1536 29.5851 80.8071 31.009 80.7886 32.7945C80.7702 34.5664 82.1138 36.0019 83.7972 36.0089Z" fill="black" style="user-select: auto;"></path>
<path d="M72.0265 38.1451C68.9746 38.1279 66.6025 35.7904 66.6065 32.8039C66.6104 29.772 69.0178 27.4479 72.1356 27.4659C75.1475 27.4834 77.4866 29.8656 77.4592 32.8876C77.4322 35.8571 75.0504 38.1622 72.0265 38.1451ZM75.0426 32.8149C75.0442 30.9948 73.7616 29.6038 72.0652 29.5858C70.3865 29.5681 69.0363 30.9827 69.0304 32.7652C69.0243 34.6228 70.3098 36.0074 72.0403 36.0072C73.7543 36.0071 75.041 34.6389 75.0426 32.8149Z" fill="black" style="user-select: auto;"></path>
<path d="M115.602 31.49C113.201 32.4742 110.828 33.4469 108.456 34.4196C109.312 36.4537 111.752 36.5356 113.683 34.5692C114.263 34.9511 114.851 35.3384 115.538 35.7911C115.181 36.1687 114.883 36.5596 114.513 36.8636C112.791 38.279 110.853 38.5468 108.826 37.6991C106.824 36.8618 105.765 35.2542 105.664 33.0999C105.557 30.8357 106.431 29.0324 108.514 27.9807C111.092 26.6791 114.01 27.8202 115.23 30.5595C115.359 30.8469 115.465 31.1441 115.602 31.49ZM112.771 30.6641C112.258 29.7221 111.177 29.3442 110.079 29.6816C108.818 30.0697 107.929 31.3364 108.063 32.6013C109.638 31.9534 111.202 31.3099 112.771 30.6641Z" fill="black" style="user-select: auto;"></path>
<path d="M146.021 27.7795C146.823 27.7795 147.553 27.7562 148.278 27.7974C148.441 27.8067 148.664 28.0107 148.735 28.1779C149.572 30.154 150.386 32.1402 151.206 34.1234C151.258 34.2489 151.318 34.3714 151.42 34.5972C151.805 33.6424 152.155 32.7775 152.502 31.9114C152.99 30.6941 153.494 29.4824 153.952 28.2539C154.095 27.8681 154.291 27.7494 154.688 27.7698C155.361 27.8043 156.037 27.7793 156.773 27.7793C156.72 27.9459 156.692 28.0773 156.639 28.1976C154.594 32.8404 152.542 37.4801 150.509 42.1283C150.354 42.4816 150.173 42.6035 149.8 42.5861C149.168 42.5567 148.533 42.5779 147.803 42.5779C148.386 41.2967 148.849 40.0633 149.49 38.9317C150.138 37.7895 150.113 36.82 149.522 35.6321C148.306 33.1887 147.272 30.6551 146.163 28.1582C146.121 28.0632 146.09 27.9632 146.021 27.7795Z" fill="black" style="user-select: auto;"></path>
<path d="M135.26 37.7905C134.454 37.7905 133.696 37.7905 132.907 37.7905C132.907 32.5794 132.907 27.3954 132.907 22.1719C133.689 22.1719 134.458 22.1719 135.26 22.1719C135.26 27.3773 135.26 32.5604 135.26 37.7905Z" fill="black" style="user-select: auto;"></path>
<path d="M104.503 37.7944C103.712 37.7944 102.954 37.7944 102.164 37.7944C102.164 32.5878 102.164 27.4045 102.164 22.1768C102.928 22.1768 103.696 22.1768 104.503 22.1768C104.503 27.368 104.503 32.5499 104.503 37.7944Z" fill="black" style="user-select: auto;"></path>
<path d="M93.2344 9.03098C93.9433 8.90784 94.4813 8.92311 94.9131 9.69422C95.779 11.2404 96.7874 12.7068 97.7371 14.2059C97.819 14.3353 97.9026 14.4634 98.0739 14.7296C98.0739 13.6609 98.0739 12.7484 98.0739 11.836C98.0739 10.9131 98.0739 9.99027 98.0739 9.02628C98.4156 9.02628 98.7255 9.02628 99.0784 9.02628C99.0784 11.5087 99.0784 14.0026 99.0784 16.4927C98.4189 16.6688 97.9703 16.5336 97.5946 15.8919C96.6451 14.2698 95.6115 12.697 94.6099 11.1056C94.5175 10.9589 94.4122 10.8203 94.2301 10.5594C94.2301 12.6266 94.2301 14.5633 94.2301 16.525C93.8708 16.525 93.5749 16.525 93.2344 16.525C93.2344 14.0289 93.2344 11.5358 93.2344 9.03098Z" fill="black" style="user-select: auto;"></path>
<path d="M87.9745 8.83403C90.2479 8.84493 91.8999 10.5447 91.8803 12.8529C91.8615 15.0575 90.1358 16.7643 87.9397 16.7501C85.7346 16.7357 83.9868 14.9632 84.007 12.7617C84.0275 10.5288 85.7502 8.82335 87.9745 8.83403ZM90.8217 12.7999C90.8263 11.0681 89.6345 9.82098 87.9727 9.81885C86.3028 9.81671 85.0873 11.0671 85.0912 12.7832C85.0952 14.5034 86.3044 15.74 87.9767 15.734C89.6213 15.728 90.817 14.4948 90.8217 12.7999Z" fill="black" style="user-select: auto;"></path>
<path d="M56.6408 10.0053C56.4018 10.2183 56.1788 10.4171 55.9201 10.6477C55.3263 10.0066 54.5088 9.68704 53.6197 9.8512C53.0177 9.96238 52.3857 10.2287 51.9028 10.6016C50.9043 11.3725 50.6826 13.0186 51.2978 14.2154C51.8883 15.3642 53.2958 15.9837 54.6068 15.6718C55.7808 15.3924 56.5233 14.5635 56.5412 13.4567C55.6622 13.4567 54.7827 13.4567 53.8685 13.4567C53.8685 13.1251 53.8685 12.8489 53.8685 12.5308C55.0859 12.5308 56.3032 12.5308 57.5231 12.5308C57.9621 14.1784 57.0418 15.6599 55.7254 16.3324C53.4021 17.5194 50.5605 16.1877 49.9867 13.6436C49.5932 11.8988 50.3953 10.1517 51.9943 9.27148C53.3721 8.51298 55.3877 8.752 56.4643 9.80282C56.525 9.8622 56.5765 9.93098 56.6408 10.0053Z" fill="black" style="user-select: auto;"></path>
<path d="M59.0244 9.01562C60.4895 9.01562 61.9407 9.01562 63.4369 9.01562C63.4369 9.30164 63.4369 9.59193 63.4369 9.95057C62.3486 9.95057 61.2402 9.95057 60.0883 9.95057C60.0883 10.7503 60.0883 11.4848 60.0883 12.2829C61.0824 12.2829 62.0851 12.2829 63.1188 12.2829C63.1188 12.6214 63.1188 12.8984 63.1188 13.248C62.1251 13.248 61.1241 13.248 60.0841 13.248C60.0841 14.0548 60.0841 14.7908 60.0841 15.5807C61.1914 15.5807 62.3029 15.5807 63.4474 15.5807C63.4474 15.9087 63.4474 16.1849 63.4474 16.5074C61.9982 16.5074 60.5345 16.5074 59.0244 16.5074C59.0244 14.0308 59.0244 11.5383 59.0244 9.01562Z" fill="black" style="user-select: auto;"></path>
<path d="M69.6917 9.02246C69.6917 9.37341 69.6917 9.6355 69.6917 9.96392C69.0056 9.96392 68.3412 9.96392 67.6108 9.96392C67.6108 12.1867 67.6108 14.3437 67.6108 16.5253C67.2477 16.5253 66.9511 16.5253 66.5906 16.5253C66.5906 14.3773 66.5906 12.2213 66.5906 9.99126C65.8505 9.99126 65.1695 9.99126 64.4609 9.99126C64.4609 9.626 64.4609 9.33507 64.4609 9.02246C66.2173 9.02246 67.9449 9.02246 69.6917 9.02246Z" fill="black" style="user-select: auto;"></path>
<path d="M78.7715 9.9598C78.7715 12.2096 78.7715 14.3427 78.7715 16.5134C78.4305 16.5134 78.1219 16.5134 77.7556 16.5134C77.7556 14.3606 77.7556 12.2158 77.7556 10.0058C77.0376 10.0058 76.3728 10.0058 75.6641 10.0058C75.6641 9.64997 75.6641 9.3584 75.6641 9.02539C77.3861 9.02539 79.1158 9.02539 80.8744 9.02539C80.8744 9.32273 80.8744 9.60116 80.8744 9.9598C80.1992 9.9598 79.5184 9.9598 78.7715 9.9598Z" fill="black" style="user-select: auto;"></path>
<path d="M74.4215 16.5299C74.0823 16.5299 73.7844 16.5299 73.4521 16.5299C73.4521 14.0299 73.4521 11.5503 73.4521 9.02734C73.7569 9.02734 74.0665 9.02734 74.4215 9.02734C74.4215 11.502 74.4215 13.9943 74.4215 16.5299Z" fill="black" style="user-select: auto;"></path>
<path d="M13.7352 41.4807C13.22 41.0079 13.1248 40.3828 13.1237 39.7343C13.1183 36.4965 13.1198 33.2586 13.1193 30.0208C13.1187 24.0431 13.1182 18.0655 13.1182 12.0879C13.1182 11.4187 13.2073 10.7781 13.725 10.2822C14.3068 10.8551 14.8897 11.4268 15.4699 12.0012C19.1199 15.6146 22.7701 19.2277 26.4169 22.8443C26.642 23.0675 26.8101 23.3546 27.0535 23.5519C27.9251 24.2586 28.6717 25.0904 29.4542 25.8867C27.1696 28.1546 24.8857 30.4232 22.6002 32.6903C19.6458 35.621 16.6903 38.5506 13.7352 41.4807Z" fill="#56D5FE" style="user-select: auto;"></path>
<path d="M29.4548 25.8871C28.6723 25.0908 27.9257 24.259 27.0541 23.5523C26.8107 23.355 26.6426 23.068 26.4175 22.8447C22.7707 19.2281 19.1205 15.615 15.4705 12.0016C14.8903 11.4272 14.3074 10.8555 13.7256 10.2826C14.3924 9.67099 15.1357 9.57177 16.079 10.0596C17.1654 10.6214 18.2256 11.2339 19.2922 11.8333C24.4091 14.7086 29.5243 17.5869 34.6396 20.465C34.7006 20.4994 34.7557 20.5442 34.8135 20.5842C34.6303 20.7756 34.4507 20.9704 34.2636 21.1577C32.6888 22.7347 31.1125 24.3105 29.5368 25.8865C29.5096 25.8912 29.4821 25.8915 29.4548 25.8871Z" fill="#61F36E" style="user-select: auto;"></path>
<path d="M29.4542 25.8863C29.4816 25.8907 29.509 25.8904 29.5364 25.8857C31.307 27.6472 33.0776 29.4087 34.8481 31.1701C28.6722 34.645 22.4976 38.1226 16.3188 41.5923C15.2447 42.1954 14.3981 42.1429 13.7354 41.4803C16.6904 38.5502 19.6459 35.6206 22.6004 32.69C24.8856 30.4228 27.1696 28.1542 29.4542 25.8863Z" fill="#ED113A" style="user-select: auto;"></path>
<path d="M34.8478 31.1707C33.0773 29.4092 31.3068 27.6477 29.5361 25.8864C31.1119 24.3103 32.688 22.7346 34.2629 21.1575C34.45 20.9702 34.6296 20.7753 34.8128 20.584C35.4337 20.857 35.9577 21.2985 36.5547 21.6058C38.0836 22.3926 39.5777 23.241 41.0734 24.0875C41.3696 24.2552 41.6318 24.4608 41.8621 24.7114C42.5117 25.419 42.5325 26.2853 41.9141 27.0145C41.6812 27.2892 41.3965 27.5032 41.087 27.6772C39.0092 28.8454 36.928 30.007 34.8478 31.1707Z" fill="#F6C100" style="user-select: auto;"></path>
</svg>