<svg width="32" height="30" viewBox="0 0 53 38" fill="none" xmlns="http://www.w3.org/2000/svg" style="user-select: auto;"><path fill-rule="evenodd" clip-rule="evenodd" d="M46.4586 16.1236L36.7845 6.52489L40.4334 2.90007L50.1082 12.4995L46.4586 16.1236ZM41.2853 18.7369C40.7418 19.2775 40.3848 19.9478 40.2533 20.6768C39.862 22.839 38.2412 24.1749 36.6769 25.7294L36.0426 26.3586L35.9614 26.2778L35.7366 26.0523L30.7801 21.1287C30.8877 21.1366 31.1626 21.1041 31.2718 21.0954C31.9005 21.0432 33.0488 20.7567 33.5596 20.5493C33.9604 20.3863 34.1525 19.932 33.9883 19.5347C33.8249 19.1366 33.3675 18.9459 32.9667 19.1089C30.9498 19.928 29.5569 19.6756 27.3344 17.7072L27.293 17.6661L27.2683 17.6423L26.6085 16.9862L27.8803 15.727C28.1863 15.4231 28.1863 14.9309 27.8803 14.6269C27.5743 14.323 27.0786 14.323 26.7726 14.6269L24.9486 16.4346L24.947 16.4354L24.9454 16.437L21.279 20.0784C20.6646 20.6886 19.6653 20.6886 19.0509 20.0784C18.7537 19.7832 18.5896 19.3899 18.5896 18.972C18.5896 18.5541 18.7537 18.1615 19.0509 17.8655L24.888 12.0682C25.1749 11.7833 25.4944 11.5324 25.8371 11.3226C26.6523 10.8225 27.5926 10.5581 28.5584 10.5581C29.2955 10.5581 30.0382 10.7164 30.7052 11.0179C32.2232 11.7017 34.0274 11.3828 35.1948 10.2241L36.7718 8.71324L44.1102 15.9874L41.2853 18.7369ZM35.4251 29.442C35.2235 29.6423 34.9557 29.7531 34.6712 29.7531C34.3859 29.7531 34.1182 29.6423 33.9166 29.4412L27.0938 22.6641C26.7878 22.3602 26.2921 22.361 25.9861 22.6649C25.6801 22.9688 25.6801 23.4611 25.9861 23.765L33.5317 31.2616C33.7333 31.4618 33.8441 31.7285 33.8441 32.0111C33.8441 32.2944 33.7333 32.5611 33.5325 32.7606C33.1149 33.1745 32.4384 33.1745 32.0224 32.7614L30.5044 31.2529L30.4813 31.2291L30.4733 31.2228L23.2465 24.0175C22.9405 23.7135 22.444 23.7135 22.138 24.0175C21.832 24.3214 21.832 24.8136 22.138 25.1176L29.47 32.4036C29.6645 32.6015 29.7721 32.8642 29.7721 33.142C29.7721 33.4254 29.6605 33.6913 29.4597 33.8915C29.0437 34.3047 28.3672 34.3047 27.9512 33.8915L21.4798 27.4674C21.1738 27.1635 20.6774 27.1635 20.3714 27.4674C20.0654 27.7713 20.0654 28.2644 20.3714 28.5675L24.9717 33.1571L24.9757 33.1618C25.1773 33.3605 25.2881 33.6264 25.2881 33.909C25.2881 34.1923 25.1765 34.4582 24.9749 34.6592C24.7733 34.8595 24.5055 34.9703 24.2202 34.9703L24.0186 34.9505C24.1453 34.1021 23.8808 33.2069 23.225 32.5556C22.6918 32.0261 21.9842 31.7348 21.2304 31.7348L21.1682 31.7364L21.1674 31.7198L21.169 31.6771L21.1658 31.5576V31.5481L21.1507 31.3652V31.3613L21.1252 31.188L21.122 31.1713L21.0846 30.9972C20.7786 29.7792 19.6693 28.8777 18.3481 28.8777L18.2262 28.8809L18.2286 28.7907C18.2286 27.2434 16.9655 25.9905 15.4076 25.9905L15.3431 25.9921L15.3471 25.8489C15.3471 24.3404 14.1446 23.1112 12.6401 23.0527C12.2202 22.0254 11.9739 20.9094 11.758 19.7587C11.6113 18.9775 10.9587 18.3262 10.385 17.7571L8.73862 16.1259L16.4683 8.47185L18.5561 10.5462C19.3083 11.2942 20.3339 11.6938 21.3834 11.6938C21.8535 11.6938 22.3285 11.6139 22.7867 11.4477C23.009 11.3678 23.2385 11.3108 23.4712 11.2736L17.9433 16.7646C17.3496 17.3543 17.0221 18.1378 17.0221 18.972C17.0221 19.8054 17.3496 20.5897 17.9425 21.1785C18.5553 21.7872 19.3601 22.0911 20.165 22.0911C20.9698 22.0911 21.7746 21.7872 22.3874 21.1785L25.5008 18.0863L26.1606 18.7417L26.2148 18.7963L26.2156 18.7971L26.2379 18.8184L35.4251 27.943C35.6267 28.1433 35.7374 28.4092 35.7374 28.6925C35.7374 28.9759 35.6267 29.2418 35.4251 29.442ZM22.1165 35.4159C21.8798 35.6509 21.5651 35.7807 21.2304 35.7807C20.8965 35.7807 20.5809 35.6509 20.3443 35.4159C19.8558 34.9315 19.8558 34.1416 20.3443 33.6565C20.5889 33.4135 20.91 33.2924 21.2304 33.2924C21.5515 33.2924 21.8719 33.4135 22.1165 33.6565C22.605 34.1416 22.605 34.9315 22.1165 35.4159ZM17.0922 31.6858C17.0922 30.9988 17.6532 30.4424 18.3441 30.4424C19.0358 30.4424 19.5968 30.9988 19.5968 31.6858C19.5968 32.3728 19.0358 32.9299 18.3441 32.9299C17.6532 32.9299 17.0922 32.3728 17.0922 31.6858ZM15.4037 30.0427C14.7128 30.0427 14.1518 29.4863 14.1518 28.7994C14.1518 28.1124 14.7128 27.556 15.4037 27.556C16.0953 27.556 16.6563 28.1124 16.6563 28.7994C16.6563 29.4863 16.0953 30.0427 15.4037 30.0427ZM12.523 27.1017C11.8313 27.1017 11.2711 26.5453 11.2711 25.8584C11.2711 25.1714 11.8313 24.615 12.523 24.615C13.2147 24.615 13.7749 25.1714 13.7749 25.8584C13.7749 26.5453 13.2147 27.1017 12.523 27.1017ZM6.54085 16.1307L2.89197 12.5059L12.5851 2.8787L16.234 6.50352L6.54085 16.1307ZM51.7697 11.9487L40.988 1.24911C40.682 0.945192 40.1856 0.945192 39.8796 1.24911L35.1223 5.97405C34.9748 6.11967 34.8928 6.31753 34.8928 6.52489C34.8928 6.73067 34.9748 6.92932 35.1223 7.07495L35.6641 7.61313L34.0863 9.124C33.3779 9.82602 32.2798 10.0183 31.353 9.60046C30.4837 9.20869 29.5171 9.00133 28.5584 9.00133C27.4197 9.00133 26.3073 9.28546 25.3183 9.82285C24.9064 9.72234 24.4832 9.67089 24.0561 9.67089C23.4377 9.67089 22.8305 9.77616 22.2512 9.98589C21.3268 10.3191 20.3347 10.1125 19.6637 9.44533L17.5759 7.37253L17.8963 7.05358C18.0429 6.90795 18.1258 6.7093 18.1258 6.50352C18.1258 6.29696 18.0429 6.09909 17.8963 5.95347L13.1389 1.22853C12.8329 0.923823 12.3365 0.923823 12.0305 1.22853L1.2289 11.9558C0.9237 12.2597 0.9237 12.7528 1.2289 13.0559L5.98702 17.7816C6.13365 17.9281 6.33287 18.0096 6.54085 18.0096C6.74883 18.0096 6.94805 17.9281 7.09468 17.7816L7.64053 17.2316L9.22471 18.8501C9.57295 19.196 10.0726 19.5212 10.1602 19.9929C10.3834 21.1809 10.6663 22.3475 11.0982 23.4357C10.2662 23.9225 9.70762 24.8208 9.70762 25.8489C9.70762 27.3961 10.9707 28.6506 12.527 28.6506L12.5923 28.649L12.5891 28.7907C12.5891 30.3379 13.8514 31.5916 15.4076 31.5916L15.5312 31.5884L15.5296 31.6771C15.5296 33.2243 16.7926 34.478 18.3481 34.478L18.4134 34.4764C18.3975 35.2133 18.6716 35.9556 19.2366 36.5168C19.7689 37.0455 20.4773 37.3375 21.2304 37.3375C21.9842 37.3375 22.6926 37.0455 23.225 36.5168L23.3533 36.3791C23.6306 36.4756 23.9246 36.5271 24.221 36.5271C24.9255 36.5271 25.5869 36.254 26.0833 35.7594C26.3479 35.4974 26.5479 35.1887 26.6786 34.8524L26.8428 34.9917C27.3559 35.5021 28.0309 35.757 28.705 35.757C29.38 35.757 30.0541 35.5021 30.5673 34.9917C30.8407 34.721 30.9618 34.3411 31.0917 33.9921C31.5515 34.3245 32.2328 34.6268 32.7771 34.6268C33.4512 34.6268 34.1206 34.3664 34.6401 33.8615C35.0991 33.4159 35.4091 32.9545 35.4035 32.1369C35.4028 31.9256 35.2737 31.4673 35.2003 31.256C35.7024 31.1547 36.1638 30.911 36.5335 30.5421C37.0308 30.0483 37.3049 29.3914 37.3049 28.6925C37.3049 28.2857 37.2244 27.9232 37.0467 27.5631L37.7854 26.8295C39.5776 25.0495 41.3474 23.4286 41.7953 20.9514C41.871 20.5375 42.0774 20.152 42.3937 19.837L45.2186 17.0883L45.9047 17.7745C46.0577 17.9265 46.2585 18.0025 46.4586 18.0025C46.6594 18.0025 46.8602 17.9265 47.0132 17.7745L51.7705 13.0496C51.9171 12.904 52 12.7053 52 12.4995C52 12.293 51.9171 12.0951 51.7697 11.9487Z" fill="#272D4E" stroke="#272D4E" stroke-width="0.3" style="user-select: auto;"></path></svg>