<svg width="30" height="30" viewBox="0 0 40 40" fill="none" xmlns="http://www.w3.org/2000/svg" style="user-select: auto;"><path d="M24.1376 16.3743L18.2746 21.912L15.461 19.0171C15.1438 18.6918 14.6315 18.6918 14.3144 19.0008C13.9891 19.318 13.9891 19.8303 14.2981 20.1474L17.6728 23.6116C17.8354 23.7742 18.0469 23.8555 18.2583 23.8555C18.4616 23.8555 18.6568 23.7823 18.8194 23.636L25.2679 17.5534C25.5932 17.2444 25.6094 16.7321 25.3004 16.4068C24.9833 16.0815 24.471 16.0653 24.1376 16.3743Z" fill="#272D4E" stroke="#272D4E" stroke-width="0.5" style="user-select: auto;"></path><path d="M19.7856 7.85156C13.085 7.85156 7.63672 13.2999 7.63672 20.0004C7.63672 26.701 13.085 32.1493 19.7856 32.1493C26.4862 32.1493 31.9345 26.701 31.9345 20.0004C31.9345 13.2999 26.4862 7.85156 19.7856 7.85156ZM19.7856 30.523C13.9795 30.523 9.26307 25.7984 9.26307 20.0004C9.26307 14.2025 13.9795 9.47792 19.7856 9.47792C25.5917 9.47792 30.3081 14.1943 30.3081 20.0004C30.3081 25.8065 25.5917 30.523 19.7856 30.523Z" fill="#272D4E" stroke="#272D4E" stroke-width="0.5" style="user-select: auto;"></path><path d="M36.5042 15.528L36.7726 10.7059C36.7889 10.3806 36.6181 10.0797 36.3253 9.93334L32.0318 7.76215L29.8606 3.46858C29.7142 3.18397 29.4133 3.00507 29.0881 3.02133L24.2578 3.28155L20.2326 0.622456C19.9642 0.443556 19.6064 0.443556 19.3381 0.622456L15.3128 3.28155L10.4907 3.0132C10.1654 2.99693 9.86455 3.1677 9.71818 3.46045L7.54699 7.75402L3.25341 9.92521C2.9688 10.0716 2.7899 10.3725 2.80617 10.6977L3.07452 15.5199L0.415424 19.5451C0.236525 19.8134 0.236525 20.1712 0.415424 20.4396L3.06638 24.473L2.79803 29.2951C2.78177 29.6204 2.95254 29.9212 3.24528 30.0676L7.53886 32.2388L9.71004 36.5324C9.85642 36.817 10.1573 36.9959 10.4826 36.9796L15.3047 36.7113L19.3299 39.3704C19.4682 39.4598 19.6227 39.5086 19.7772 39.5086C19.9317 39.5086 20.0862 39.4598 20.2244 39.3704L24.2497 36.7113L29.0718 36.9796C29.3971 36.9959 29.698 36.8251 29.8443 36.5324L32.0155 32.2388L36.3091 30.0676C36.5937 29.9212 36.7726 29.6204 36.7563 29.2951L36.488 24.473L39.1471 20.4477C39.326 20.1794 39.326 19.8216 39.1471 19.5532L36.5042 15.528ZM34.9917 23.8061C34.8942 23.9525 34.8454 24.1233 34.8616 24.3022L35.1137 28.8641L31.056 30.9133C30.9015 30.9946 30.7713 31.1166 30.6982 31.2711L28.649 35.3289L24.087 35.0768C23.9163 35.0687 23.7374 35.1175 23.591 35.2069L19.7853 37.7196L15.9796 35.2069C15.8495 35.1175 15.6869 35.0687 15.5324 35.0687C15.5161 35.0687 15.4999 35.0687 15.4917 35.0687L10.9298 35.3207L8.8806 31.263C8.79928 31.1085 8.67731 30.9784 8.52281 30.9052L4.45692 28.8641L4.709 24.3022C4.71713 24.1314 4.66834 23.9525 4.57889 23.8061L2.06617 20.0005L4.57889 16.1948C4.67648 16.0484 4.72527 15.8777 4.709 15.6988L4.45692 11.1368L8.51467 9.08763C8.66918 9.00632 8.79929 8.88434 8.87247 8.72984L10.9217 4.67208L15.4836 4.92416C15.6544 4.9323 15.8333 4.88351 15.9796 4.79406L19.7853 2.28134L23.591 4.79406C23.7374 4.89164 23.9081 4.94043 24.087 4.92416L28.649 4.67208L30.6982 8.72984C30.7795 8.88434 30.9015 9.01445 31.056 9.08763L35.1137 11.1368L34.8616 15.6988C34.8535 15.8695 34.9023 16.0484 34.9917 16.1948L37.5045 20.0005L34.9917 23.8061Z" fill="#272D4E" stroke="#272D4E" stroke-width="0.5" style="user-select: auto;"></path></svg>