<svg width="30" height="30" viewBox="0 0 37 36" fill="none" xmlns="http://www.w3.org/2000/svg" style="user-select: auto;"><path d="M34.372 8.73516H34.1235V6.22444C34.1235 5.81537 33.961 5.42305 33.6717 5.13379C33.3824 4.84453 32.9901 4.68202 32.581 4.68202H29.6847V1.85854C29.6847 1.67804 29.6421 1.50009 29.5601 1.33925C29.4782 1.1784 29.3594 1.03922 29.2134 0.933087C29.0666 0.8274 28.8966 0.758599 28.7176 0.732498C28.5386 0.706397 28.356 0.723763 28.1852 0.783129L16.7455 4.68202H5.64011C4.40983 4.68316 3.23025 5.17239 2.36031 6.04233C1.49037 6.91228 1.00113 8.09185 1 9.32214V12.9468C1 13.0882 1 13.2296 1 13.3753V30.1277C1.00113 31.358 1.49037 32.5375 2.36031 33.4075C3.23025 34.2774 4.40983 34.7666 5.64011 34.7678H34.372C34.781 34.7678 35.1734 34.6053 35.4626 34.316C35.7519 34.0268 35.9144 33.6344 35.9144 33.2254V10.2733C35.9133 9.86496 35.7502 9.47374 35.4611 9.18541C35.172 8.89707 34.7803 8.73516 34.372 8.73516ZM32.581 6.13875C32.6038 6.13875 32.6256 6.14778 32.6416 6.16385C32.6577 6.17992 32.6667 6.20172 32.6667 6.22444V8.73516H29.6847V6.13875H32.581ZM28.2323 2.30413V8.73088H9.38048L28.2323 2.30413ZM5.64011 6.16018H12.4953L4.012 9.02222C3.43266 9.24149 2.90257 9.57352 2.45245 9.99909V9.31357C2.45585 8.47037 2.79319 7.66288 3.39062 7.06785C3.98806 6.47282 4.79691 6.13875 5.64011 6.13875V6.16018ZM34.4577 33.2254C34.4577 33.2481 34.4486 33.2699 34.4326 33.2859C34.4165 33.302 34.3947 33.3111 34.372 33.3111H5.64011C4.79618 33.3099 3.98713 32.9742 3.39037 32.3774C2.79362 31.7806 2.45786 30.9716 2.45673 30.1277V13.3753C2.45786 12.5313 2.79362 11.7223 3.39037 11.1255C3.98713 10.5288 4.79618 10.193 5.64011 10.1919H34.372C34.394 10.1919 34.4151 10.2003 34.4311 10.2155C34.447 10.2306 34.4566 10.2513 34.4577 10.2733V33.2254Z" fill="#272D4E" stroke="#272D4E" stroke-width="0.5" style="user-select: auto;"></path><path d="M18.565 26.9961C17.8613 26.9953 17.1866 26.7123 16.689 26.209C16.1914 25.7058 15.9115 25.0236 15.9107 24.3119C15.9107 24.1508 15.8474 23.9962 15.7347 23.8823C15.622 23.7683 15.4692 23.7043 15.3098 23.7043C15.1505 23.7043 14.9977 23.7683 14.885 23.8823C14.7723 23.9962 14.709 24.1508 14.709 24.3119C14.7104 25.2403 15.0389 26.1378 15.6354 26.8435C16.2319 27.5492 17.0575 28.0169 17.9642 28.1627V29.6742C17.9642 29.8353 18.0275 29.9899 18.1402 30.1038C18.2528 30.2178 18.4057 30.2818 18.565 30.2818C18.7244 30.2818 18.8772 30.2178 18.9899 30.1038C19.1026 29.9899 19.1659 29.8353 19.1659 29.6742V28.1627C20.0725 28.0169 20.8981 27.5492 21.4947 26.8435C22.0912 26.1378 22.4196 25.2403 22.4211 24.3119C22.4211 23.2608 22.0215 22.3676 21.2975 21.7994C20.5734 21.2313 19.5354 21.0247 18.4989 21.2723C18.4711 21.2754 18.4435 21.2805 18.4163 21.2875C17.7133 21.4713 17.0403 21.365 16.5702 20.9974C16.139 20.6602 15.9122 20.1239 15.9122 19.4464C15.9287 18.7458 16.2155 18.0795 16.7114 17.5899C17.2072 17.1002 17.8727 16.8261 18.5658 16.8261C19.2588 16.8261 19.9244 17.1002 20.4202 17.5899C20.9161 18.0795 21.2029 18.7458 21.2194 19.4464C21.2194 19.6076 21.2827 19.7621 21.3953 19.8761C21.508 19.99 21.6609 20.0541 21.8202 20.0541C21.9796 20.0541 22.1324 19.99 22.2451 19.8761C22.3578 19.7621 22.4211 19.6076 22.4211 19.4464C22.42 18.5178 22.0917 17.62 21.4952 16.914C20.8986 16.208 20.0728 15.74 19.1659 15.5941V14.1799C19.1659 14.0187 19.1026 13.8642 18.9899 13.7502C18.8772 13.6363 18.7244 13.5723 18.565 13.5723C18.4057 13.5723 18.2528 13.6363 18.1402 13.7502C18.0275 13.8642 17.9642 14.0187 17.9642 14.1799V15.5941C17.0575 15.74 16.2319 16.2077 15.6354 16.9134C15.0389 17.6191 14.7104 18.5165 14.709 19.4449C14.709 20.4961 15.1086 21.3893 15.8326 21.9574C16.5566 22.5255 17.5946 22.7321 18.6311 22.4845C18.659 22.4815 18.6866 22.4764 18.7137 22.4693C19.4168 22.2855 20.0897 22.3919 20.5599 22.7595C20.991 23.0967 21.2179 23.6329 21.2179 24.3104C21.2175 25.0221 20.9379 25.7045 20.4406 26.208C19.9433 26.7115 19.2688 26.9949 18.565 26.9961Z" fill="#272D4E" stroke="#272D4E" stroke-width="0.5" style="user-select: auto;"></path></svg>