<svg width="14" height="14" viewBox="0 0 14 14" fill="none" xmlns="http://www.w3.org/2000/svg" style="user-select: auto;">
<path d="M13.2871 5.89788C13.5165 5.72434 13.3938 5.35862 13.1061 5.35862H8.87793C8.74638 5.35862 8.63017 5.27291 8.59131 5.14723L7.28661 0.927079C7.19948 0.645225 6.80052 0.645226 6.71338 0.92708L5.40869 5.14723C5.36983 5.27291 5.25362 5.35862 5.12207 5.35862H0.884916C0.59816 5.35862 0.47484 5.72238 0.702475 5.89677L4.15124 8.53879C4.25071 8.61499 4.29234 8.74497 4.25566 8.86477L2.95754 13.1044C2.87208 13.3835 3.19512 13.6079 3.42684 13.4304L6.81756 10.8329C6.92521 10.7504 7.07479 10.7504 7.18244 10.8329L10.5697 13.4277C10.8017 13.6055 11.1251 13.3803 11.0387 13.101L9.72213 8.84235C9.68484 8.72172 9.72707 8.59065 9.82777 8.51448L13.2871 5.89788Z" fill="#FFC735" style="user-select: auto;"></path>
</svg>