<svg width="480" height="445" viewBox="0 0 480 445" fill="none" xmlns="http://www.w3.org/2000/svg">
<path d="M220.402 244.834C220.316 244.834 220.262 244.832 220.244 244.831L209.98 244.832V243.309H220.281C220.519 243.317 225.385 243.456 229.868 237.981C236.549 229.821 242.035 209.622 230.232 159.729C214.362 92.6413 227.598 33.3731 234.026 11.0054C234.343 9.89877 234.399 8.73318 234.191 7.60073C233.984 6.46828 233.517 5.4 232.828 4.48029C232.14 3.56057 231.248 2.81462 230.224 2.30139C229.2 1.78816 228.071 1.5217 226.926 1.52307H73.6507C72.4854 1.52464 71.3369 1.80273 70.2984 2.33477C69.2598 2.86681 68.3606 3.63782 67.6736 4.58519C64.9507 8.35492 61.2141 15.5969 58.8759 28.6917L57.3866 28.4225C59.7755 15.0432 63.6336 7.58818 66.4496 3.6898C67.2771 2.54825 68.3605 1.61922 69.6117 0.97811C70.8629 0.337004 72.2467 0.00189683 73.6507 4.14427e-06H226.926C228.305 -0.00133123 229.666 0.320065 230.9 0.938799C232.134 1.55753 233.208 2.45666 234.038 3.56513C234.868 4.6736 235.43 5.96105 235.68 7.32577C235.93 8.69048 235.862 10.0951 235.48 11.4286C229.085 33.6803 215.917 92.6409 231.705 159.376C243.673 209.971 237.92 230.608 230.985 239.011C226.411 244.553 221.372 244.834 220.402 244.834Z" fill="#E6E6E6"/>
<path d="M192.787 272.631C192.701 272.631 192.647 272.629 192.628 272.628L182.365 272.629V271.106H192.666C192.905 271.113 197.77 271.253 202.253 265.778C208.934 257.618 214.42 237.418 202.617 187.526C186.747 120.438 199.983 61.17 206.411 38.8023C206.727 37.6956 206.784 36.5301 206.576 35.3976C206.368 34.2652 205.902 33.1969 205.213 32.2772C204.525 31.3574 203.633 30.6115 202.609 30.0983C201.584 29.585 200.455 29.3186 199.311 29.3199H46.0355C44.8702 29.3215 43.7216 29.5996 42.6831 30.1316C41.6446 30.6637 40.7453 31.4347 40.0583 32.3821C37.3355 36.1518 33.5988 43.3938 31.2607 56.4885L29.7712 56.2193C32.1602 42.8401 36.0184 35.3851 38.8343 31.4867C39.6619 30.3451 40.7453 29.4161 41.9965 28.775C43.2477 28.1339 44.6315 27.7988 46.0355 27.7969H199.311C200.69 27.7955 202.05 28.1169 203.285 28.7357C204.519 29.3544 205.593 30.2535 206.423 31.362C207.252 32.4705 207.814 33.7579 208.065 35.1226C208.315 36.4874 208.246 37.8919 207.865 39.2254C201.47 61.4772 188.302 120.438 204.089 187.173C216.058 237.768 210.304 258.405 203.37 266.808C198.796 272.35 193.757 272.631 192.787 272.631Z" fill="white"/>
<path d="M165.169 300.426C165.083 300.426 165.029 300.424 165.011 300.423L14.0973 300.424C12.6443 300.425 11.2131 300.069 9.92884 299.385C8.64458 298.701 7.54642 297.711 6.73048 296.501C5.91455 295.291 5.40569 293.898 5.24845 292.444C5.09121 290.99 5.29038 289.52 5.82851 288.161C11.3041 274.393 18.6768 241.359 6.53333 174.816C-7.80597 96.2407 5.03152 67.8436 11.2164 59.2816C12.044 58.14 13.1274 57.211 14.3786 56.5699C15.6299 55.9288 17.0137 55.5937 18.4177 55.5918H171.693C173.072 55.5905 174.433 55.9119 175.667 56.5306C176.901 57.1493 177.975 58.0485 178.805 59.1569C179.634 60.2654 180.197 61.5528 180.447 62.9176C180.697 64.2823 180.629 65.6869 180.247 67.0204C173.852 89.2721 160.684 148.233 176.472 214.968C188.44 265.562 182.687 286.2 175.752 294.603C171.178 300.145 166.139 300.426 165.169 300.426ZM18.4177 57.1149C17.2524 57.1164 16.1038 57.3945 15.0653 57.9266C14.0267 58.4586 13.1274 59.2296 12.4404 60.177C6.37022 68.5802 -6.21179 96.5457 8.02164 174.541C19.6223 238.108 13.996 271.722 7.23333 288.727C6.77755 289.849 6.60648 291.068 6.73554 292.273C6.8646 293.478 7.28974 294.632 7.9726 295.63C8.64969 296.638 9.56219 297.463 10.63 298.034C11.6979 298.604 12.8884 298.901 14.0973 298.901H165.048C165.286 298.912 170.152 299.048 174.635 293.573C181.316 285.413 186.802 265.213 174.999 215.321C159.129 148.233 172.365 88.9649 178.793 66.5972C179.11 65.4906 179.166 64.325 178.958 63.1925C178.751 62.0601 178.284 60.9918 177.595 60.0721C176.907 59.1524 176.015 58.4064 174.991 57.8932C173.966 57.38 172.838 57.1135 171.693 57.1149H18.4177Z" fill="white"/>
<path d="M145.624 124.13H25.3186C23.7132 124.13 22.1736 123.488 21.0384 122.345C19.9032 121.203 19.2655 119.653 19.2655 118.038C19.2655 116.422 19.9032 114.872 21.0384 113.73C22.1736 112.587 23.7132 111.945 25.3186 111.945H145.624C147.229 111.945 148.769 112.587 149.904 113.73C151.039 114.872 151.677 116.422 151.677 118.038C151.677 119.653 151.039 121.203 149.904 122.345C148.769 123.488 147.229 124.13 145.624 124.13Z" fill="white"/>
<path d="M145.624 150.02H25.3186C23.7132 150.02 22.1736 149.379 21.0384 148.236C19.9032 147.094 19.2655 145.544 19.2655 143.928C19.2655 142.312 19.9032 140.763 21.0384 139.62C22.1736 138.478 23.7132 137.836 25.3186 137.836H145.624C147.229 137.836 148.769 138.478 149.904 139.62C151.039 140.763 151.677 142.312 151.677 143.928C151.677 145.544 151.039 147.094 149.904 148.236C148.769 149.379 147.229 150.02 145.624 150.02Z" fill="#F4F4F4"/>
<path d="M145.624 175.915H25.3186C23.7132 175.915 22.1736 175.273 21.0384 174.131C19.9032 172.988 19.2655 171.438 19.2655 169.823C19.2655 168.207 19.9032 166.657 21.0384 165.515C22.1736 164.372 23.7132 163.73 25.3186 163.73H145.624C147.229 163.73 148.769 164.372 149.904 165.515C151.039 166.657 151.677 168.207 151.677 169.823C151.677 171.438 151.039 172.988 149.904 174.131C148.769 175.273 147.229 175.915 145.624 175.915Z" fill="#F4F4F4"/>
<path d="M154.702 201.806H34.3968C32.7915 201.806 31.2518 201.164 30.1167 200.021C28.9815 198.879 28.3438 197.329 28.3438 195.713C28.3438 194.098 28.9815 192.548 30.1167 191.405C31.2518 190.263 32.7915 189.621 34.3968 189.621H154.702C156.307 189.621 157.847 190.263 158.982 191.405C160.117 192.548 160.755 194.098 160.755 195.713C160.755 197.329 160.117 198.879 158.982 200.021C157.847 201.164 156.307 201.806 154.702 201.806Z" fill="#F4F4F4"/>
<path d="M154.702 227.698H34.3968C32.7915 227.698 31.2518 227.056 30.1167 225.914C28.9815 224.771 28.3438 223.222 28.3438 221.606C28.3438 219.99 28.9815 218.441 30.1167 217.298C31.2518 216.156 32.7915 215.514 34.3968 215.514H154.702C156.307 215.514 157.847 216.156 158.982 217.298C160.117 218.441 160.755 219.99 160.755 221.606C160.755 223.222 160.117 224.771 158.982 225.914C157.847 227.056 156.307 227.698 154.702 227.698Z" fill="#F4F4F4"/>
<path d="M82.0662 98.2372H25.3186C23.7132 98.2372 22.1736 97.5954 21.0384 96.4529C19.9032 95.3103 19.2655 93.7607 19.2655 92.145C19.2655 90.5292 19.9032 88.9796 21.0384 87.8371C22.1736 86.6946 23.7132 86.0527 25.3186 86.0527H82.0662C83.6716 86.0527 85.2112 86.6946 86.3464 87.8371C87.4816 88.9796 88.1193 90.5292 88.1193 92.145C88.1193 93.7607 87.4816 95.3103 86.3464 96.4529C85.2112 97.5954 83.6716 98.2372 82.0662 98.2372Z" fill="white"/>
<path d="M74.7368 269.447C75.9581 264.242 81.6963 262.536 86.3877 262.726C89.3518 262.928 92.2919 263.396 95.173 264.125C98.1875 264.804 101.173 265.608 104.143 266.46C109.589 268.024 114.98 269.914 120.516 271.137C125.125 272.154 130.134 272.751 134.73 271.346C139.149 269.996 142.897 266.681 144.099 262.098C145.232 257.779 143.677 253.056 139.518 251.083C135.726 249.283 130.936 250.198 129.057 254.268C126.938 258.858 129.055 263.863 132.41 267.184C134.318 268.987 136.407 270.584 138.643 271.949C140.914 273.506 143.441 274.646 146.107 275.314C150.484 276.255 155.698 274.868 157.955 270.659C158.457 269.706 158.759 268.66 158.842 267.585C158.976 266.121 156.705 266.131 156.572 267.585C156.189 271.776 151.313 273.739 147.666 273.279C145.205 272.868 142.854 271.95 140.762 270.582C138.742 269.397 136.829 268.038 135.043 266.521C131.95 263.827 129.05 259.393 131.128 255.19C132.819 251.766 137.229 251.801 139.911 254.008C143.158 256.682 142.579 261.534 140.437 264.709C138.065 268.224 133.766 269.698 129.713 269.857C125.308 270.03 120.941 269.013 116.731 267.809C111.501 266.315 106.323 264.642 101.067 263.234C98.0837 262.435 95.0771 261.714 92.0397 261.153C89.1676 260.516 86.2176 260.311 83.2858 260.543C78.5493 261.094 73.7143 263.869 72.548 268.839C72.2126 270.269 74.4007 270.879 74.7369 269.447L74.7368 269.447Z" fill="white"/>
<path d="M306.645 398.616C306.776 413.611 307.867 428.582 309.912 443.436C309.984 443.958 310.062 444.479 310.134 445.001L449.659 444.216C450.069 443.698 450.472 443.174 450.863 442.643C452.165 440.887 453.386 439.082 454.507 437.214C459.894 428.215 462.36 417.678 459.888 410.409L459.844 410.296C459.311 408.704 458.47 407.234 457.371 405.97C451.736 399.587 440.343 400.651 430.005 405.803C439.278 395.587 446.662 382.696 447.223 371.189C447.773 359.966 441.942 351.948 435.617 345.134C435.41 344.909 435.202 344.69 434.995 344.471C434.894 344.359 434.787 344.252 434.687 344.14C429.752 338.947 424 333.828 415.673 334.447C406.541 335.128 396.416 342.826 389.317 351.797C382.218 360.762 377.5 370.946 372.718 380.886C367.93 390.818 362.75 401.005 355.067 409.495C365.474 396.248 373.864 381.175 376.963 366.515C380.062 351.856 377.335 337.776 368.06 330.872C365.245 328.841 361.987 327.518 358.559 327.014C358.159 326.947 357.752 326.892 357.339 326.844C348.754 325.861 338.503 328.85 329.782 335.993C320.177 343.859 313.517 355.519 310.204 366.589C306.891 377.658 306.538 388.315 306.645 398.616Z" fill="#F2F2F2"/>
<path d="M397.933 444.506L400.601 444.491C401.448 443.958 402.299 443.431 403.154 442.91C403.684 442.574 404.219 442.25 404.755 441.92C413.605 436.48 422.51 431.262 431.47 426.266C440.422 421.266 449.42 416.496 458.462 411.957C458.702 411.852 458.897 411.665 459.015 411.43C459.132 411.195 459.164 410.926 459.105 410.67C459.095 410.636 459.08 410.605 459.06 410.576C458.934 410.337 458.652 410.238 458.241 410.442C457.132 411.002 456.016 411.561 454.907 412.134C445.84 416.751 436.812 421.599 427.823 426.677C418.84 431.752 409.908 437.052 401.028 442.576C400.841 442.69 400.654 442.811 400.467 442.925C399.62 443.452 398.78 443.979 397.933 444.506Z" fill="white"/>
<path d="M363.532 444.701L365.181 444.692C365.554 444.168 365.919 443.644 366.291 443.12C375.034 430.781 383.774 418.442 392.513 406.103C406.824 385.902 421.131 365.702 435.433 345.501C435.518 345.392 435.581 345.268 435.619 345.135C435.741 344.688 435.414 344.426 434.996 344.472C434.82 344.497 434.651 344.56 434.5 344.657C434.35 344.753 434.222 344.88 434.124 345.03C426.101 356.359 418.08 367.683 410.06 379.003C395.824 399.103 381.59 419.201 367.357 439.296C366.452 440.572 365.547 441.853 364.641 443.129C364.269 443.653 363.897 444.177 363.532 444.701Z" fill="white"/>
<path d="M326.777 435.057C326.861 437.856 327.045 440.609 327.285 443.338C327.332 443.859 327.378 444.381 327.425 444.903L329.156 444.893C329.103 444.371 329.05 443.85 329.004 443.328C328.638 439.386 328.378 435.4 328.343 431.306C328.297 419.955 329.396 408.628 331.624 397.5C333.991 385.519 337.391 373.767 341.784 362.379C346.394 350.368 351.953 338.748 358.407 327.63C358.528 327.449 358.582 327.23 358.56 327.013C358.488 326.516 357.831 326.369 357.34 326.844C357.243 326.937 357.16 327.043 357.092 327.16C356.294 328.541 355.51 329.927 354.74 331.318C348.525 342.497 343.204 354.158 338.83 366.188C334.663 377.614 331.494 389.383 329.358 401.362C327.357 412.476 326.492 423.766 326.777 435.057V435.057Z" fill="white"/>
<path d="M158.138 269.988C157.851 269.748 157.641 269.427 157.535 269.067C157.429 268.706 157.431 268.322 157.541 267.963C157.651 267.604 157.865 267.286 158.154 267.049C158.444 266.811 158.797 266.666 159.169 266.63C163.296 266.229 167.46 266.659 171.421 267.894L211.761 280.433C212.283 280.595 212.768 280.86 213.189 281.211C213.61 281.562 213.958 281.993 214.213 282.479C214.468 282.965 214.626 283.498 214.676 284.045C214.727 284.593 214.67 285.145 214.509 285.671C214.348 286.196 214.085 286.685 213.737 287.108C213.388 287.532 212.959 287.882 212.476 288.139C211.993 288.395 211.464 288.554 210.92 288.605C210.376 288.656 209.827 288.599 209.305 288.437L168.965 275.898C165.002 274.67 161.322 272.661 158.138 269.988V269.988Z" fill="white"/>
<path d="M323.501 322.076C322.406 321.614 321.424 320.915 320.625 320.029C319.827 319.143 319.231 318.092 318.88 316.95C318.529 315.807 318.431 314.601 318.593 313.416C318.755 312.231 319.173 311.097 319.818 310.092L312.904 273.697L330.527 272.314L331.591 307.914C333.195 309.116 334.306 310.869 334.713 312.841C335.119 314.812 334.793 316.865 333.796 318.611C332.799 320.357 331.2 321.674 329.303 322.312C327.406 322.951 325.341 322.867 323.501 322.076Z" fill="#FFB8B8"/>
<path d="M311.813 303.293L293.864 219.157C293.127 215.702 293.784 212.093 295.69 209.125C297.597 206.156 300.597 204.072 304.03 203.33C307.464 202.588 311.049 203.25 313.998 205.168C316.948 207.087 319.018 210.107 319.756 213.562L337.705 297.698C337.894 298.586 337.724 299.514 337.234 300.277C336.744 301.04 335.974 301.576 335.091 301.768L315.857 305.924C315.42 306.019 314.968 306.026 314.529 305.945C314.089 305.864 313.669 305.696 313.293 305.452C312.918 305.208 312.594 304.891 312.34 304.521C312.086 304.15 311.907 303.733 311.813 303.293V303.293Z" fill="#CB4247"/>
<path d="M282.354 435.644H273.078L268.665 399.633L282.356 399.634L282.354 435.644Z" fill="#FFB8B8"/>
<path d="M266.452 432.975H284.341V444.311H255.188C255.188 442.823 255.479 441.348 256.045 439.973C256.611 438.598 257.441 437.348 258.487 436.295C259.533 435.242 260.774 434.407 262.141 433.838C263.508 433.268 264.972 432.975 266.452 432.975V432.975Z" fill="#2F2E41"/>
<path d="M313.376 434.882H304.1L299.687 398.871L313.378 398.872L313.376 434.882Z" fill="#FFB8B8"/>
<path d="M297.475 432.215H315.365V443.552H286.212C286.212 442.063 286.503 440.589 287.069 439.213C287.635 437.838 288.465 436.588 289.511 435.535C290.557 434.483 291.798 433.648 293.165 433.078C294.532 432.508 295.996 432.215 297.475 432.215V432.215Z" fill="#2F2E41"/>
<path d="M271.24 428.927C270.892 428.64 270.605 428.285 270.395 427.885C270.185 427.484 270.057 427.046 270.017 426.595L259.233 307.202C259.191 306.739 259.244 306.272 259.387 305.829C259.531 305.387 259.762 304.979 260.067 304.629C260.373 304.28 260.746 303.997 261.163 303.797C261.581 303.597 262.035 303.485 262.497 303.468L316.581 301.426C317.049 301.409 317.515 301.488 317.951 301.661C318.387 301.833 318.783 302.094 319.115 302.427C319.446 302.76 319.705 303.159 319.877 303.597C320.048 304.036 320.128 304.505 320.111 304.977L315.788 423.91C315.756 424.743 315.424 425.535 314.855 426.14C314.286 426.745 313.517 427.12 312.693 427.197L301.788 428.195C301.336 428.237 300.88 428.186 300.447 428.048C300.015 427.909 299.614 427.685 299.269 427.388C298.923 427.091 298.64 426.728 298.437 426.32C298.233 425.911 298.113 425.466 298.083 425.01L293.078 349.453C293.074 349.308 293.042 349.165 292.983 349.033C292.924 348.9 292.839 348.781 292.734 348.682C292.629 348.582 292.505 348.505 292.369 348.455C292.234 348.404 292.09 348.381 291.946 348.388H291.941C291.797 348.382 291.652 348.405 291.517 348.457C291.381 348.508 291.257 348.586 291.152 348.686C291.047 348.786 290.963 348.906 290.904 349.039C290.846 349.173 290.815 349.316 290.812 349.462L286.334 425.528C286.289 426.343 285.955 427.114 285.394 427.702C284.833 428.291 284.08 428.657 283.274 428.735L273.747 429.694C273.299 429.741 272.847 429.697 272.417 429.565C271.986 429.433 271.586 429.216 271.24 428.927H271.24Z" fill="#2F2E41"/>
<path d="M292.044 185.451C302.308 185.451 310.628 177.077 310.628 166.747C310.628 156.417 302.308 148.043 292.044 148.043C281.781 148.043 273.46 156.417 273.46 166.747C273.46 177.077 281.781 185.451 292.044 185.451Z" fill="#FFB8B8"/>
<path d="M256.254 308.011C255.924 307.633 255.68 307.185 255.543 306.7C255.405 306.216 255.376 305.707 255.458 305.209C258.889 284.22 256.955 253.369 254.729 231.183C254.148 225.298 255.117 219.363 257.54 213.975C259.963 208.587 263.754 203.937 268.531 200.492L278.236 192.12C278.881 191.57 279.704 191.277 280.549 191.296L304.66 191.989C305.53 192.013 306.357 192.372 306.971 192.992L310.696 201.296L310.735 201.324C315.174 204.609 318.736 208.95 321.102 213.958C323.467 218.967 324.562 224.488 324.29 230.027L320.741 303.847C320.695 304.705 320.333 305.516 319.724 306.119C319.116 306.722 318.305 307.074 317.452 307.107L258.928 309.176C258.89 309.177 258.853 309.178 258.815 309.178C258.33 309.178 257.851 309.075 257.409 308.873C256.968 308.672 256.574 308.378 256.254 308.011V308.011Z" fill="#CB4247"/>
<path d="M186.059 277.207C186.029 276.011 186.261 274.824 186.737 273.728C187.213 272.632 187.922 271.655 188.815 270.865C189.707 270.074 190.76 269.491 191.9 269.155C193.041 268.819 194.241 268.738 195.415 268.919L225.578 247.674L234.045 263.291L202.208 278.838C201.775 280.804 200.641 282.542 199.02 283.722C197.399 284.902 195.404 285.443 193.413 285.242C191.423 285.041 189.574 284.112 188.219 282.631C186.863 281.15 186.095 279.22 186.059 277.207L186.059 277.207Z" fill="#FFB8B8"/>
<path d="M211.443 280.901C211.001 280.834 210.576 280.679 210.194 280.446C209.811 280.212 209.478 279.905 209.215 279.542L197.574 263.58C197.041 262.847 196.818 261.931 196.955 261.033C197.092 260.134 197.577 259.328 198.304 258.789L267.23 207.871C270.061 205.779 273.601 204.905 277.073 205.441C278.791 205.707 280.441 206.31 281.928 207.217C283.415 208.125 284.71 209.318 285.739 210.728C286.768 212.139 287.511 213.74 287.925 215.44C288.339 217.14 288.416 218.905 288.153 220.635C287.889 222.365 287.29 224.026 286.388 225.522C285.487 227.019 284.301 228.322 282.9 229.358L213.974 280.276C213.393 280.708 212.689 280.941 211.967 280.941C211.791 280.941 211.616 280.928 211.443 280.901V280.901Z" fill="#CB4247"/>
<path d="M292.994 183.398C295.458 180.356 295.188 175.724 293.21 172.342C291.233 168.96 287.875 166.63 284.42 164.811C280.965 162.992 277.294 161.561 274.043 159.394C270.792 157.228 270.933 148.057 270.068 144.231L272.132 144.923C271.339 143.901 271.084 140.882 270.291 139.86C272.624 140.092 274.418 142.321 276.751 142.553L275.405 138.916C283.406 138.42 288.38 144.015 296.381 143.519C300.345 143.273 304.65 143.117 307.909 145.402C310.741 147.388 312.175 150.825 313.115 154.167C315.135 161.343 315.449 169.381 311.961 175.962C308.472 182.542 300.432 186.976 293.408 184.6L292.994 183.398Z" fill="#2F2E41"/>
<path d="M190.965 444.734H479.243C479.444 444.734 479.636 444.654 479.778 444.511C479.92 444.368 480 444.174 480 443.972C480 443.77 479.92 443.577 479.778 443.434C479.636 443.291 479.444 443.211 479.243 443.211H190.965C190.765 443.211 190.572 443.291 190.43 443.434C190.288 443.577 190.209 443.77 190.209 443.972C190.209 444.174 190.288 444.368 190.43 444.511C190.572 444.654 190.765 444.734 190.965 444.734Z" fill="#3F3D56"/>
</svg>
