<svg xmlns="http://www.w3.org/2000/svg" viewBox="0 0 510.24 396.85"><defs><style>.cls-1{isolation:isolate;}.cls-2{fill:#98d4e6;}.cls-21,.cls-3{opacity:0.5;}.cls-4{fill:#fff;}.cls-5{fill:#ccd6e5;}.cls-35,.cls-6{opacity:0.3;}.cls-10,.cls-11,.cls-7,.cls-8,.cls-9{fill:none;}.cls-10,.cls-11,.cls-18,.cls-19,.cls-41,.cls-7,.cls-8,.cls-9{stroke:#3c3c3b;}.cls-10,.cls-11,.cls-18,.cls-41,.cls-7,.cls-8,.cls-9{stroke-linecap:round;stroke-linejoin:round;}.cls-7{stroke-width:1.42px;}.cls-8{stroke-width:0.6px;}.cls-9{stroke-width:1.72px;}.cls-10{stroke-width:1.79px;}.cls-11{stroke-width:0.85px;}.cls-12,.cls-18{fill:#677b85;}.cls-13{fill:#3c3c3b;}.cls-14,.cls-22{opacity:0.2;}.cls-15,.cls-22{fill:#d6eefd;}.cls-16,.cls-26,.cls-35,.cls-40{mix-blend-mode:multiply;}.cls-17,.cls-41{fill:#b8ccd8;}.cls-18{stroke-width:1.91px;}.cls-19{fill:#575756;stroke-miterlimit:10;stroke-width:0.21px;}.cls-20{fill:#fc0;}.cls-21,.cls-42{fill:#fffac9;}.cls-23{fill:#45535a;}.cls-24{fill:#facbb4;}.cls-25{fill:#f7bbb0;}.cls-26{opacity:0.6;}.cls-27{fill:#5b6bab;}.cls-28{fill:#f7b5a9;}.cls-29{fill:#f4a08b;}.cls-30{fill:#dadada;}.cls-31{fill:#c6c6c6;}.cls-32{fill:#ad2233;}.cls-33{fill:#39396b;}.cls-34,.cls-40{opacity:0.7;}.cls-36{fill:#af1917;}.cls-37{fill:#d69696;}.cls-38{fill:#f9c728;}.cls-39{fill:#564231;}.cls-41{stroke-width:1.75px;}</style></defs><g class="cls-1"><g id="Capa_1" data-name="Capa 1"><rect class="cls-2" width="510.24" height="396.85"/><g class="cls-3"><path class="cls-4" d="M160.4,18.44a.28.28,0,0,0,.14-.35l-.25-.57a.27.27,0,0,0-.35-.13.26.26,0,0,0-.13.35l.24.56A.27.27,0,0,0,160.4,18.44Z" transform="translate(0 0)"/><path class="cls-4" d="M162,22.69l-.48-1.09a.27.27,0,0,1,.49-.22l.48,1.1a.27.27,0,0,1-.14.35A.28.28,0,0,1,162,22.69Zm-1-2.19-.48-1.1a.27.27,0,0,1,.14-.35.25.25,0,0,1,.34.14l.49,1.1a.27.27,0,0,1-.49.21Z" transform="translate(0 0)"/><path class="cls-4" d="M151.52,26.8a.26.26,0,0,0-.15-.34l-.57-.23a.27.27,0,0,0-.34.15.25.25,0,0,0,.15.34l.57.22A.26.26,0,0,0,151.52,26.8Z" transform="translate(0 0)"/><path class="cls-4" d="M155.64,28.69l-1.12-.43a.27.27,0,0,1,.2-.5l1.11.45a.24.24,0,0,1,.15.33A.25.25,0,0,1,155.64,28.69Zm-2.23-.87-1.12-.44a.26.26,0,1,1,.2-.48l1.11.43a.26.26,0,0,1,.15.34A.26.26,0,0,1,153.41,27.82Z" transform="translate(0 0)"/><path class="cls-4" d="M151.15,39a.26.26,0,0,0-.35-.14l-.56.25a.27.27,0,0,0-.14.34.26.26,0,0,0,.35.14l.57-.25A.26.26,0,0,0,151.15,39Z" transform="translate(0 0)"/><path class="cls-4" d="M155.41,37.41l-1.1.49a.28.28,0,0,1-.35-.14.26.26,0,0,1,.14-.35l1.1-.48a.25.25,0,0,1,.34.14A.26.26,0,0,1,155.41,37.41Zm-2.2,1-1.1.48a.25.25,0,0,1-.34-.13.27.27,0,0,1,.13-.35l1.1-.48a.28.28,0,0,1,.35.14A.27.27,0,0,1,153.21,38.37Z" transform="translate(0 0)"/><path class="cls-4" d="M159.51,47.87a.25.25,0,0,0-.34.15l-.23.57a.27.27,0,0,0,.16.34.26.26,0,0,0,.34-.15l.22-.57A.26.26,0,0,0,159.51,47.87Z" transform="translate(0 0)"/><path class="cls-4" d="M161.4,43.75,161,44.86a.26.26,0,0,1-.49-.19l.44-1.12a.26.26,0,1,1,.48.2ZM160.53,46l-.43,1.11a.26.26,0,0,1-.34.15.26.26,0,0,1-.16-.34l.44-1.12a.27.27,0,0,1,.34-.15A.26.26,0,0,1,160.53,46Z" transform="translate(0 0)"/><path class="cls-4" d="M171.7,48.24a.27.27,0,0,0-.14.35l.25.56a.26.26,0,0,0,.35.13.26.26,0,0,0,.13-.34l-.24-.57A.26.26,0,0,0,171.7,48.24Z" transform="translate(0 0)"/><path class="cls-4" d="M170.13,44l.48,1.1a.26.26,0,0,1-.14.35.28.28,0,0,1-.35-.14l-.48-1.1a.27.27,0,0,1,.14-.35A.28.28,0,0,1,170.13,44Zm1,2.2.48,1.1a.26.26,0,0,1-.14.34.27.27,0,0,1-.35-.13l-.47-1.1a.26.26,0,1,1,.48-.21Z" transform="translate(0 0)"/><path class="cls-4" d="M180.58,39.88a.27.27,0,0,0,.15.34l.57.22a.25.25,0,0,0,.34-.15.26.26,0,0,0-.14-.34l-.58-.22A.25.25,0,0,0,180.58,39.88Z" transform="translate(0 0)"/><path class="cls-4" d="M176.46,38l1.11.44a.25.25,0,0,1,.15.34.26.26,0,0,1-.34.15l-1.11-.44a.25.25,0,0,1-.15-.34A.27.27,0,0,1,176.46,38Zm2.23.87,1.12.44a.27.27,0,0,1,.15.34.27.27,0,0,1-.34.15l-1.12-.43a.27.27,0,0,1-.15-.35A.27.27,0,0,1,178.69,38.85Z" transform="translate(0 0)"/><path class="cls-4" d="M181,27.69a.26.26,0,0,0,.35.13l.56-.24a.29.29,0,0,0,.14-.35.26.26,0,0,0-.35-.14l-.57.25A.26.26,0,0,0,181,27.69Z" transform="translate(0 0)"/><path class="cls-4" d="M176.69,29.26l1.1-.48a.26.26,0,0,1,.35.13.26.26,0,0,1-.14.35l-1.1.48a.25.25,0,0,1-.34-.14A.26.26,0,0,1,176.69,29.26Zm2.2-1,1.1-.48a.25.25,0,0,1,.34.14.26.26,0,0,1-.13.34l-1.1.48a.26.26,0,1,1-.21-.48Z" transform="translate(0 0)"/><path class="cls-4" d="M172.59,18.8a.25.25,0,0,0,.34-.14l.22-.58a.26.26,0,0,0-.14-.34.28.28,0,0,0-.35.15l-.22.58A.26.26,0,0,0,172.59,18.8Z" transform="translate(0 0)"/><path class="cls-4" d="M170.69,22.93l.44-1.12a.26.26,0,0,1,.34-.15.26.26,0,0,1,.15.35l-.44,1.11a.26.26,0,0,1-.34.15A.27.27,0,0,1,170.69,22.93Zm.88-2.24.43-1.11a.27.27,0,0,1,.34-.15.25.25,0,0,1,.15.34l-.43,1.12a.27.27,0,0,1-.34.15A.27.27,0,0,1,171.57,20.69Z" transform="translate(0 0)"/><path class="cls-4" d="M166.05,19.12a.16.16,0,0,0,.16-.16v-.37a.16.16,0,1,0-.32,0V19A.16.16,0,0,0,166.05,19.12Z" transform="translate(0 0)"/><path class="cls-4" d="M166.05,19.49a.16.16,0,0,1,.16.16v2.28a.16.16,0,1,1-.32,0V19.65A.16.16,0,0,1,166.05,19.49Z" transform="translate(0 0)"/><path class="cls-4" d="M156,23.29a.17.17,0,0,0,0-.23l-.27-.27a.16.16,0,0,0-.22,0,.15.15,0,0,0,0,.23l.26.27A.17.17,0,0,0,156,23.29Z" transform="translate(0 0)"/><path class="cls-4" d="M156.26,23.54a.16.16,0,0,1,.22,0l.4.4.17.17,1,1.05a.16.16,0,1,1-.23.23l-1.05-1.06-.16-.16-.4-.4A.15.15,0,0,1,156.26,23.54Z" transform="translate(0 0)"/><path class="cls-4" d="M151.84,33.34a.16.16,0,0,0-.16-.16h-.38a.16.16,0,0,0,0,.32h.38A.16.16,0,0,0,151.84,33.34Z" transform="translate(0 0)"/><path class="cls-4" d="M152.2,33.34a.16.16,0,0,1,.16-.16h2.29a.16.16,0,1,1,0,.32h-2.29A.16.16,0,0,1,152.2,33.34Z" transform="translate(0 0)"/><path class="cls-4" d="M156,43.39a.15.15,0,0,0-.23,0l-.26.26a.15.15,0,0,0,0,.23.16.16,0,0,0,.22,0l.27-.27A.16.16,0,0,0,156,43.39Z" transform="translate(0 0)"/><path class="cls-4" d="M156.26,43.13a.15.15,0,0,1,0-.23l.4-.4.16-.16,1.05-1.05a.17.17,0,0,1,.23,0,.16.16,0,0,1,0,.22l-1,1.05-.17.17-.4.4A.16.16,0,0,1,156.26,43.13Z" transform="translate(0 0)"/><path class="cls-4" d="M166.05,47.55a.16.16,0,0,0-.16.16v.37a.16.16,0,0,0,.32,0v-.37A.16.16,0,0,0,166.05,47.55Z" transform="translate(0 0)"/><path class="cls-4" d="M166.05,47.19a.16.16,0,0,1-.16-.16V44.74a.16.16,0,0,1,.32,0V47A.16.16,0,0,1,166.05,47.19Z" transform="translate(0 0)"/><path class="cls-4" d="M176.1,43.39a.16.16,0,0,0,0,.22l.27.27a.16.16,0,0,0,.22,0,.15.15,0,0,0,0-.23l-.26-.26A.15.15,0,0,0,176.1,43.39Z" transform="translate(0 0)"/><path class="cls-4" d="M175.84,43.13a.16.16,0,0,1-.22,0l-.4-.4-.17-.17L174,41.51a.16.16,0,0,1,0-.22.17.17,0,0,1,.23,0l1.05,1.05.16.16.4.4A.15.15,0,0,1,175.84,43.13Z" transform="translate(0 0)"/><path class="cls-4" d="M180.26,33.34a.17.17,0,0,0,.17.16h.37a.16.16,0,1,0,0-.32h-.37A.17.17,0,0,0,180.26,33.34Z" transform="translate(0 0)"/><path class="cls-4" d="M179.9,33.34a.16.16,0,0,1-.16.16h-2.29a.16.16,0,0,1,0-.32h2.29A.16.16,0,0,1,179.9,33.34Z" transform="translate(0 0)"/><path class="cls-4" d="M176.1,23.29a.17.17,0,0,0,.23,0l.26-.27a.15.15,0,0,0,0-.23.16.16,0,0,0-.22,0l-.27.27A.17.17,0,0,0,176.1,23.29Z" transform="translate(0 0)"/><path class="cls-4" d="M175.84,23.54a.15.15,0,0,1,0,.23l-.4.4-.16.16-1.05,1.06a.16.16,0,0,1-.23-.23l1.05-1.05.17-.17.4-.4A.16.16,0,0,1,175.84,23.54Z" transform="translate(0 0)"/><path class="cls-4" d="M90,139.59c0-.83-2.37-1.5-5.3-1.5H72.34c-2.93,0-5.3.67-5.3,1.5s2.37,1.51,5.3,1.51H84.71C87.64,141.1,90,140.43,90,139.59Z" transform="translate(0 0)"/><path class="cls-4" d="M102,139.59c0-.83,2.38-1.5,5.31-1.5h75.36c2.93,0,5.3.67,5.3,1.5s-2.37,1.51-5.3,1.51H107.32C104.39,141.1,102,140.43,102,139.59Z" transform="translate(0 0)"/><path class="cls-4" d="M77.38,297.61c0-.69-2.45-1.23-5.49-1.23H59c-3,0-5.52.57-5.53,1.25s2.44,1.24,5.48,1.23l12.87,0C74.89,298.85,77.37,298.3,77.38,297.61Z" transform="translate(0 0)"/><path class="cls-4" d="M172.08,298.73l-25.06,0c-3.05,0-5.5-.55-5.49-1.23s2.49-1.25,5.53-1.25l25.06,0c3,0,5.5.55,5.49,1.23S175.12,298.72,172.08,298.73Zm-50.12.06-25.06,0c-3,0-5.5-.56-5.48-1.24s2.49-1.24,5.53-1.24l25.06,0c3,0,5.5.55,5.48,1.23S125,298.79,122,298.79Z" transform="translate(0 0)"/><path class="cls-4" d="M140.42,83.39c0-.69-2.44-1.24-5.48-1.24l-12.87,0c-3,0-5.52.56-5.53,1.25S119,84.65,122,84.65l12.86,0C137.93,84.63,140.41,84.07,140.42,83.39Z" transform="translate(0 0)"/><path class="cls-4" d="M235.12,84.5l-25.06,0c-3,0-5.5-.56-5.49-1.24s2.5-1.24,5.54-1.25l25,0c3.05,0,5.51.55,5.49,1.23S238.16,84.5,235.12,84.5ZM185,84.57l-25.07,0c-3,0-5.5-.55-5.48-1.23S157,82.12,160,82.12l25.06,0c3,0,5.5.55,5.49,1.24S188.05,84.56,185,84.57Z" transform="translate(0 0)"/><path class="cls-4" d="M75.65,54.94c0-.43-1.22-.77-2.73-.77H66.54c-1.51,0-2.73.34-2.73.77s1.22.78,2.73.78h6.38C74.43,55.72,75.65,55.37,75.65,54.94Z" transform="translate(0 0)"/><path class="cls-4" d="M57.08,36.08c-.43,0-.77,1.22-.77,2.73v6.38c0,1.51.34,2.73.77,2.73s.78-1.22.78-2.73V38.81C57.86,37.3,57.51,36.08,57.08,36.08Z" transform="translate(0 0)"/><path class="cls-4" d="M38.22,54.64c0,.43,1.22.78,2.73.78h6.38c1.51,0,2.73-.35,2.73-.78s-1.22-.77-2.73-.77H41C39.44,53.87,38.22,54.22,38.22,54.64Z" transform="translate(0 0)"/><path class="cls-4" d="M56.79,73.51c.43,0,.77-1.22.77-2.73V64.4c0-1.51-.34-2.73-.77-2.73S56,62.89,56,64.4v6.38C56,72.29,56.36,73.51,56.79,73.51Z" transform="translate(0 0)"/><path class="cls-4" d="M66.31,45.56c-.21-.21-1,.22-1.74,1L61.4,49.7c-.75.76-1.19,1.54-1,1.75s1-.22,1.74-1l3.17-3.18C66.09,46.55,66.53,45.77,66.31,45.56Z" transform="translate(0 0)"/><path class="cls-4" d="M47.7,45.41c-.21.22.22,1,1,1.75l3.18,3.17c.75.75,1.53,1.19,1.74,1s-.22-1-1-1.74l-3.18-3.17C48.69,45.63,47.91,45.2,47.7,45.41Z" transform="translate(0 0)"/><path class="cls-4" d="M47.55,64c.22.21,1-.22,1.75-1l3.17-3.18c.75-.75,1.19-1.53,1-1.74s-1,.22-1.74,1l-3.17,3.18C47.78,63,47.34,63.81,47.55,64Z" transform="translate(0 0)"/><path class="cls-4" d="M66.17,64.18c.21-.22-.22-1-1-1.74L62,59.26c-.76-.75-1.54-1.19-1.75-1s.22,1,1,1.74l3.18,3.17C65.18,64,66,64.39,66.17,64.18Z" transform="translate(0 0)"/><path class="cls-4" d="M115.55,360.11c0-.29-.83-.53-1.86-.53h-4.36c-1,0-1.87.24-1.87.53s.83.54,1.87.54h4.36C114.72,360.65,115.55,360.41,115.55,360.11Z" transform="translate(0 0)"/><path class="cls-4" d="M102.86,347.22c-.29,0-.53.84-.53,1.87v4.36c0,1,.24,1.86.53,1.86s.53-.83.53-1.86v-4.36C103.39,348.06,103.15,347.22,102.86,347.22Z" transform="translate(0 0)"/><path class="cls-4" d="M90,359.91c0,.3.83.53,1.86.53h4.36c1,0,1.87-.23,1.87-.53s-.83-.53-1.87-.53H91.83C90.8,359.38,90,359.62,90,359.91Z" transform="translate(0 0)"/><path class="cls-4" d="M102.66,372.81c.29,0,.53-.84.53-1.87v-4.36c0-1-.24-1.87-.53-1.87s-.53.84-.53,1.87v4.36C102.13,372,102.37,372.81,102.66,372.81Z" transform="translate(0 0)"/><path class="cls-4" d="M109.17,353.7c-.14-.14-.67.15-1.19.67l-2.17,2.17c-.51.51-.81,1-.66,1.19s.68-.15,1.19-.67l2.17-2.17C109,354.38,109.32,353.85,109.17,353.7Z" transform="translate(0 0)"/><path class="cls-4" d="M96.45,353.6c-.15.15.15.68.66,1.19L99.28,357c.52.52,1,.81,1.19.67s-.15-.68-.66-1.19l-2.17-2.18C97.12,353.75,96.59,353.46,96.45,353.6Z" transform="translate(0 0)"/><path class="cls-4" d="M96.35,366.33c.14.15.67-.15,1.19-.67l2.17-2.17c.51-.51.81-1.05.66-1.19s-.68.15-1.19.67L97,365.14C96.5,365.65,96.2,366.18,96.35,366.33Z" transform="translate(0 0)"/><path class="cls-4" d="M109.07,366.42c.15-.14-.15-.67-.66-1.18l-2.17-2.17c-.51-.52-1-.82-1.19-.67s.15.68.66,1.19l2.17,2.17C108.39,366.28,108.93,366.58,109.07,366.42Z" transform="translate(0 0)"/><path class="cls-4" d="M287.57,81.19c0-.3-.83-.54-1.86-.54h-4.36c-1,0-1.87.24-1.87.54s.83.53,1.87.53h4.36C286.74,81.72,287.57,81.48,287.57,81.19Z" transform="translate(0 0)"/><path class="cls-4" d="M274.88,68.29c-.29,0-.53.84-.53,1.87v4.36c0,1,.24,1.86.53,1.86s.53-.83.53-1.86V70.16C275.41,69.13,275.17,68.29,274.88,68.29Z" transform="translate(0 0)"/><path class="cls-4" d="M262,81c0,.3.83.53,1.86.53h4.36c1,0,1.87-.23,1.87-.53s-.83-.53-1.87-.53h-4.36C262.82,80.45,262,80.69,262,81Z" transform="translate(0 0)"/><path class="cls-4" d="M274.68,93.88c.29,0,.53-.84.53-1.87V87.65c0-1-.24-1.87-.53-1.87s-.53.84-.53,1.87V92C274.15,93,274.39,93.88,274.68,93.88Z" transform="translate(0 0)"/><path class="cls-4" d="M281.19,74.77c-.14-.14-.67.16-1.19.67l-2.17,2.17c-.51.51-.81,1-.66,1.19s.68-.15,1.19-.67L280.53,76C281,75.45,281.34,74.92,281.19,74.77Z" transform="translate(0 0)"/><path class="cls-4" d="M268.47,74.67c-.15.15.15.68.66,1.19L271.3,78c.52.52,1.05.81,1.19.67s-.15-.68-.66-1.19l-2.17-2.18C269.15,74.83,268.61,74.53,268.47,74.67Z" transform="translate(0 0)"/><path class="cls-4" d="M268.37,87.4c.14.15.68-.15,1.19-.67l2.17-2.17c.51-.51.81-1,.66-1.19s-.68.15-1.19.67L269,86.21C268.52,86.72,268.22,87.25,268.37,87.4Z" transform="translate(0 0)"/><path class="cls-4" d="M281.09,87.5c.15-.15-.15-.68-.66-1.19l-2.17-2.17c-.51-.52-1.05-.81-1.19-.67s.15.68.66,1.19l2.17,2.17C280.41,87.35,281,87.65,281.09,87.5Z" transform="translate(0 0)"/><path class="cls-4" d="M72.08,215.73c0-.3-.84-.54-1.87-.54H65.85c-1,0-1.87.24-1.87.54s.84.52,1.87.52h4.36C71.24,216.25,72.08,216,72.08,215.73Z" transform="translate(0 0)"/><path class="cls-4" d="M59.38,202.83c-.29,0-.52.83-.52,1.87v4.36c0,1,.23,1.86.52,1.86s.54-.83.54-1.86V204.7C59.92,203.66,59.68,202.83,59.38,202.83Z" transform="translate(0 0)"/><path class="cls-4" d="M46.49,215.52c0,.29.84.53,1.87.53h4.36c1,0,1.87-.24,1.87-.53s-.84-.53-1.87-.53H48.36C47.33,215,46.49,215.23,46.49,215.52Z" transform="translate(0 0)"/><path class="cls-4" d="M59.18,228.42c.3,0,.53-.84.53-1.87v-4.36c0-1-.23-1.87-.53-1.87s-.53.84-.53,1.87v4.36C58.65,227.58,58.89,228.42,59.18,228.42Z" transform="translate(0 0)"/><path class="cls-4" d="M65.7,209.31c-.15-.14-.68.15-1.19.66l-2.17,2.18c-.52.51-.82,1-.67,1.18s.68-.14,1.2-.66L65,210.5C65.55,210,65.84,209.45,65.7,209.31Z" transform="translate(0 0)"/><path class="cls-4" d="M53,209.21c-.14.15.15.67.67,1.19l2.17,2.17c.51.52,1,.81,1.19.66s-.15-.67-.67-1.19l-2.17-2.17C53.65,209.36,53.12,209.07,53,209.21Z" transform="translate(0 0)"/><path class="cls-4" d="M52.87,221.94c.15.14.68-.16,1.19-.67l2.17-2.17c.52-.52.81-1,.67-1.19s-.68.15-1.19.66l-2.17,2.17C53,221.26,52.73,221.79,52.87,221.94Z" transform="translate(0 0)"/><path class="cls-4" d="M65.6,222c.14-.15-.15-.69-.67-1.19l-2.17-2.18c-.51-.51-1-.8-1.19-.66s.15.68.67,1.19l2.17,2.17C64.92,221.89,65.45,222.18,65.6,222Z" transform="translate(0 0)"/></g><rect class="cls-5" y="237.05" width="510.24" height="159.8"/><g class="cls-6"><polygon class="cls-4" points="320.47 143.28 334.39 143.28 328.89 128.3 325.96 128.3 320.47 143.28"/><path class="cls-4" d="M355.22,175.17v61.71h33.61V175.17Zm19.94,37.18h9.11v13.2h-9.11Zm0-15.89h9.11v13.2h-9.11Zm0-15.9h9.11v13.2h-9.11Zm-15.38,31.79h9.11v13.2h-9.11Zm0-15.89h9.11v13.2h-9.11Zm0-15.9h9.11v13.2h-9.11Z" transform="translate(0 0)"/><path class="cls-4" d="M310.14,143.28v15h34.57v-15Zm23.66,4.06h7.58v8.53H333.8Zm-10.16,0h7.58v8.53h-7.58Zm-10.17,0h7.59v8.53h-7.59Z" transform="translate(0 0)"/><path class="cls-4" d="M392.35,122.41V236.88H426V122.41Zm22.91,92.45H423v10.69h-7.76Zm0-14.26H423v10.7h-7.76Zm0-14.26H423V197h-7.76Zm0-14.25H423v10.69h-7.76Zm0-14.26H423v10.69h-7.76Zm0-14.26H423v10.69h-7.76Zm0-14.26H423V140h-7.76Zm-9.75,85.55h7.76v10.69h-7.76Zm0-14.26h7.76v10.7h-7.76Zm0-14.26h7.76V197h-7.76Zm0-14.25h7.76v10.69h-7.76Zm0-14.26h7.76v10.69h-7.76Zm0-14.26h7.76v10.69h-7.76Zm0-14.26h7.76V140h-7.76Zm-9.75,85.55h7.76v10.69h-7.76Zm0-14.26h7.76v10.7h-7.76Zm0-14.26h7.76V197h-7.76Zm0-14.25h7.76v10.69h-7.76Zm0-14.26h7.76v10.69h-7.76Zm0-14.26h7.76v10.69h-7.76Zm0-14.26h7.76V140h-7.76Z" transform="translate(0 0)"/><rect class="cls-4" x="215.18" y="117.22" width="25.78" height="5.19"/><path class="cls-4" d="M211.27,122.41V236.88h33.6V122.41Zm22.9,92.45h7.76v10.69h-7.76Zm0-14.26h7.76v10.7h-7.76Zm0-14.26h7.76V197h-7.76Zm0-14.25h7.76v10.69h-7.76Zm0-14.26h7.76v10.69h-7.76Zm0-14.26h7.76v10.69h-7.76Zm0-14.26h7.76V140h-7.76Zm-9.74,85.55h7.76v10.69h-7.76Zm0-14.26h7.76v10.7h-7.76Zm0-14.26h7.76V197h-7.76Zm0-14.25h7.76v10.69h-7.76Zm0-14.26h7.76v10.69h-7.76Zm0-14.26h7.76v10.69h-7.76Zm0-14.26h7.76V140h-7.76Zm-9.75,85.55h7.76v10.69h-7.76Zm0-14.26h7.76v10.7h-7.76Zm0-14.26h7.76V197h-7.76Zm0-14.25h7.76v10.69h-7.76Zm0-14.26h7.76v10.69h-7.76Zm0-14.26h7.76v10.69h-7.76Zm0-14.26h7.76V140h-7.76Z" transform="translate(0 0)"/><path class="cls-4" d="M304.08,158.27v78.61h46.7V158.27Zm30.86,52.81h9.93v11.71h-9.93Zm0-16h9.93v11.7h-9.93Zm0-16h9.93v11.71h-9.93Zm0-16h9.93v11.71h-9.93Zm-12.48,48.07h9.93v11.71h-9.93Zm0-16h9.93v11.7h-9.93Zm0-16h9.93v11.71h-9.93Zm0-16h9.93v11.71h-9.93ZM310,211.08h9.94v11.71H310Zm0-16h9.94v11.7H310Zm0-16h9.94v11.71H310Zm0-16h9.94v11.71H310Z" transform="translate(0 0)"/><path class="cls-4" d="M435.32,118.2v19h21v-19Zm14.35,5.15h4.59v10.82h-4.59Zm-6.17,0h4.6v10.82h-4.6Zm-6.16,0h4.6v10.82h-4.6Z" transform="translate(0 0)"/><path class="cls-4" d="M431.64,137.2v99.68H460V137.2Zm18.72,67h6V219h-6Zm0-20.32h6v14.84h-6Zm0-20.32h6v14.84h-6Zm0-20.31h6v14.84h-6Zm-7.57,60.95h6V219h-6Zm0-20.32h6v14.84h-6Zm0-20.32h6v14.84h-6Zm0-20.31h6v14.84h-6Zm-7.56,60.95h6V219h-6Zm0-20.32h6v14.84h-6Zm0-20.32h6v14.84h-6Zm0-20.31h6v14.84h-6Z" transform="translate(0 0)"/><path class="cls-4" d="M248.69,161.49v75.39h52.19V141.05h-7.31Zm40.81,49.79h8.27V223H289.5Zm0-16.12h8.27v11.7H289.5Zm0-16.13h8.27v11.71H289.5Zm0-16.12h8.27v11.7H289.5Zm-11.69,48.37h8.28V223h-8.28Zm0-16.12h8.28v11.7h-8.28Zm0-16.13h8.28v11.71h-8.28Zm0-16.12h8.28v11.7h-8.28Zm-11.68,48.37h8.28V223h-8.28Zm0-16.12h8.28v11.7h-8.28Zm0-16.13h8.28v11.71h-8.28Zm0-16.12h8.28v11.7h-8.28Zm-11.68,48.37h8.28V223h-8.28Zm0-16.12h8.28v11.7h-8.28Zm0-16.13h8.28v11.71h-8.28Zm0-16.12h8.28v11.7h-8.28Z" transform="translate(0 0)"/><path class="cls-4" d="M464,157.83v79h40.37V141.05H502Zm27.73,53.45H500V223h-8.28Zm0-16.12H500v11.7h-8.28Zm0-16.13H500v11.71h-8.28Zm0-16.12H500v11.7h-8.28Zm-11.68,48.37h8.27V223h-8.27Zm0-16.12h8.27v11.7h-8.27Zm0-16.13h8.27v11.71h-8.27Zm0-16.12h8.27v11.7h-8.27Zm-11.68,48.37h8.27V223h-8.27Zm0-16.12h8.27v11.7h-8.27Zm0-16.13h8.27v11.71h-8.27Zm0-16.12h8.27v11.7h-8.27Z" transform="translate(0 0)"/><rect class="cls-4" x="445.41" y="94.03" width="0.78" height="24.17"/></g><line class="cls-7" x1="427.87" y1="55.88" x2="460.86" y2="79.99"/><line class="cls-7" x1="414.43" y1="55.88" x2="295.84" y2="79.99"/><line class="cls-7" x1="414.43" y1="68.09" x2="295.84" y2="79.99"/><polygon class="cls-8" points="460.86 79.99 454.24 87.82 447.62 79.99 460.86 79.99"/><polygon class="cls-8" points="447.62 79.99 441.01 87.82 434.39 79.99 447.62 79.99"/><polygon class="cls-8" points="434.39 79.99 427.77 87.82 421.15 79.99 434.39 79.99"/><polygon class="cls-8" points="421.15 79.99 414.53 87.82 407.92 79.99 421.15 79.99"/><polygon class="cls-8" points="407.92 79.99 401.3 87.82 394.68 79.99 407.92 79.99"/><polygon class="cls-8" points="394.68 79.99 388.06 87.82 381.45 79.99 394.68 79.99"/><polygon class="cls-8" points="381.45 79.99 374.83 87.82 368.21 79.99 381.45 79.99"/><polygon class="cls-8" points="368.21 79.99 361.59 87.82 354.97 79.99 368.21 79.99"/><polygon class="cls-8" points="354.97 79.99 348.36 87.82 341.74 79.99 354.97 79.99"/><line class="cls-9" x1="454.24" y1="79.99" x2="454.24" y2="87.82"/><line class="cls-9" x1="441.01" y1="79.99" x2="441.01" y2="87.82"/><line class="cls-9" x1="427.77" y1="79.99" x2="427.77" y2="87.82"/><line class="cls-9" x1="414.53" y1="79.99" x2="414.53" y2="87.82"/><line class="cls-9" x1="401.3" y1="79.99" x2="401.3" y2="87.82"/><line class="cls-9" x1="388.06" y1="79.99" x2="388.06" y2="87.82"/><line class="cls-9" x1="374.83" y1="79.99" x2="374.83" y2="87.82"/><line class="cls-9" x1="361.59" y1="79.99" x2="361.59" y2="87.82"/><line class="cls-9" x1="348.36" y1="79.99" x2="348.36" y2="87.82"/><polygon class="cls-8" points="341.95 79.99 335.33 87.82 328.71 79.99 341.95 79.99"/><line class="cls-9" x1="335.33" y1="79.99" x2="335.33" y2="87.82"/><polygon class="cls-8" points="328.93 79.99 322.31 87.82 315.69 79.99 328.93 79.99"/><line class="cls-9" x1="322.31" y1="79.99" x2="322.31" y2="87.82"/><polygon class="cls-8" points="315.69 79.99 309.07 87.82 302.46 79.99 315.69 79.99"/><line class="cls-9" x1="309.07" y1="79.99" x2="309.07" y2="87.82"/><polygon class="cls-8" points="302.46 79.99 295.84 87.82 289.22 79.99 302.46 79.99"/><line class="cls-9" x1="295.84" y1="79.99" x2="295.84" y2="87.82"/><polygon class="cls-8" points="289.22 79.99 282.6 87.82 275.99 79.99 289.22 79.99"/><line class="cls-9" x1="282.6" y1="79.99" x2="282.6" y2="87.82"/><rect class="cls-10" x="275.98" y="79.99" width="184.87" height="7.93"/><polygon class="cls-11" points="414.43 44.25 427.7 52.2 414.43 60.15 414.43 44.25"/><polygon class="cls-11" points="414.43 60.15 427.7 68.09 414.43 76.04 414.43 60.15"/><polygon class="cls-11" points="414.43 91.93 427.7 99.88 414.43 107.83 414.43 91.93"/><polygon class="cls-11" points="414.43 107.83 427.7 115.77 414.43 123.72 414.43 107.83"/><polygon class="cls-11" points="414.43 123.72 427.7 131.67 414.43 139.61 414.43 123.72"/><polygon class="cls-11" points="414.43 139.61 427.7 147.56 414.43 155.51 414.43 139.61"/><polygon class="cls-11" points="414.43 155.51 427.7 163.45 414.43 171.4 414.43 155.51"/><polygon class="cls-11" points="414.43 171.4 427.7 179.35 414.43 187.29 414.43 171.4"/><line class="cls-10" x1="414.43" y1="52.2" x2="427.7" y2="52.2"/><line class="cls-10" x1="414.43" y1="68.09" x2="427.7" y2="68.09"/><line class="cls-10" x1="414.43" y1="99.88" x2="427.7" y2="99.88"/><line class="cls-10" x1="414.43" y1="115.77" x2="427.7" y2="115.77"/><line class="cls-10" x1="414.43" y1="131.67" x2="427.7" y2="131.67"/><line class="cls-10" x1="414.43" y1="147.56" x2="427.7" y2="147.56"/><line class="cls-10" x1="414.43" y1="163.45" x2="427.7" y2="163.45"/><line class="cls-10" x1="414.43" y1="179.35" x2="427.7" y2="179.35"/><polygon class="cls-11" points="414.43 187.15 427.7 195.1 414.43 203.04 414.43 187.15"/><line class="cls-10" x1="414.43" y1="195.1" x2="427.7" y2="195.1"/><polygon class="cls-11" points="414.43 202.9 427.7 210.84 414.43 218.79 414.43 202.9"/><line class="cls-10" x1="414.43" y1="210.84" x2="427.7" y2="210.84"/><polygon class="cls-11" points="414.43 218.65 427.7 226.59 414.43 234.54 414.43 218.65"/><line class="cls-10" x1="414.43" y1="226.59" x2="427.7" y2="226.59"/><rect class="cls-10" x="414.43" y="44.25" width="13.44" height="190.29"/><path class="cls-12" d="M400.43,252.93a1,1,0,0,1-.83-1.44L410,233.55a1,1,0,0,1,.83-.48h20.72a.94.94,0,0,1,.83.48l10.36,17.94a.92.92,0,0,1,0,1,1,1,0,0,1-.82.48Z" transform="translate(0 0)"/><path class="cls-13" d="M431.51,234,441.88,252H400.43L410.79,234h20.72m0-1.92H410.79a1.94,1.94,0,0,0-1.66,1L398.77,251a1.91,1.91,0,0,0,1.66,2.87h41.45a1.91,1.91,0,0,0,1.65-2.87l-10.36-17.94a1.92,1.92,0,0,0-1.66-1Z" transform="translate(0 0)"/><g class="cls-14"><polygon class="cls-15" points="435.95 246.19 430.2 236.21 418.71 236.21 412.96 246.19 435.95 246.19"/></g><g class="cls-16"><polygon class="cls-17" points="410.79 234.03 415.29 234.03 407.15 248.12 439.65 248.12 441.88 251.97 400.43 251.97 410.79 234.03"/></g><path class="cls-18" d="M290,93.64a5.82,5.82,0,1,0,5.82-5.82A5.82,5.82,0,0,0,290,93.64Z" transform="translate(0 0)"/><path class="cls-19" d="M292,93.64a3.82,3.82,0,1,0,3.82-3.83A3.82,3.82,0,0,0,292,93.64Z" transform="translate(0 0)"/><path class="cls-18" d="M293.43,93.64a2.41,2.41,0,1,0,2.41-2.41A2.41,2.41,0,0,0,293.43,93.64Z" transform="translate(0 0)"/><rect class="cls-12" x="440.13" y="86.86" width="21.05" height="16.92" rx="0.96"/><path class="cls-13" d="M460.23,87.82v15H441.09v-15h19.14m0-1.91H441.09a1.91,1.91,0,0,0-1.92,1.91v15a1.92,1.92,0,0,0,1.92,1.91h19.14a1.92,1.92,0,0,0,1.91-1.91v-15a1.91,1.91,0,0,0-1.91-1.91Z" transform="translate(0 0)"/><g class="cls-16"><rect class="cls-17" x="441.09" y="87.82" width="4.57" height="15.01"/></g><line class="cls-7" x1="295.84" y1="99.45" x2="295.84" y2="115.53"/><path class="cls-20" d="M398.83,116.73a1,1,0,0,1-.95-1V94.91a.88.88,0,0,1,.11-.45L408.9,73.6a1,1,0,0,1,.85-.51h23a1,1,0,0,1,1,1v41.73a1,1,0,0,1-1,1Z" transform="translate(0 0)"/><path class="cls-13" d="M432.79,74v41.73h-34V94.91L409.75,74h23m0-1.91h-23a1.89,1.89,0,0,0-1.69,1L397.14,94a1.83,1.83,0,0,0-.22.89v20.86a1.92,1.92,0,0,0,1.91,1.92h34a1.92,1.92,0,0,0,1.92-1.92V74a1.92,1.92,0,0,0-1.92-1.91Z" transform="translate(0 0)"/><g class="cls-16"><polygon class="cls-20" points="409.75 74.04 410.43 74.04 400.43 93.14 400.43 114.01 432.79 114.01 432.79 115.77 398.83 115.77 398.83 94.91 409.75 74.04"/></g><path class="cls-17" d="M402.26,100.06a.66.66,0,0,1-.66-.65V95.32a.67.67,0,0,1,.08-.3l9.42-18.1a.64.64,0,0,1,.58-.36h10.79a.66.66,0,0,1,.65.66V99.41a.65.65,0,0,1-.65.65Z" transform="translate(0 0)"/><path class="cls-13" d="M422.47,77.22V99.41H402.26V95.32l9.42-18.1h10.79m0-1.31H411.68a1.3,1.3,0,0,0-1.16.7L401.1,94.72a1.27,1.27,0,0,0-.15.6v4.09a1.31,1.31,0,0,0,1.31,1.31h20.21a1.31,1.31,0,0,0,1.3-1.31V77.22a1.31,1.31,0,0,0-1.3-1.31Z" transform="translate(0 0)"/><rect class="cls-21" x="427.7" y="76.04" width="3.7" height="34.93"/><rect class="cls-22" x="453.95" y="88.77" width="5.6" height="11.11"/><path class="cls-17" d="M295.1,140.08a6.66,6.66,0,0,1-4.77-2,4.76,4.76,0,0,1-1.35-3.6c.14-2.77,1.74-5.84,5-6.67.1-1.6.08-8.17,0-12.31a.57.57,0,0,1,.17-.42.6.6,0,0,1,.42-.18h1.84a.62.62,0,0,1,.6.6L296.87,128a1.36,1.36,0,0,1,0,.2l0,.11a2.18,2.18,0,0,1-.27.63,2.3,2.3,0,0,1-.48.56,3.83,3.83,0,0,1-1,.57,4.79,4.79,0,0,0-2.84,3.4,3.08,3.08,0,0,0,1,2.92v0a3,3,0,0,0,1.85.53,3.91,3.91,0,0,0,2.22-.62,2.06,2.06,0,0,0,.88-1.64,3.46,3.46,0,0,0-1.29-2.56.61.61,0,0,1-.14-.76.6.6,0,0,1,.52-.3.45.45,0,0,1,.2,0,4.36,4.36,0,0,1,2.73,2.6,4.55,4.55,0,0,1-.45,3.89,5.17,5.17,0,0,1-4.64,2.48Z" transform="translate(0 0)"/><path class="cls-13" d="M296.43,115.53h0m0,0L296.27,128v.05l0,.11a1.64,1.64,0,0,1-.2.48,1.56,1.56,0,0,1-.36.41,2.61,2.61,0,0,1-.83.47c-2.84,1.16-4.58,5-2.05,7.32h0a3.44,3.44,0,0,0,2.28.71,4.51,4.51,0,0,0,2.58-.73c1.88-1.43,1.14-3.86-.39-5.14a3.72,3.72,0,0,1,2,5.63,4.62,4.62,0,0,1-4.13,2.18c-2.77,0-5.68-1.9-5.52-4.93a6.38,6.38,0,0,1,4.91-6.21c.23,0,.1-12.8.1-12.8h1.84m-3.63,21.31h0m3.63-22.51h-1.84a1.19,1.19,0,0,0-1.19,1.21c0,4.71.05,10,0,11.85a7.63,7.63,0,0,0-5,7.09,5.37,5.37,0,0,0,1.52,4,7.23,7.23,0,0,0,5.2,2.15,5.76,5.76,0,0,0,5.16-2.78,5.1,5.1,0,0,0,.49-4.39,5,5,0,0,0-3.08-3,1.19,1.19,0,0,0-1.17,2,2.84,2.84,0,0,1,1.07,2.08,1.46,1.46,0,0,1-.64,1.18,3.34,3.34,0,0,1-1.86.5,2.49,2.49,0,0,1-1.45-.38h0a2.49,2.49,0,0,1-.79-2.38,4.17,4.17,0,0,1,2.48-3,4,4,0,0,0,1.15-.66,2.82,2.82,0,0,0,.62-.72,2.75,2.75,0,0,0,.33-.79l0-.09a1.58,1.58,0,0,0,0-.38l.15-12.37a.28.28,0,0,0,0-.09,1.2,1.2,0,0,0-1.2-1.2Z" transform="translate(0 0)"/><rect class="cls-20" x="290.15" y="110.22" width="11.38" height="12.38" rx="0.96"/><path class="cls-13" d="M300.57,111.18v10.47H291.1V111.18h9.47m0-1.91H291.1a1.91,1.91,0,0,0-1.91,1.91v10.47a1.91,1.91,0,0,0,1.91,1.91h9.47a1.91,1.91,0,0,0,1.92-1.91V111.18a1.91,1.91,0,0,0-1.92-1.91Z" transform="translate(0 0)"/><g class="cls-16"><polygon class="cls-20" points="300.57 121.65 291.1 121.65 291.1 111.18 300.57 121.65"/></g><rect class="cls-20" x="379.17" y="247.16" width="78.67" height="14.19" rx="0.96"/><path class="cls-13" d="M456.88,248.12V260.4H380.13V248.12h76.75m0-1.92H380.13a1.91,1.91,0,0,0-1.91,1.92V260.4a1.9,1.9,0,0,0,1.91,1.91h76.75a1.91,1.91,0,0,0,1.92-1.91V248.12a1.92,1.92,0,0,0-1.92-1.92Z" transform="translate(0 0)"/><g class="cls-16"><rect class="cls-20" x="380.13" y="248.12" width="5.95" height="12.28"/></g><rect class="cls-21" x="401.3" y="250.17" width="52.65" height="4.08"/><path class="cls-23" d="M76.88,98.88S92.78,79.53,114,90.36C131.39,99.2,138.31,206.89,141.71,225c3.3,17.57-34.93,9.65-52.63,10.47s-9.39-69.78-9-84.73c.45-18.9-3.17-49.86-3.17-49.86" transform="translate(0 0)"/><path class="cls-13" d="M120.28,237.52c-5,0-10.29-.31-15.35-.61-5.91-.35-11.49-.67-15.81-.47a7,7,0,0,1-5.5-2.27c-9.49-9.71-6.68-50.37-5.17-72.22.34-4.9.6-8.77.66-11.2C79.56,132.13,76,101.33,76,101a.94.94,0,0,1,1.86-.22c0,.31,3.62,31.25,3.17,50-.06,2.46-.32,6.35-.66,11.28-1.49,21.55-4.26,61.67,4.64,70.78A5.17,5.17,0,0,0,89,234.57c4.42-.21,10,.12,16,.47,13.86.81,29.57,1.73,34.44-3.81,1.36-1.54,1.78-3.51,1.31-6-.78-4.17-1.75-13-3-24.18-3.93-36.08-11.26-103.23-24.22-109.83-20.31-10.35-35.36,7.52-36,8.28a.94.94,0,0,1-1.45-1.19c.16-.2,16.63-19.8,38.29-8.76,12.79,6.52,19.73,60.87,25.24,111.29,1.21,11.15,2.17,19.95,2.94,24.05a8.57,8.57,0,0,1-1.74,7.61C137.35,236.49,129.35,237.52,120.28,237.52Z" transform="translate(0 0)"/><path class="cls-5" d="M66.69,174.33,89.93,162.6h17.65s17.63,10.15,24.14,13.38c0,0,2.19,34.49-4.24,57.08-6.38,22.4,4.24,48.54,4.24,48.54s-13.91,8.59-30.41,8.59c-17.7,0-34-8.59-34-8.59s12-24.35,4.52-48.16C62.78,204.81,66.69,174.33,66.69,174.33Z" transform="translate(0 0)"/><path class="cls-13" d="M101.31,291.13c-17.72,0-34.28-8.61-34.45-8.7l-.8-.42.4-.82c.12-.24,11.79-24.31,4.47-47.47-9-28.49-5.2-59.2-5.16-59.51l.06-.49L89.7,161.66h18.13l.22.12c.18.1,17.68,10.18,24.09,13.36l.48.24,0,.54c0,.35,2.12,34.91-4.28,57.39-6.22,21.83,4.11,47.68,4.21,47.94l.3.74-.68.41C131.64,282.76,117.88,291.13,101.31,291.13Zm-32.78-10c3.46,1.67,17.71,8.09,32.78,8.09,14,0,26.31-6.41,29.25-8.07-1.67-4.5-9.77-28.08-4-48.39,5.87-20.65,4.48-51.77,4.24-56.23-6.39-3.23-21.5-11.89-23.49-13H90.15L67.57,174.94c-.45,4-3.11,32.08,5.15,58.22C79.48,254.55,70.56,276.62,68.53,281.17Z" transform="translate(0 0)"/><path class="cls-24" d="M50.46,192.94c7.21,4.14,12.39,12.15,12.15,20.31-10.24,11.84-21,24-21,24s-.29.63-.43.95c-9.89.53-8,2.93-14.81-3.32C31.29,222.77,41,206,50.46,192.94Z" transform="translate(0 0)"/><path class="cls-13" d="M33,240c-2.18,0-3.56-1.09-7.25-4.46l-.48-.44.25-.61c5-12.1,14.7-29,24.24-42.1l.49-.68.73.42c7.79,4.47,12.86,13,12.62,21.15v.33l-.22.25c-9.63,11.14-19.88,22.67-21,23.88l-.63,1.33-.55,0a50.63,50.63,0,0,0-5.73.63A17.71,17.71,0,0,1,33,240Zm-5.5-5.4c3.3,3,4.17,3.53,5.5,3.53a15.48,15.48,0,0,0,2.22-.26c1.26-.19,2.94-.45,5.35-.61l.35-.66c.11-.12,10.75-12.08,20.81-23.71.08-7.15-4.27-14.54-11-18.7C41.59,206.84,32.35,222.88,27.45,234.6Z" transform="translate(0 0)"/><path class="cls-25" d="M41.14,238.17c1-.14-1.56.08,0,0,.14-.32.43-.95.43-.95s10-11.89,20.27-23.74c.07-2.47.41-5.16-.42-7.51C49.88,214.59,44.21,225,41.14,238.17Z" transform="translate(0 0)"/><path class="cls-5" d="M79.13,175.58c-2-2.06-6.07-3.16-9.22-2.87-6.37.58-16.93,15-27.44,31.37,6.06,3.7,11.9,10.38,18.15,12.09C62.78,213.68,69.91,206,72,203.62" transform="translate(0 0)"/><path class="cls-13" d="M61,217.23l-.57-.16c-4.11-1.12-8-4.26-11.78-7.29a65.52,65.52,0,0,0-6.62-4.9l-.82-.5.52-.81c13.79-21.47,22.47-31.28,28.14-31.79,3.1-.29,7.66.72,10,3.15a.94.94,0,1,1-1.35,1.3c-1.66-1.74-5.37-2.87-8.46-2.59-7,.65-21,22-26.22,30.15,2,1.33,4,3,6,4.53,3.44,2.77,7,5.62,10.54,6.78,1.12-1.28,3-3.34,5-5.51,2.4-2.62,4.88-5.33,6-6.58a.94.94,0,0,1,1.43,1.22c-1.1,1.27-3.59,4-6,6.62-2.23,2.45-4.35,4.76-5.37,5.93Z" transform="translate(0 0)"/><g class="cls-26"><path class="cls-17" d="M73,199.45s-13.33,9.85-17.18,13l4.53,2.92,11.79-12.49Z" transform="translate(0 0)"/></g><rect class="cls-4" x="44.72" y="197.94" width="11.02" height="25.78" transform="translate(-150.63 129.42) rotate(-54.54)"/><path class="cls-13" d="M43.14,200.17,62.62,214l-5.31,7.45L37.84,207.62l5.3-7.45m-.43-2.61-1.09,1.52-5.31,7.45-1.09,1.53,1.53,1.09L56.23,223l1.52,1.08,1.09-1.52,5.31-7.46,1.09-1.52-1.53-1.09L44.23,198.64l-1.52-1.08Z" transform="translate(0 0)"/><g class="cls-26"><polygon class="cls-17" points="57.86 210.65 50.68 216.89 57.31 221.49 62.62 214.04 57.86 210.65"/></g><path class="cls-27" d="M137.08,396.85c-.38-49.94-1.17-106-1.17-106L96.55,280.54s5.09,57.36,11.26,116.31Z" transform="translate(0 0)"/><path class="cls-27" d="M108.76,396.85C103.14,343.22,98.4,290.73,97.6,281.79L135,291.56c.09,6.7.79,58.68,1.15,105.29H138c-.37-48.21-1.12-102.14-1.17-106a1,1,0,0,0-.7-.9L96.79,279.64a.91.91,0,0,0-.84.19.89.89,0,0,0-.33.79c.07.83,5.14,57.82,11.26,116.23Z" transform="translate(0 0)"/><path class="cls-27" d="M93.05,396.85c5.92-59.67,10.56-118.26,10.56-118.26l-38.86,6.68s-.65,59.55-.9,111.58Z" transform="translate(0 0)"/><path class="cls-27" d="M64.79,396.85c.23-48.5.81-103.58.88-110.79l36.91-6.34c-.69,8.67-5.07,62.55-10.48,117.13H94c5.86-59.14,10.5-117.34,10.57-118.18a.93.93,0,0,0-1.09-1l-38.87,6.67a.93.93,0,0,0-.78.92c-.05,4.07-.66,61.34-.9,111.59Z" transform="translate(0 0)"/><polyline class="cls-27" points="64.61 301.82 64.89 278.59 136.04 278.59 136.04 301.82"/><path class="cls-13" d="M64.61,302.76h0a.94.94,0,0,1-.92-.95L64,278.58a.93.93,0,0,1,.94-.92H136a.94.94,0,0,1,.94.93v23.23a.94.94,0,0,1-1.88,0V279.53H65.81l-.27,22.31A.93.93,0,0,1,64.61,302.76Z" transform="translate(0 0)"/><path class="cls-28" d="M98.29,185.33a6.4,6.4,0,0,1-5-2.29c-4.82-5.58-2.82-19.72-2.73-20.32l1.69-21,14.22.15L108,162.94c.08.45,2.27,13.28-2.79,19.31A8.61,8.61,0,0,1,98.29,185.33Z" transform="translate(0 0)"/><path class="cls-13" d="M93.07,142.65l12.49.12,1.5,20.23s3.77,21.39-8.77,21.39c-10,0-6.84-21.54-6.84-21.54l1.62-20.2m-1.72-1.89-.14,1.74-1.62,20.15a56.16,56.16,0,0,0-.48,8c.08,6.06,1.23,10.43,3.44,13a7.38,7.38,0,0,0,5.74,2.62,9.5,9.5,0,0,0,7.64-3.42c5.16-6.15,3.22-18.73,3-20.07l-1.49-20.14-.13-1.72-1.72,0-12.49-.13Z" transform="translate(0 0)"/><path class="cls-24" d="M94.7,157.44c-.65,0-1.31,0-2-.09-12-1.14-20.88-12.15-19.78-24.54l1.94-21.89c1-11.7,10.39-20.52,21.75-20.52.68,0,1.36,0,2,.1,12,1.14,20.88,12.14,19.78,24.54v0l-4.53,21.75C112.81,149.16,105.09,157.44,94.7,157.44Z" transform="translate(0 0)"/><path class="cls-13" d="M96.64,91.34c.65,0,1.29,0,1.94.09,11.52,1.09,20,11.62,18.94,23.52L113,136.7c-1,11.23-7.84,19.8-18.3,19.8a17.43,17.43,0,0,1-1.89-.09c-11.51-1.09-20-11.62-18.93-23.52L75.82,111c1-11.23,10.13-19.66,20.82-19.66m0-1.87h0C84.79,89.47,75,98.65,74,110.83L72,132.73c-1.14,12.9,8.11,24.36,20.63,25.55.69.06,1.38.1,2.06.1,10.89,0,19-8.6,20.15-21.4l4.5-21.65,0-.1v-.11c1.15-12.91-8.1-24.37-20.62-25.55-.7-.07-1.41-.1-2.11-.1Z" transform="translate(0 0)"/><path class="cls-28" d="M117.52,115,113,136.7c-1,11.74-8.48,20.54-19.73,19.73,13.49-14.93,18-37.53,18.83-58A22,22,0,0,1,117.52,115Z" transform="translate(0 0)"/><path class="cls-23" d="M118.55,128.37s-3.47,6.68-8.31-9.41c-.09-.3-14.9,3.52-37.94-1-1.17-11.3,5.11-26.15,10.9-29.41C86,87,108.11,84.13,118.55,93.49a27.34,27.34,0,0,1,5.57,7.86" transform="translate(0 0)"/><path class="cls-13" d="M116.6,130.68h-.24c-2.4-.23-4.62-3.73-6.79-10.71l-.4.06a108.2,108.2,0,0,1-37-1.15.93.93,0,0,1-.75-.82c-1.24-12,5.33-26.92,11.37-30.33,2.86-1.61,25.44-4.78,36.44,5.08A27.92,27.92,0,0,1,125,101a.94.94,0,0,1-1.74.7,26.12,26.12,0,0,0-5.35-7.53c-10-9-31.95-6.11-34.24-4.82-5.4,3.05-11.31,16.9-10.49,27.82a105.86,105.86,0,0,0,35.72,1c1.37-.2,2-.3,2.25.53,2.75,9.15,4.82,10.05,5.39,10.11s1.19-.86,1.19-.87a1,1,0,0,1,1.27-.39.94.94,0,0,1,.39,1.26A3.36,3.36,0,0,1,116.6,130.68Z" transform="translate(0 0)"/><path class="cls-28" d="M112.43,133.87a5.68,5.68,0,0,0,2.84,1.24,5.58,5.58,0,0,0,6.29-4.83,5.68,5.68,0,0,0-4.88-6.31,5.58,5.58,0,0,0-4.79,1.67" transform="translate(0 0)"/><path class="cls-13" d="M112.43,133.87l.26.13a5.83,5.83,0,0,0,.77.32,6.78,6.78,0,0,0,1.18.29c.22,0,.53,0,.7,0l.88-.06a3.51,3.51,0,0,0,.82-.19,3.84,3.84,0,0,0,.81-.33,3,3,0,0,0,.79-.49,4,4,0,0,0,.72-.65,4.93,4.93,0,0,0,1-1.68,5.21,5.21,0,0,0,.25-1l0-.06v-.05s0-.1,0,.09h0v-1.06l-.16-.92a9.71,9.71,0,0,0-.38-.94,5.37,5.37,0,0,0-1.23-1.55,3.85,3.85,0,0,0-.78-.56,3.61,3.61,0,0,0-.85-.39,5.92,5.92,0,0,0-.86-.25l-.47-.08-.4,0a5.62,5.62,0,0,0-1.52.17,6.53,6.53,0,0,0-1.15.42,4.84,4.84,0,0,0-.71.41l-.25.16.18-.24a3.26,3.26,0,0,1,.57-.63,5.25,5.25,0,0,1,2.82-1.36l.53-.07h.5a6.37,6.37,0,0,1,1.13.15,4.57,4.57,0,0,1,1.16.36,4.23,4.23,0,0,1,1.11.63,6.19,6.19,0,0,1,1.81,2,11.41,11.41,0,0,1,.56,1.29,12.75,12.75,0,0,1,.26,1.48l0,.61v.45h0c0,.2,0,.06,0,.11v.06l0,.09a8.7,8.7,0,0,1-.38,1.35,6.05,6.05,0,0,1-1.55,2.21,4.42,4.42,0,0,1-1,.76,4.37,4.37,0,0,1-1.11.49,5.37,5.37,0,0,1-2.19.3l-.87-.11a8.13,8.13,0,0,1-.85-.26,5.61,5.61,0,0,1-1.19-.66,3.44,3.44,0,0,1-.63-.56Z" transform="translate(0 0)"/><path class="cls-29" d="M86.27,143A16.25,16.25,0,0,1,78.56,141a.57.57,0,0,1,.58-1c.06,0,5.8,3.41,11.49,1.06a.57.57,0,0,1,.74.31.58.58,0,0,1-.31.75A12.41,12.41,0,0,1,86.27,143Z" transform="translate(0 0)"/><path class="cls-29" d="M84.88,135c-1.34,0-2.23-.38-2.63-1.15-.91-1.72,1.27-4.53,1.53-4.85a.57.57,0,1,1,.88.71c-.65.82-1.85,2.77-1.4,3.61.22.43,1,.61,2.15.52a.56.56,0,0,1,.61.52.57.57,0,0,1-.52.62Z" transform="translate(0 0)"/><path class="cls-4" d="M85.56,124.86a33.44,33.44,0,0,1-14.91-3.54c-7.87-2.33-7.9-4-7.91-4.6,0-.86.64-1.51,1.93-1.93,5.64-1.83,7.54-3.69,7.56-3.71a1,1,0,0,1,.53-.27l26.17-4a2.28,2.28,0,0,1,.55-.9c.72-.75,2-1.13,3.8-1.13,3.72,0,11.56,2,12.1,4.74.08.42.11,1.49-1.52,2.17a39.29,39.29,0,0,0-8.88,5.82,40.67,40.67,0,0,1-4.34,3.18,29.28,29.28,0,0,1-15.08,4.12Z" transform="translate(0 0)"/><path class="cls-13" d="M103.28,105.77c5.26,0,14.15,3.46,10.22,5.11-5.48,2.3-9.87,7-13.33,9.05a28.36,28.36,0,0,1-14.61,4A32.39,32.39,0,0,1,71,120.44h0c-4.94-1.45-9.67-3.58-6.05-4.76,6-2,7.94-4,7.94-4l26.85-4c0-1.39,1.46-1.92,3.53-1.92m0-1.87c-2.09,0-3.56.46-4.47,1.41a3.23,3.23,0,0,0-.53.7l-25.66,3.87a1.91,1.91,0,0,0-1.07.55h0s-1.83,1.73-7.17,3.47c-2.15.7-2.59,1.92-2.57,2.83,0,1.53,1.07,3.25,8.49,5.46a34.46,34.46,0,0,0,15.26,3.61,30.1,30.1,0,0,0,15.56-4.26,41.91,41.91,0,0,0,4.45-3.25,38.52,38.52,0,0,1,8.65-5.68c2.33-1,2.18-2.72,2.07-3.23-.71-3.56-9.55-5.48-13-5.48Z" transform="translate(0 0)"/><g class="cls-16"><path class="cls-30" d="M71,120.44s14.48,8.17,29.16-.51c3.46-2.05,7.85-6.75,13.33-9.05s-13.91-8.11-13.75-3.19C100.17,119.93,71,120.44,71,120.44Z" transform="translate(0 0)"/></g><path class="cls-4" d="M127.55,120.59a.93.93,0,0,1-.46-.12c-3-1.69-11.18-6.1-13.89-6.27l-1.36-.09c-2-.14-4.51-.31-7.54-.31a76.76,76.76,0,0,0-12.9,1.09,40.72,40.72,0,0,1-6.83.6c-8,0-12-2.64-12.2-2.75a.91.91,0,0,1-.42-.82v-.38c0-.26,0-.52,0-.79,1-17.65,12.39-29.52,28.28-29.52.64,0,1.29,0,2,.07,15.66,1,27.48,17.69,26.35,37.26,0,.31-.05.61-.07.92l0,.25a.92.92,0,0,1-.49.75A1,1,0,0,1,127.55,120.59Z" transform="translate(0 0)"/><path class="cls-13" d="M100.28,82.17q.93,0,1.89.06c15.18,1,26.58,17.19,25.47,36.28,0,.38-.06.76-.09,1.14,0,0-10.77-6.16-14.29-6.38-2.15-.14-5.16-.41-9-.41A77.07,77.07,0,0,0,91.25,114a41,41,0,0,1-6.68.58c-7.78,0-11.69-2.59-11.69-2.59,0-.38,0-.77.05-1.15,1.06-18.29,13-28.64,27.35-28.64m0-1.87h0c-16.42,0-28.16,12.22-29.22,30.4,0,.27,0,.54,0,.81v.37a1.86,1.86,0,0,0,.84,1.64c.18.12,4.47,2.9,12.72,2.9a41.65,41.65,0,0,0,7-.61,75.84,75.84,0,0,1,12.75-1.07h0c3,0,5.47.17,7.47.3l1.37.09c2.24.15,9.45,3.85,13.47,6.15a1.93,1.93,0,0,0,.93.25,1.9,1.9,0,0,0,.87-.22,1.87,1.87,0,0,0,1-1.5l0-.25c0-.32.05-.63.07-.94,1.17-20.09-11-37.25-27.22-38.26-.67,0-1.35-.06-2-.06Z" transform="translate(0 0)"/><g class="cls-16"><path class="cls-30" d="M96.11,113.3a90.91,90.91,0,0,1,17.15,0c3.52.22,14.29,6.38,14.29,6.38,0-.38.07-.76.09-1.14.68-11.67-3.33-22.27-10-29C107.42,93.85,98.84,102.57,96.11,113.3Z" transform="translate(0 0)"/></g><path class="cls-4" d="M80.65,113.57a23.88,23.88,0,0,1-9.26-1.79,1,1,0,0,1-.53-.68c-.06-.1-.2-.27-.28-.39a2.15,2.15,0,0,1-.66-1.45c1.56-16.38,13.94-28.74,28.79-28.74a26.27,26.27,0,0,1,11.51,2.68A.94.94,0,0,1,109.8,85h0c-.42,0-.83,0-1.24,0C95,84.94,84.7,99.08,82.59,112.76a.94.94,0,0,1-.89.79Z" transform="translate(0 0)"/><path class="cls-13" d="M98.71,81.46a24.52,24.52,0,0,1,2.56.13A25.08,25.08,0,0,1,109.8,84c-.43,0-.86,0-1.29,0C94.92,84,84,97.59,81.66,112.61c-.34,0-.68,0-1,0a23.11,23.11,0,0,1-8.87-1.7c0-.34-1-1.24-.93-1.58,1.52-15.93,13.73-27.89,27.86-27.89m0-1.87h0a28.31,28.31,0,0,0-20,8.51A34.23,34.23,0,0,0,69,109.17a3,3,0,0,0,.84,2.12l.17.2a1.86,1.86,0,0,0,1,1.14,24.83,24.83,0,0,0,9.66,1.88l1.09,0a1.86,1.86,0,0,0,1.77-1.58c2-13.29,12-27,25-27,.39,0,.79,0,1.18,0h.12a1.88,1.88,0,0,0,.82-3.56,27,27,0,0,0-9.17-2.63c-.91-.09-1.83-.14-2.75-.14Z" transform="translate(0 0)"/><path class="cls-31" d="M80.66,113.57c-.76,0-1.54,0-2.3-.11a.9.9,0,0,1-.65-.36.92.92,0,0,1-.19-.72c2.56-15.74,16.33-29.57,30.08-30.21h0a.92.92,0,0,1,.33.06c.75.28,1.5.61,2.24,1A.94.94,0,0,1,109.8,85h0c-.42,0-.83,0-1.24,0C95,84.94,84.7,99.08,82.59,112.76a.94.94,0,0,1-.89.79l-1,0Z" transform="translate(0 0)"/><path class="cls-13" d="M107.64,83.1c.74.28,1.46.6,2.16.94-.43,0-.86,0-1.29,0C94.92,84,84,97.59,81.66,112.61c-.34,0-.67,0-1,0-.77,0-1.51,0-2.21-.1C80.87,97.63,94,83.74,107.64,83.1m0-1.87h-.09c-14.15.66-28.33,14.86-30.95,31a1.88,1.88,0,0,0,1.68,2.17c.79.07,1.59.11,2.38.11.36,0,.71,0,1.08,0a1.86,1.86,0,0,0,1.77-1.58c2-13.29,12-27,25-27,.39,0,.79,0,1.18,0h.12a1.88,1.88,0,0,0,.82-3.56c-.77-.38-1.55-.71-2.32-1a1.93,1.93,0,0,0-.67-.12Z" transform="translate(0 0)"/><path class="cls-28" d="M86.36,146c0,.42-1,.67-2,.57s-1.92-.51-1.88-.93.94-.68,2-.58S86.39,145.59,86.36,146Z" transform="translate(0 0)"/><path class="cls-24" d="M150.29,192.94c-7.21,4.14-12.39,12.15-12.15,20.31,10.25,11.84,21,24,21,24l.44.95c9.88.53,7.95,2.93,14.8-3.32C169.46,222.77,159.77,206,150.29,192.94Z" transform="translate(0 0)"/><path class="cls-13" d="M167.81,240h0a17.68,17.68,0,0,1-2.52-.27,50.67,50.67,0,0,0-5.72-.63l-.56,0-.62-1.33c-1.08-1.21-11.32-12.74-21-23.88l-.22-.25v-.33c-.24-8.18,4.83-16.68,12.62-21.15l.73-.42.49.68c9.54,13.09,19.28,30,24.25,42.1l.24.61-.48.44C171.36,238.91,170,240,167.81,240Zm-7.58-2.74c2.41.16,4.1.42,5.35.61a15.59,15.59,0,0,0,2.23.26h0c1.32,0,2.2-.54,5.49-3.53-4.89-11.71-14.13-27.76-23.27-40.41-6.69,4.16-11,11.55-11,18.7,10.06,11.63,20.7,23.59,20.81,23.71l.15.23Z" transform="translate(0 0)"/><path class="cls-25" d="M147.8,216c-1.25-1.25.11.45-4.26,2.28,6.22,7.14,11,12.8,13.67,15.87C158.19,228.7,151.9,220.1,147.8,216Z" transform="translate(0 0)"/><path class="cls-5" d="M121.63,175.58a9.52,9.52,0,0,1,7.93-2.82c6.37.58,18.22,15,28.72,31.32-6.06,3.7-11.9,10.38-18.15,12.09-2.16-2.49-9.29-10.14-11.36-12.55" transform="translate(0 0)"/><path class="cls-13" d="M139.81,217.23l-.39-.45c-1-1.18-3.14-3.49-5.38-5.94-2.41-2.63-4.89-5.34-6-6.61a.94.94,0,1,1,1.42-1.22c1.07,1.25,3.55,4,5.94,6.56,2,2.18,3.89,4.25,5,5.53,3.54-1.16,7.1-4,10.53-6.78,2-1.58,4-3.2,6-4.53-11.55-17.84-22.31-29.62-27.51-30.1a8.59,8.59,0,0,0-7.17,2.54.94.94,0,1,1-1.35-1.3,10.45,10.45,0,0,1,8.69-3.11c8.91.82,24.78,24.51,29.43,31.75l.52.81-.82.5a65.52,65.52,0,0,0-6.62,4.9c-3.77,3-7.66,6.17-11.77,7.29Z" transform="translate(0 0)"/><g class="cls-26"><path class="cls-17" d="M127.44,199.45s13.33,9.85,17.18,13l-4.53,2.92L128.3,202.83Z" transform="translate(0 0)"/></g><path class="cls-27" d="M99.6,291.61c-1,0-1.93,0-2.87-.07-20.64-1.09-29.76-8.63-30.14-9a.94.94,0,0,1-.2-1.2,53.13,53.13,0,0,0,6.14-28c-.56-9-6.94-34.5-7-34.76a.94.94,0,0,1,.89-1.17l9.57-.17-3.9-45.67c0-2.15,3.48-3.05,5-3.33l.18,0a.93.93,0,0,1,.91.73l11.36,49.1h18.88L119.75,169a.93.93,0,0,1,.91-.73l.18,0c1.49.28,5,1.18,5,3.25l-3.9,45.74,10.18.18a1,1,0,0,1,.91,1.13c-.05.23-4.78,23.19-5.46,35.52-.49,8.75.63,12,2.18,16.46a74,74,0,0,1,3.08,11.09.91.91,0,0,1-.43,1A68.64,68.64,0,0,1,99.6,291.61Z" transform="translate(0 0)"/><path class="cls-27" d="M120.66,169.24s4.22.81,4.22,2.33l-4,46.66,11.19.2s-4.78,23.12-5.48,35.66c-.78,14.24,2.59,14.18,5.28,27.79,0,0-14.37,8.8-32.28,8.8-.93,0-1.87,0-2.82-.08-20.56-1.08-29.59-8.72-29.59-8.72a53.58,53.58,0,0,0,6.28-28.52c-.58-9.16-7-34.93-7-34.93l10.57-.2-4-46.66c0-1.52,4.22-2.33,4.22-2.33l11.52,49.83h20.38l11.52-49.83m-43.42-1.88a1.39,1.39,0,0,0-.35,0c-2.15.41-5.74,1.5-5.74,4.17a.81.81,0,0,0,0,.16L75,216.4l-8.58.16a1.87,1.87,0,0,0-1.78,2.33c.06.25,6.42,25.7,7,34.59a52,52,0,0,1-6,27.43A1.86,1.86,0,0,0,66,283.3c.39.33,9.75,8.07,30.7,9.17,1,.06,1.94.08,2.92.08,18.23,0,32.66-8.71,33.26-9.08a1.87,1.87,0,0,0,.86-2,76.3,76.3,0,0,0-3.11-11.21c-1.57-4.54-2.61-7.54-2.14-16.1.68-12.27,5.39-35.16,5.44-35.39a1.87,1.87,0,0,0-1.8-2.25l-9.19-.16,3.83-44.67v-.16c0-2.67-3.59-3.76-5.73-4.17a1.47,1.47,0,0,0-.36,0,1.86,1.86,0,0,0-1.82,1.45L107.65,217.2H90.25L79.07,168.81a1.88,1.88,0,0,0-1.83-1.45Z" transform="translate(0 0)"/><path class="cls-32" d="M110.48,219.32c4.43-17.75,9.43-32.87,13.09-49.14a13.29,13.29,0,0,0-2.91-.94l-11.41,49.35C109.14,219.07,109.31,219.32,110.48,219.32Z" transform="translate(0 0)"/><path class="cls-32" d="M74.7,170c-.89.38-1.68.9-1.68,1.56l4,46.58c.56.82.95.19,1.51.75C76.53,202,76.67,186.48,74.7,170Z" transform="translate(0 0)"/><path class="cls-32" d="M126.6,254.09c.7-12.54,5.48-35.66,5.48-35.66l-8-.14c-3.14,19.62,4.8,41-4.8,56.09-9.94,14.45-30.72,8.82-48.33,9.85,4.38,2.34,12.78,5.68,25.86,6.37,19.2,1,35.1-8.72,35.1-8.72C129.19,268.27,125.82,268.33,126.6,254.09Z" transform="translate(0 0)"/><path class="cls-33" d="M100.52,298.21c-21.8,0-37.38-5.44-37.54-5.49a1,1,0,0,1-.62-.89v-15.4a.94.94,0,0,1,.37-.74.93.93,0,0,1,.57-.19,1.07,1.07,0,0,1,.25,0c.19.06,19.52,5.41,37,5.41,22.47,0,36.75-5.33,36.89-5.38a1,1,0,0,1,.33-.06.92.92,0,0,1,.94.93v15.4a.94.94,0,0,1-.63.89A127.43,127.43,0,0,1,100.52,298.21Z" transform="translate(0 0)"/><path class="cls-13" d="M137.74,276.43v15.4a124.69,124.69,0,0,1-37.22,5.45c-21.89,0-37.22-5.45-37.22-5.45v-15.4s19.43,5.45,37.22,5.45c22.93,0,37.22-5.45,37.22-5.45m0-1.87a1.88,1.88,0,0,0-.66.12h0c-.14.06-14.29,5.32-36.56,5.32-17.33,0-36.53-5.32-36.72-5.37a1.68,1.68,0,0,0-.5-.07,1.83,1.83,0,0,0-1.13.38,1.89,1.89,0,0,0-.75,1.49v15.4a1.88,1.88,0,0,0,1.25,1.77c.64.23,15.89,5.55,37.85,5.55,21.61,0,37.19-5.32,37.84-5.55a1.88,1.88,0,0,0,1.26-1.77v-15.4a1.9,1.9,0,0,0-.81-1.54,1.88,1.88,0,0,0-1.07-.33Z" transform="translate(0 0)"/><rect class="cls-17" x="115.42" y="282.37" width="3.06" height="22.45" transform="translate(-25.98 11.73) rotate(-5.17)"/><path class="cls-13" d="M116.6,283.3l1.87,20.49-1.18.1-1.87-20.49,1.18-.1m1.69-2-1.86.17-1.18.11-1.86.17.17,1.86,1.87,20.5.17,1.86,1.86-.17,1.18-.11,1.87-.16-.17-1.87-1.88-20.49-.17-1.87Z" transform="translate(0 0)"/><g class="cls-34"><rect class="cls-15" x="116.78" y="287.14" width="0.36" height="17.08" transform="matrix(1, -0.09, 0.09, 1, -26.57, 11.94)"/></g><polygon class="cls-17" points="115.58 304.92 116.74 303 118.86 302.81 120.35 304.49 120.35 309.11 116.41 309.47 115.58 304.92"/><path class="cls-13" d="M118.47,303.79l.94,1v3.42l-2.23.2-.62-3.36.73-1.21,1.18-.1m.77-2-.94.08-1.17.11-.95.08-.49.81-.73,1.21-.37.61.13.7.62,3.36.31,1.68,1.7-.15,2.23-.21,1.7-.15v-5.84l-.48-.54-.94-1-.63-.7Z" transform="translate(0 0)"/><g class="cls-35"><polygon class="cls-12" points="119.28 308.27 117.31 308.45 116.73 305.11 117.42 304.08 118.38 303.99 119.25 304.88 119.28 308.27"/></g><path class="cls-36" d="M114.34,288.28a1.75,1.75,0,0,1-1.37-.65,1.38,1.38,0,0,1-.25-1.17,2.72,2.72,0,0,1,.44-.82,1.66,1.66,0,0,0,.19-.3h0a.24.24,0,0,1,0-.07,4.62,4.62,0,0,0-.4-.27l-.42-.24-1.7-18.63a2.54,2.54,0,0,1,.5-2,3.94,3.94,0,0,1,2.83-1.2l.67,0c1.93,0,3.06.9,3.19,2.54l1.69,18.48-.29.31a4.6,4.6,0,0,0-.4.47.94.94,0,0,0,0,.2,1.42,1.42,0,0,1,.2.19,2.87,2.87,0,0,1,.58.72,1.34,1.34,0,0,1-.07,1.26,1.74,1.74,0,0,1-1.35.85l-4,.36Z" transform="translate(0 0)"/><path class="cls-13" d="M114.81,263.83c2.21,0,2.23,1.37,2.26,1.73l1.65,18a4.12,4.12,0,0,0-.64.84,1.72,1.72,0,0,0,.08.81c.12.29.66.69.8,1s-.25.74-.64.77l-3.92.36h-.06c-.38,0-.8-.28-.71-.64s.55-.79.61-1.1a1.49,1.49,0,0,0-.07-.81,3.27,3.27,0,0,0-.77-.59L111.74,266c0-.38-.35-1.92,2.49-2.18l.58,0m0-1.87h0a6.8,6.8,0,0,0-.76,0,4.84,4.84,0,0,0-3.47,1.54,3.47,3.47,0,0,0-.71,2.65l1.67,18.18.08.95.46.27a2.53,2.53,0,0,0-.26.63,2.28,2.28,0,0,0,.41,2,2.69,2.69,0,0,0,2.11,1h.22l3.93-.36a2.69,2.69,0,0,0,2.07-1.31,2.27,2.27,0,0,0,.09-2.13,2.48,2.48,0,0,0-.45-.66l.46-.49-.08-.84-1.64-18c-.17-2.16-1.71-3.43-4.13-3.43Z" transform="translate(0 0)"/><g class="cls-35"><path class="cls-36" d="M119,286.21c-.14-.28-.68-.68-.8-1a1.72,1.72,0,0,1-.08-.81,4.12,4.12,0,0,1,.64-.84l-1.65-18c0-.39,0-2-2.84-1.7a3.7,3.7,0,0,0-.51.07c2.29,0,2.31,1.36,2.34,1.72l1.65,18s-1.1.64-1.17.89a1.6,1.6,0,0,0,.07.81c.12.3,1.2.64,1.34.93s-.25.73-.64.77l1-.1C118.71,287,119.13,286.57,119,286.21Z" transform="translate(0 0)"/></g><g class="cls-16"><path class="cls-31" d="M115.56,282.71c0,.2-.24.38-.59.42h0c-.34,0-.64-.11-.65-.31l-1.56-17.05c0-.2.24-.39.59-.42h0c.34,0,.64.11.65.3Z" transform="translate(0 0)"/></g><g class="cls-16"><path class="cls-31" d="M117.58,282.53c0,.19-.25.38-.59.41h0c-.34,0-.64-.1-.66-.3l-1.56-17.06c0-.19.25-.38.6-.41h0c.34,0,.63.1.65.3Z" transform="translate(0 0)"/></g><g class="cls-6"><path class="cls-37" d="M113.94,283.24a.18.18,0,0,1-.16.19h0a.17.17,0,0,1-.18-.16L112,265.93a.18.18,0,0,1,.16-.18h0a.17.17,0,0,1,.18.16Z" transform="translate(0 0)"/></g><g class="cls-6"><path class="cls-37" d="M116.42,286.62a.2.2,0,0,1-.18.22l-2.06.18a.2.2,0,0,1-.22-.18h0a.2.2,0,0,1,.18-.22l2.06-.19a.2.2,0,0,1,.22.19Z" transform="translate(0 0)"/></g><rect class="cls-27" x="111.2" y="284.32" width="11.42" height="8.56" transform="translate(-29.58 13.83) rotate(-6.01)"/><path class="cls-13" d="M111.68,294.39a.94.94,0,0,1-.93-.84l-.9-8.51a.94.94,0,0,1,.84-1l11.36-1.2a.94.94,0,0,1,1,.84l.9,8.51a1,1,0,0,1-.21.69.94.94,0,0,1-.63.34l-11.36,1.2Zm.14-8.62.7,6.65,9.5-1-.71-6.65Z" transform="translate(0 0)"/><rect class="cls-33" x="75.51" y="224.58" width="46.91" height="21.83" rx="0.94"/><path class="cls-13" d="M121.49,225.52v20h-45v-20h45m0-1.87h-45a1.88,1.88,0,0,0-1.88,1.87v20a1.88,1.88,0,0,0,1.88,1.87h45a1.87,1.87,0,0,0,1.87-1.87v-20a1.87,1.87,0,0,0-1.87-1.87Z" transform="translate(0 0)"/><line class="cls-38" x1="117.43" y1="228.65" x2="80.5" y2="228.65"/><path class="cls-13" d="M117.43,229.59H80.5a.94.94,0,1,1,0-1.87h36.93a.94.94,0,1,1,0,1.87Z" transform="translate(0 0)"/><path class="cls-24" d="M171.57,228.46c4.14,6.25,4.48,9.92,2.72,13.21-19.71,25.26-34.92,36.47-34.92,36.47L135.12,271a320.87,320.87,0,0,0,22.39-37.39" transform="translate(0 0)"/><path class="cls-13" d="M139.37,279.08l-.19,0a1,1,0,0,1-.62-.44l-4.25-7.19a.93.93,0,0,1,.05-1,324.65,324.65,0,0,0,22.31-37.27.94.94,0,0,1,1.68.84,326,326,0,0,1-22.12,37l3.4,5.75c3.42-2.7,17.06-14.07,33.87-35.6,1.23-2.35,1.73-5.47-2.71-12.18a.92.92,0,0,1,.26-1.29.93.93,0,0,1,1.3.26c4.07,6.14,4.87,10.24,2.76,14.17a.38.38,0,0,1-.09.13c-19.55,25.07-34.94,36.54-35.1,36.65A.94.94,0,0,1,139.37,279.08Z" transform="translate(0 0)"/><path class="cls-23" d="M125.24,285.54c-4,0-7-1.55-7.72-4-.38-1.28-.28-3.25,2.32-5.27a22.28,22.28,0,0,1,7.18-3.35l.09,0a2.69,2.69,0,0,1-1.56-1.62,2.31,2.31,0,0,1,.14-2.18,2.66,2.66,0,0,1,2.32-.92,22.92,22.92,0,0,1,6.58,1.6c.95-2.29,1.93-3.45,2.93-3.45a1.43,1.43,0,0,1,.5.09c2.21.9,6.08,8,6.12,8.1.86,1.58-1.16,2.74-2.63,3.59a9.06,9.06,0,0,0-1.34.85c-.86,3.19-5.34,4.52-9.67,5.81A18.75,18.75,0,0,1,125.24,285.54Z" transform="translate(0 0)"/><path class="cls-13" d="M137.52,267.22l.15,0c1.4.57,4.31,5.2,5.64,7.67.71,1.31-3.79,2.74-4,3.66-.66,2.77-4.93,4-9.11,5.27a17.45,17.45,0,0,1-4.94.75c-3.47,0-6.19-1.22-6.82-3.36-.91-3.1,3.28-5.81,8.87-7.46a15.1,15.1,0,0,0,3.32-1.5l-1,0c-1.17,0-2.71-.07-3.18-1.37s.3-1.85,1.58-1.85c2.57,0,7.11,1.88,7.11,1.88s1.37-3.74,2.4-3.74m0-1.87c-.56,0-1.91,0-3.43,3.21A21.3,21.3,0,0,0,128,267.2a3.55,3.55,0,0,0-3.09,1.32,3.21,3.21,0,0,0-.25,3,3.63,3.63,0,0,0,.49.94,20.82,20.82,0,0,0-5.89,3c-3.19,2.47-3,5-2.64,6.28.85,2.9,4.15,4.7,8.61,4.7a19.21,19.21,0,0,0,5.47-.82l.06,0c4.44-1.32,9-2.69,10.21-6.15.26-.18.69-.42,1-.6,1.5-.86,4.28-2.47,3-4.85-.67-1.25-4.17-7.53-6.59-8.51a2.3,2.3,0,0,0-.85-.17Z" transform="translate(0 0)"/><rect class="cls-4" x="137.63" y="205.32" width="25.78" height="11.02" transform="translate(-94.38 126.39) rotate(-35.45)"/><path class="cls-13" d="M157.61,200.17l5.3,7.45-19.47,13.87L138.13,214l19.48-13.87m.44-2.61-1.53,1.08L137,212.51l-1.52,1.09,1.09,1.52,5.3,7.46L143,224.1l1.53-1.08L164,209.15l1.53-1.09-1.09-1.53-5.31-7.45-1.08-1.52Z" transform="translate(0 0)"/><g class="cls-26"><polygon class="cls-17" points="143.94 209.81 141.91 211.44 138.13 214.04 143.44 221.49 149.2 217.2 143.94 209.81"/></g><path class="cls-24" d="M29.18,228.46c-4.14,6.25-4.47,9.92-2.71,13.21,19.7,25.26,34.92,36.47,34.92,36.47L65.63,271a320.87,320.87,0,0,1-22.39-37.39" transform="translate(0 0)"/><path class="cls-13" d="M61.39,279.08a1,1,0,0,1-.56-.19c-.15-.11-15.54-11.58-35.1-36.65a.6.6,0,0,1-.09-.13c-2.1-3.93-1.3-8,2.76-14.17a.93.93,0,0,1,1.3-.26A.92.92,0,0,1,30,229c-4.44,6.71-3.94,9.83-2.71,12.18,16.81,21.53,30.46,32.9,33.87,35.6l3.4-5.75a324.9,324.9,0,0,1-22.11-37,.93.93,0,0,1,1.67-.84,323.62,323.62,0,0,0,22.31,37.27.93.93,0,0,1,0,1l-4.25,7.19a1,1,0,0,1-.62.44Z" transform="translate(0 0)"/><path class="cls-23" d="M75.52,285.54a18.83,18.83,0,0,1-5.21-.79c-4.38-1.3-8.86-2.64-9.73-5.83a9.44,9.44,0,0,0-1.33-.85c-1.48-.85-3.49-2-2.64-3.6,0-.07,3.92-7.19,6.12-8.09a1.48,1.48,0,0,1,.51-.09c1,0,2,1.16,2.92,3.45a22.91,22.91,0,0,1,6.59-1.6,2.65,2.65,0,0,1,2.31.92,2.28,2.28,0,0,1,.14,2.18,2.67,2.67,0,0,1-1.56,1.62l.09,0c7,2.08,10.5,5.23,9.5,8.62-.73,2.49-3.69,4-7.71,4Z" transform="translate(0 0)"/><path class="cls-13" d="M63.24,267.22c1,0,2.39,3.74,2.39,3.74s4.54-1.88,7.12-1.88c1.27,0,2.06.46,1.57,1.85s-2,1.36-3.18,1.37l-1,0a15.31,15.31,0,0,0,3.32,1.5c5.59,1.65,9.79,4.36,8.87,7.46-.63,2.14-3.35,3.36-6.81,3.36a17.57,17.57,0,0,1-5-.75c-4.18-1.24-8.44-2.5-9.11-5.27-.23-.92-4.73-2.35-4-3.66,1.34-2.47,4.24-7.1,5.64-7.67a.41.41,0,0,1,.16,0m0-1.87a2.42,2.42,0,0,0-.85.16c-2.43,1-5.92,7.27-6.6,8.52-1.29,2.38,1.49,4,3,4.85.31.18.74.42,1,.6,1.18,3.46,5.77,4.83,10.22,6.15l.05,0a19.22,19.22,0,0,0,5.48.82c4.45,0,7.75-1.8,8.61-4.7.52-1.78.66-6.1-8.53-9.27a4,4,0,0,0,.48-.94,3.18,3.18,0,0,0-.25-3,3.54,3.54,0,0,0-3.08-1.32,21.29,21.29,0,0,0-6.09,1.36c-1.52-3.21-2.87-3.21-3.42-3.21Z" transform="translate(0 0)"/><path class="cls-27" d="M194.35,396.85c6.32-61.05,11.36-117.93,11.36-117.93l-43,11.23s-.76,54.68-1.2,106.7Z" transform="translate(0 0)"/><path class="cls-13" d="M162.43,396.85c.4-48.63,1.1-99.6,1.18-106l41.12-10.75c-.77,8.65-5.5,61.05-11.26,116.77h1.76c6.25-60.48,11.27-117,11.35-117.85a.89.89,0,0,0-.31-.75.87.87,0,0,0-.78-.17l-43,11.23a.86.86,0,0,0-.65.83c-.06,4-.79,56.6-1.21,106.71Z" transform="translate(0 0)"/><path class="cls-27" d="M241.35,396.85c-.29-54.43-.93-112.77-.93-112.77L198,276.8s4.62,58.16,10.65,120.05Z" transform="translate(0 0)"/><path class="cls-27" d="M209.53,396.85c-5.53-56.8-9.9-110.62-10.57-119l40.6,7c.07,6.93.64,61.2.92,112h1.75c-.28-52.46-.89-108.57-.93-112.78a.88.88,0,0,0-.73-.85l-42.42-7.28a.87.87,0,0,0-1,.93c.07.87,4.67,58.66,10.65,120Z" transform="translate(0 0)"/><path class="cls-5" d="M166.12,269.58l-8.4-120.93c0-2,2.57-4.2,8.58-7.49,5.59-3.07,23.69-8,24.46-8.24l.11,0h20l.12,0c.82.23,20.36,5.7,26.81,8.19,5.41,2.09,8.27,5.19,8.27,9l-8.22,119.49Z" transform="translate(0 0)"/><path class="cls-13" d="M210.75,133.76s20.25,5.66,26.74,8.17c3.94,1.52,7.71,4.1,7.71,8.16L237,268.7h-70.1l-8.35-120.12c0-1.9,4.44-4.63,8.13-6.65,5.56-3.06,24.27-8.17,24.27-8.17h19.76M211,132H190.75l-.22.06c-.78.21-19,5.2-24.65,8.31-6.42,3.52-9,5.89-9,8.19v.13l8.35,120.11.11,1.63h73.36l.11-1.63,8.16-118.61v-.12c0-4.18-3.06-7.57-8.83-9.79-6.5-2.51-26.07-8-26.9-8.22L211,132Z" transform="translate(0 0)"/><path class="cls-28" d="M200.68,150.39c-4.12-.24-10.61-13.58-11.87-16.25l-.09-.21,2-26.68,17.44-.17,2.14,26.56,0,.14a71.18,71.18,0,0,1-2.56,8.08c-2.23,5.75-4.47,8.54-6.83,8.54Z" transform="translate(0 0)"/><path class="cls-13" d="M207.34,108l2.06,25.61s-3.87,16-8.54,16h-.13c-3.8-.23-11.13-15.76-11.13-15.76l1.91-25.64,15.83-.16m1.61-1.77-1.63,0-15.83.16-1.6,0-.12,1.6-1.91,25.64,0,.46.19.42c.08.16,1.9,4,4.22,7.93,4.5,7.65,6.85,8.73,8.39,8.82h.23c2.8,0,5.24-2.89,7.65-9.09a72.58,72.58,0,0,0,2.58-8.2l.07-.27,0-.28-2.06-25.61-.13-1.63Z" transform="translate(0 0)"/><path class="cls-24" d="M207.66,131.81a25.53,25.53,0,0,1-25.53-23.32l-2.3-25.09A25.66,25.66,0,0,1,203,55.51a23.69,23.69,0,0,1,2.38-.11,25.52,25.52,0,0,1,25.52,23.32l2.3,25.08A25.69,25.69,0,0,1,210,131.7c-.79.07-1.59.11-2.37.11Z" transform="translate(0 0)"/><path class="cls-13" d="M205.42,56.27A24.79,24.79,0,0,1,230.07,78.8l2.3,25.08a24.79,24.79,0,0,1-22.42,27c-.77.07-1.54.11-2.29.11A24.8,24.8,0,0,1,183,108.41l-2.3-25.09a24.78,24.78,0,0,1,22.42-26.94,22.26,22.26,0,0,1,2.3-.11m0-1.75q-1.23,0-2.46.12a26.54,26.54,0,0,0-24,28.84l2.3,25.09a26.54,26.54,0,0,0,26.4,24.11c.81,0,1.64,0,2.45-.11a26.57,26.57,0,0,0,24-28.85l-2.3-25.08a26.54,26.54,0,0,0-26.39-24.12Z" transform="translate(0 0)"/><path class="cls-28" d="M203.12,56.38a23.3,23.3,0,0,1,3.44-.05c1.65,13.6-2.13,28.25-9.93,41.35-6.65,9.84.1,24.91,11.9,33.21A24.78,24.78,0,0,1,183,108.41l-2.3-25.09A24.78,24.78,0,0,1,203.12,56.38Z" transform="translate(0 0)"/><path class="cls-39" d="M178.54,100.38a.88.88,0,0,1-.42-.11.9.9,0,0,1-.44-.58C177.54,99,174.12,83.62,175,77c2-15.6,13.59-26.5,28.1-26.5h.49c9.35.16,13.09.66,17.94,1.72a.83.83,0,0,1,.43.23c5.46,5.45,8.19,14.08,7.3,23.08a.86.86,0,0,1-.62.75,45.71,45.71,0,0,1-12.76,1.54h0A113.69,113.69,0,0,1,201,76.66l-1.43-.18c-5.92,18.12-20.15,23.61-20.76,23.84A.8.8,0,0,1,178.54,100.38Z" transform="translate(0 0)"/><path class="cls-13" d="M203.09,51.36h.48c8.88.16,12.73.6,17.76,1.7,5.53,5.51,7.88,14,7,22.38a45.6,45.6,0,0,1-12.51,1.5c-8.21,0-15.74-1.38-16.78-1.38-.07,0-.12,0-.12,0C193.24,94,178.54,99.5,178.54,99.5S175,83.65,175.85,77.09c2.06-15.76,13.61-25.73,27.24-25.73m0-1.75c-15,0-26.88,11.21-29,27.26-.88,6.78,2.56,22.35,2.71,23a1.75,1.75,0,0,0,.87,1.16,1.77,1.77,0,0,0,.84.21,1.87,1.87,0,0,0,.61-.11c.61-.23,14.87-5.73,21-23.71l.72.09a113,113,0,0,0,15,1.16,46.76,46.76,0,0,0,13-1.57,1.74,1.74,0,0,0,1.24-1.5c.92-9.26-1.91-18.15-7.55-23.79a1.82,1.82,0,0,0-.86-.47c-5.51-1.2-9.57-1.58-18.11-1.73Z" transform="translate(0 0)"/><path class="cls-28" d="M186.37,105a6.52,6.52,0,0,1-3.26,1.42,6.41,6.41,0,0,1-7.21-5.53,6.52,6.52,0,0,1,5.59-7.23,6.42,6.42,0,0,1,5.5,1.91" transform="translate(0 0)"/><path class="cls-13" d="M186.37,105l-.24.23a5,5,0,0,1-.74.62,6.89,6.89,0,0,1-1.37.72c-.3.08-.55.18-1,.27l-1,.11a6.23,6.23,0,0,1-2.45-.37,4.72,4.72,0,0,1-1.23-.57,5.18,5.18,0,0,1-1.15-.85,6.82,6.82,0,0,1-1.72-2.47,9.34,9.34,0,0,1-.42-1.51l0-.1V101s0,.08,0-.1h0v-.52l0-.7a13.47,13.47,0,0,1,.3-1.64,10.12,10.12,0,0,1,.62-1.43,7.09,7.09,0,0,1,2-2.24,5.15,5.15,0,0,1,1.24-.71,4.93,4.93,0,0,1,1.3-.42,7.06,7.06,0,0,1,1.27-.18c.19,0,.37,0,.56,0l.6.07a6.25,6.25,0,0,1,3.22,1.47,4,4,0,0,1,.66.7l.22.27-.28-.2a5.72,5.72,0,0,0-.8-.48,6.69,6.69,0,0,0-1.32-.53,6.46,6.46,0,0,0-1.76-.23l-.47,0c-.17,0-.36,0-.55.07a9,9,0,0,0-1,.27,3.93,3.93,0,0,0-1,.46,4.06,4.06,0,0,0-.93.64,6.23,6.23,0,0,0-1.47,1.82,11,11,0,0,0-.46,1.12c-.07.38-.13.71-.19,1.11v1.22h0c0-.17,0,0,0-.08v.06l0,.07a7.57,7.57,0,0,0,.29,1.16,6,6,0,0,0,1.23,2,4.56,4.56,0,0,0,.85.74,3.53,3.53,0,0,0,.94.57,4,4,0,0,0,1,.37,3.72,3.72,0,0,0,1,.2l1,0c.22,0,.56,0,.81-.08a7.1,7.1,0,0,0,1.36-.37,5.55,5.55,0,0,0,.86-.4Z" transform="translate(0 0)"/><path class="cls-29" d="M216.34,115.48a14.27,14.27,0,0,1-5.49-1.07.65.65,0,0,1,.5-1.2c6.52,2.69,13.09-1.18,13.15-1.22a.65.65,0,0,1,.9.22.66.66,0,0,1-.22.9A18.71,18.71,0,0,1,216.34,115.48Z" transform="translate(0 0)"/><path class="cls-29" d="M217.93,106.27l-.71,0a.65.65,0,0,1-.6-.7.68.68,0,0,1,.7-.6c1.34.11,2.22-.1,2.47-.59.51-1-.86-3.21-1.61-4.14a.65.65,0,0,1,1-.82c.29.37,2.79,3.6,1.75,5.57C220.48,105.83,219.47,106.27,217.93,106.27Z" transform="translate(0 0)"/><path class="cls-4" d="M218.61,94.43a33.32,33.32,0,0,1-14-3.09,47.41,47.41,0,0,1-5.29-3.09c-3.22-2.06-6.87-4.4-10.86-5.6-1.86-.57-1.9-1.72-1.83-2.19.45-3,9.77-6.62,14.27-6.62,2.52,0,3.47,1,3.81,1.87l30.42,1.41a.91.91,0,0,1,.52.2s2.43,1.94,9.13,3.37c1.43.31,2.19.91,2.27,1.8.05.6.22,2.45-8.35,6A37.79,37.79,0,0,1,218.61,94.43Z" transform="translate(0 0)"/><path class="cls-13" d="M200.89,74.72c1.77,0,3,.52,3.1,1.83L235.08,78s2.43,2,9.51,3.55c4.27.92-.87,3.92-6.33,6.15h0a37.08,37.08,0,0,1-19.65,5.87,32.39,32.39,0,0,1-13.64-3c-4.19-1.92-9.75-6.77-16.26-8.74-5-1.51,6.4-7.09,12.18-7.09m37.37,13h0M200.9,73h0c-4.38,0-14.57,3.56-15.13,7.36-.08.55-.14,2.37,2.44,3.15,3.88,1.17,7.47,3.47,10.64,5.5a47.47,47.47,0,0,0,5.4,3.16,34.17,34.17,0,0,0,14.37,3.16,38.8,38.8,0,0,0,20.49-6.07c9.08-3.74,8.9-5.82,8.81-6.82s-.66-2.08-2.95-2.57c-6.43-1.37-8.76-3.18-8.78-3.2a1.77,1.77,0,0,0-1-.39l-29.93-1.39c-.57-.94-1.78-1.89-4.33-1.89Z" transform="translate(0 0)"/><g class="cls-16"><path class="cls-30" d="M238.26,87.69s-15.54,11-33.29,2.86c-4.19-1.92-9.75-6.77-16.26-8.74S203.6,70.92,204,76.55C205,90.55,238.26,87.69,238.26,87.69Z" transform="translate(0 0)"/></g><path class="cls-4" d="M173.73,94.34a1,1,0,0,1-.33-.06.84.84,0,0,1-.53-.65l-.05-.24c-.07-.36-.13-.71-.19-1.07C169,70.26,180.46,49.91,198.09,47a34.8,34.8,0,0,1,5.73-.48c16.42,0,29,11.9,32,30.31.06.35.1.69.15,1l0,.31a.88.88,0,0,1-.31.8c-.23.19-5.92,4.76-18,4.76-1.06,0-2.15,0-3.25-.11-1.93-.13-3.87-.19-5.77-.19a98,98,0,0,0-17.68,1.72l-1.52.27c-3.1.52-12,6.54-15.17,8.81A.83.83,0,0,1,173.73,94.34Z" transform="translate(0 0)"/><path class="cls-13" d="M203.82,47.35c15,0,28,10.33,31.11,29.58.07.44.13.88.19,1.31,0,0-5.54,4.56-17.5,4.56-1,0-2.08,0-3.19-.1q-3.08-.2-5.83-.19a105.79,105.79,0,0,0-19.35,2c-4,.67-15.52,9-15.52,9q-.14-.64-.24-1.29C170,70.56,181.05,50.7,198.23,47.82a34.38,34.38,0,0,1,5.59-.47m0-1.74a35.53,35.53,0,0,0-5.88.49c-18.1,3-29.84,23.83-26.17,46.36.06.37.12.73.19,1.09l0,.24a1.73,1.73,0,0,0,1.07,1.3,1.64,1.64,0,0,0,.65.13,1.69,1.69,0,0,0,1-.33c4.34-3.12,12.19-8.23,14.8-8.66l1.53-.27a96.72,96.72,0,0,1,17.53-1.71c1.88,0,3.81.07,5.71.19,1.12.07,2.23.11,3.31.11,12.44,0,18.36-4.76,18.61-5a1.78,1.78,0,0,0,.62-1.59l0-.3c0-.35-.09-.69-.14-1-3.08-18.87-16-31-32.84-31Z" transform="translate(0 0)"/><path class="cls-30" d="M208.8,82.52a105.25,105.25,0,0,0-19.55,2c-4,.67-15.52,9-15.52,9q-.14-.64-.24-1.29c-2.15-13.22,1.16-25.77,8-34.2C193.62,61.69,204.43,70.61,208.8,82.52Z" transform="translate(0 0)"/><path class="cls-4" d="M225.19,80.9a.88.88,0,0,1-.84-.65C220,63.5,207,51.34,193.61,51.34a22.15,22.15,0,0,0-3.72.31h-.15a.87.87,0,0,1-.46-1.61A29.57,29.57,0,0,1,205,45.51c15.68,0,29.53,12.34,32.95,29.34a2.33,2.33,0,0,1-.55,1.6,3.67,3.67,0,0,0-.3.53.91.91,0,0,1-.43.71,27.3,27.3,0,0,1-11.46,3.21Z" transform="translate(0 0)"/><path class="cls-4" d="M205,46.38c15,0,28.7,11.78,32.09,28.64.08.39-.93,1.53-.87,1.92A26.68,26.68,0,0,1,225.19,80c-4.19-16-17.05-29.57-31.58-29.57a23.16,23.16,0,0,0-3.87.33,28.86,28.86,0,0,1,9.44-3.8,28.43,28.43,0,0,1,5.85-.61m0-1.74a30.16,30.16,0,0,0-6.21.64,30.57,30.57,0,0,0-10,4,1.74,1.74,0,0,0,.92,3.22l.29,0a21.62,21.62,0,0,1,3.58-.3c6.48,0,12.86,2.87,18.45,8.3a43.45,43.45,0,0,1,11.44,20,1.75,1.75,0,0,0,1.69,1.3h.11a28.52,28.52,0,0,0,11.85-3.33,1.75,1.75,0,0,0,.82-1.2l.2-.33a3.11,3.11,0,0,0,.67-2.23c-3.5-17.41-17.72-30-33.81-30Z" transform="translate(0 0)"/><path class="cls-31" d="M225.19,80.9a.88.88,0,0,1-.84-.65C220,63.5,207,51.34,193.61,51.34a22.15,22.15,0,0,0-3.72.31h-.15a.87.87,0,0,1-.81-.57.88.88,0,0,1,.35-1.05c.77-.47,1.59-.93,2.42-1.35a.88.88,0,0,1,.35-.1c.48,0,.95,0,1.44,0,15.36,0,31.6,13.81,36.2,30.77a.88.88,0,0,1-.11.69.85.85,0,0,1-.57.4,28.46,28.46,0,0,1-3.76.49Z" transform="translate(0 0)"/><path class="cls-13" d="M193.48,49.43c15.2,0,31,13.92,35.36,30.12a27.62,27.62,0,0,1-3.65.48c-4.19-16-17.05-29.57-31.58-29.57a23.16,23.16,0,0,0-3.87.33c.76-.48,1.55-.92,2.36-1.33q.69,0,1.38,0m0-1.75c-.49,0-1,0-1.48,0a1.82,1.82,0,0,0-.69.19c-.86.43-1.7.9-2.49,1.39a1.75,1.75,0,0,0,.92,3.23l.29,0a21.62,21.62,0,0,1,3.58-.3c6.48,0,12.86,2.87,18.45,8.3a43.45,43.45,0,0,1,11.44,20,1.75,1.75,0,0,0,1.69,1.3h.11a30.06,30.06,0,0,0,3.88-.5,1.75,1.75,0,0,0,1.35-2.17c-4.69-17.33-21.31-31.42-37.05-31.42Z" transform="translate(0 0)"/><path class="cls-28" d="M216.24,118.91c0,.48,1.08.77,2.32.66s2.19-.59,2.15-1.07-1.08-.78-2.31-.67S216.2,118.43,216.24,118.91Z" transform="translate(0 0)"/><path class="cls-24" d="M259.19,175.38c-10.18,1.48-19.8,8.35-23.25,17.86,6.41,18.31,13.32,37.19,13.32,37.19s.05.86.07,1.29c11.14,5.12,14.1,12.22,18.16,1.48C272.74,219.31,264.18,194.68,259.19,175.38Z" transform="translate(0 0)"/><path class="cls-13" d="M262.8,239.68h0c-1.8,0-3.68-1.21-6.29-2.89a59.28,59.28,0,0,0-7.54-4.28l-.47-.22,0-.52c0-.33-.05-.91-.07-1.16-.6-1.66-7.2-19.74-13.27-37.08l-.1-.29.1-.3c3.42-9.43,13-16.84,23.94-18.42l.78-.11.19.75c.81,3.11,1.69,6.31,2.63,9.69,4.76,17.22,10.15,36.74,5.65,48.66C266.65,237.89,265.05,239.68,262.8,239.68Zm-12.63-8.53a62,62,0,0,1,7.29,4.18c2.26,1.45,4.06,2.6,5.34,2.6,1,0,2.19-.6,3.87-5,4.31-11.38-1-30.61-5.7-47.58-.86-3.11-1.67-6.06-2.43-8.94-9.85,1.7-18.46,8.39-21.67,16.88,6.31,18,13.14,36.69,13.21,36.88l0,.25Z" transform="translate(0 0)"/><path class="cls-28" d="M236.64,191.53c-.25.56-.49,1.13-.7,1.71,5.72,16.34,11.84,33.13,13.08,36.55.08-.29.18-.58.25-.87C253.29,213.86,249.33,198.8,236.64,191.53Z" transform="translate(0 0)"/><path class="cls-5" d="M234.09,142.32a11.82,11.82,0,0,1,10.42.37c7.07,3.57,14.17,25.53,18.81,49.16-8.67,1.5-18.43,6.53-26.42,5.65-1.35-3.84-2.83-10.39-4.12-14.12" transform="translate(0 0)"/><path class="cls-13" d="M238.82,198.48a19,19,0,0,1-2-.11l-.55-.06-.18-.52c-.7-2-1.45-4.75-2.17-7.4s-1.34-4.95-1.95-6.73a.86.86,0,0,1,.54-1.1.87.87,0,0,1,1.11.54c.63,1.83,1.29,4.26,2,6.83.65,2.39,1.31,4.86,2,6.75,4.7.35,10.19-1.35,15.5-3a93,93,0,0,1,9.25-2.53c-5.27-26.43-12.22-44.67-18.19-47.69a10.93,10.93,0,0,0-9.66-.34.87.87,0,1,1-.73-1.59,12.63,12.63,0,0,1,11.18.38c9.78,4.94,17.23,39.34,19.28,49.77l.17.88-.88.15a81.38,81.38,0,0,0-9.9,2.64C248.6,196.89,243.49,198.48,238.82,198.48Z" transform="translate(0 0)"/><path class="cls-24" d="M142.54,173.2c10.14,1.71,19.6,8.81,22.81,18.39-6.83,18.16-14.18,36.87-14.18,36.87s-.07.86-.1,1.28c-11.26,4.87-16.45,12.56-18.63,1.28C129.12,213.8,137.09,192.37,142.54,173.2Z" transform="translate(0 0)"/><path class="cls-13" d="M136.4,237.73c-3.15,0-4.23-3.49-4.81-6.54C128.74,216.44,134,199,139,182.05c.92-3.07,1.83-6.11,2.68-9.09l.21-.75.77.13c10.86,1.83,20.3,9.46,23.5,19l.1.29-.11.29C159.7,209.1,152.68,227,152,228.66c0,.26-.06.83-.09,1.16l-.05.52-.48.21a69.87,69.87,0,0,0-7.77,4.09C140.69,236.37,138.35,237.73,136.4,237.73Zm6.76-63.53c-.79,2.75-1.62,5.54-2.47,8.35-5,16.71-10.16,34-7.39,48.31.88,4.54,2.12,5.13,3.1,5.13,1.48,0,3.63-1.27,6.36-2.86a74.47,74.47,0,0,1,7.48-4l.06-.76.06-.25c.07-.19,7.34-18.71,14.06-36.57C161.41,183,153,176.13,143.16,174.2Z" transform="translate(0 0)"/><path class="cls-28" d="M151.17,228.46s7.35-18.71,14.18-36.87a25.09,25.09,0,0,0-4.95-8.48c-8.56,14-12.55,31-11.71,47.74.76-.38,1.55-.75,2.38-1.11C151.1,229.32,151.17,228.46,151.17,228.46Z" transform="translate(0 0)"/><path class="cls-5" d="M168.4,140.73a11.85,11.85,0,0,0-10.42.12c-7.16,3.41-14.76,25.2-20,48.71,8.64,1.71,18.28,7,26.28,6.27,1.44-3.81,2.5-5.53,3.87-9.22" transform="translate(0 0)"/><path class="cls-13" d="M162.84,196.77c-4.8,0-10.05-1.77-15.15-3.48a80.23,80.23,0,0,0-9.84-2.87l-.88-.18.19-.87c2.3-10.37,10.55-44.6,20.44-49.31a12.68,12.68,0,0,1,11.19-.11.87.87,0,0,1-.77,1.57,10.93,10.93,0,0,0-9.67.12c-6,2.87-13.4,20.94-19.29,47.25a93.84,93.84,0,0,1,9.19,2.74c5.27,1.78,10.71,3.61,15.43,3.37.63-1.64,1.2-2.89,1.75-4.11.63-1.41,1.22-2.74,1.91-4.59a.87.87,0,0,1,1.12-.51.88.88,0,0,1,.52,1.12c-.71,1.91-1.35,3.32-2,4.69s-1.21,2.69-1.91,4.54l-.2.52-.54,0C163.86,196.75,163.35,196.77,162.84,196.77Z" transform="translate(0 0)"/><g class="cls-40"><path class="cls-17" d="M155.85,194.15s10.18-24.67,13.72-30.22c2.51-3.94,3.26,17.13-5.43,30.87C160.57,200.45,155.85,194.15,155.85,194.15Z" transform="translate(0 0)"/></g><g class="cls-40"><path class="cls-17" d="M244.83,194.15s-10.18-24.67-13.72-30.22c-2.52-3.94-3.26,17.13,5.43,30.87C240.11,200.45,244.83,194.15,244.83,194.15Z" transform="translate(0 0)"/></g><path class="cls-27" d="M166,286.3a.86.86,0,0,1-.87-.82l-4.69-85.41a.87.87,0,0,1,.79-.92l10.6-1-5.22-57.44c0-2.53,4.83-3.6,6.32-3.87h.15a.87.87,0,0,1,.85.67l15.14,61.61h25.7l15.13-61.61a.88.88,0,0,1,.85-.67h.16c1.48.27,6.32,1.34,6.32,3.79L232,198.19l10.6,1a.88.88,0,0,1,.8.92l-4.69,85.41a.87.87,0,0,1-.87.82Z" transform="translate(0 0)"/><path class="cls-13" d="M230.73,137.74s5.61,1,5.61,2.93L231,199l11.47,1-4.68,85.41H166L161.29,200l11.47-1-5.3-58.31c0-1.91,5.6-2.93,5.6-2.93L188.36,200h27.07l15.3-62.28M173.06,136a1.63,1.63,0,0,0-.31,0c-2.63.47-7,1.71-7,4.64,0,.05,0,.1,0,.15l5.14,56.58-9.73.88a1.75,1.75,0,0,0-1.58,1.84l4.68,85.41a1.75,1.75,0,0,0,1.75,1.65h71.84a1.75,1.75,0,0,0,1.74-1.65l4.69-85.41a1.76,1.76,0,0,0-1.59-1.84l-9.73-.88,5.14-56.58a.76.76,0,0,0,0-.15c0-2.93-4.41-4.17-7-4.64a1.63,1.63,0,0,0-.31,0,1.73,1.73,0,0,0-1.69,1.33l-15,60.95H189.73l-15-60.95a1.75,1.75,0,0,0-1.7-1.33Z" transform="translate(0 0)"/><path class="cls-32" d="M233.2,199.18,231,199l4.74-52.09c-3.41,17.61-4.94,35.86-8.15,53.54C230.06,200.43,231.92,200.42,233.2,199.18Z" transform="translate(0 0)"/><path class="cls-32" d="M168.68,139.19c-.71.41-1.22.9-1.22,1.48l5.3,58.31-.56.05c1,.76,3,2.54,3,2.54S172.12,159.68,168.68,139.19Z" transform="translate(0 0)"/><g class="cls-16"><path class="cls-32" d="M239,199.7c-3.53,23.14-5.2,47.83-22.72,62.26-13.44,11.64-31.8,13.43-50.67,15.88l.42,7.59h71.84L242.5,200Z" transform="translate(0 0)"/></g><rect class="cls-33" x="176.66" y="209.55" width="50.28" height="23.25" rx="0.87"/><path class="cls-13" d="M226.07,210.43v21.5H177.54v-21.5h48.53m0-1.75H177.54a1.75,1.75,0,0,0-1.75,1.75v21.5a1.74,1.74,0,0,0,1.75,1.74h48.53a1.74,1.74,0,0,0,1.74-1.74v-21.5a1.74,1.74,0,0,0-1.74-1.75Z" transform="translate(0 0)"/><rect class="cls-32" x="181.03" y="212.93" width="41.54" height="4.31" rx="0.87"/><path class="cls-13" d="M221.7,213.8v2.56H181.91V213.8H221.7m0-1.75H181.91a1.75,1.75,0,0,0-1.75,1.75v2.56a1.75,1.75,0,0,0,1.75,1.75H221.7a1.75,1.75,0,0,0,1.75-1.75V213.8a1.76,1.76,0,0,0-1.75-1.75Z" transform="translate(0 0)"/><polyline class="cls-27" points="240.58 310.79 240.27 285.43 162.61 285.43 162.48 310.79"/><path class="cls-27" d="M240.58,311.66a.88.88,0,0,1-.88-.86l-.29-24.5H163.48l-.13,24.49a.9.9,0,0,1-.88.87.88.88,0,0,1-.87-.88l.14-25.36a.87.87,0,0,1,.87-.86h77.66a.86.86,0,0,1,.87.86l.31,25.36a.87.87,0,0,1-.86.88Z" transform="translate(0 0)"/><rect class="cls-33" x="161.1" y="274.8" width="80.19" height="18.34" rx="0.87"/><path class="cls-13" d="M240.42,275.67v16.59H162V275.67h78.45m0-1.74H162a1.74,1.74,0,0,0-1.74,1.74v16.59A1.74,1.74,0,0,0,162,294h78.45a1.75,1.75,0,0,0,1.75-1.75V275.67a1.74,1.74,0,0,0-1.75-1.74Z" transform="translate(0 0)"/><path class="cls-17" d="M214.88,302a.88.88,0,0,1-.88-.84l-1-29.36a.87.87,0,0,1,.24-.63.89.89,0,0,1,.61-.27l5.08-.17a.88.88,0,0,1,.87.85l1,29.35a.91.91,0,0,1-.23.63.84.84,0,0,1-.61.27Z" transform="translate(0 0)"/><path class="cls-13" d="M219,271.58l1,29.36-5.05.17-1-29.36,5.06-.17m0-1.74h-.06l-5.05.17a1.74,1.74,0,0,0-1.69,1.8l1,29.35a1.75,1.75,0,0,0,1.75,1.69h.05l5.06-.16a1.74,1.74,0,0,0,1.21-.56,1.69,1.69,0,0,0,.47-1.25l-1-29.35a1.74,1.74,0,0,0-1.74-1.69Z" transform="translate(0 0)"/><rect class="cls-12" x="215.3" y="271.66" width="3.24" height="29.37" transform="translate(-9.47 7.43) rotate(-1.92)"/><g class="cls-3"><polygon class="cls-15" points="215.8 301.48 215.4 301.49 214.37 270.47 214.77 270.45 215.8 301.48"/></g><path class="cls-17" d="M216.24,274.37a8.22,8.22,0,0,1-.27-16.43h.26a8.48,8.48,0,0,1,1.44.12.88.88,0,0,1,.7.65.86.86,0,0,1-.31.9l-3,2.31,1.49,4.12,4.37-.15,1-3.36a.88.88,0,0,1,.75-.63h.09a.9.9,0,0,1,.78.47,8.08,8.08,0,0,1,.92,3.52,8.22,8.22,0,0,1-7.94,8.48Z" transform="translate(0 0)"/><path class="cls-13" d="M216.23,258.8a7.83,7.83,0,0,1,1.29.11l-3.46,2.71,1.92,5.3,5.64-.19,1.14-4a7.12,7.12,0,0,1,.82,3.15,7.34,7.34,0,0,1-7.09,7.58h-.25a7.34,7.34,0,0,1-.24-14.68h.23m0-1.74H216a9.09,9.09,0,0,0,.29,18.18h.31A9.09,9.09,0,0,0,224.31,262a1.74,1.74,0,0,0-1.55-.94h-.17a1.76,1.76,0,0,0-1.51,1.26l-.79,2.75-3.1.1-1.06-2.92,2.47-1.92a1.75,1.75,0,0,0-.78-3.1,9.22,9.22,0,0,0-1.59-.13Z" transform="translate(0 0)"/><path class="cls-17" d="M216.24,274.37a8.22,8.22,0,0,1-.27-16.43h.26a8.48,8.48,0,0,1,1.44.12.88.88,0,0,1,.7.65.86.86,0,0,1-.31.9l-3,2.31,1.49,4.12,4.37-.15,1-3.36a.88.88,0,0,1,.75-.63h.09a.9.9,0,0,1,.78.47,8.08,8.08,0,0,1,.92,3.52,8.22,8.22,0,0,1-7.94,8.48Z" transform="translate(0 0)"/><path class="cls-13" d="M216.23,258.8a7.83,7.83,0,0,1,1.29.11l-3.46,2.71,1.92,5.3,5.64-.19,1.14-4a7.12,7.12,0,0,1,.82,3.15,7.34,7.34,0,0,1-7.09,7.58h-.25a7.34,7.34,0,0,1-.24-14.68h.23m0-1.74H216a9.09,9.09,0,0,0,.29,18.18h.31A9.09,9.09,0,0,0,224.31,262a1.74,1.74,0,0,0-1.55-.94h-.17a1.76,1.76,0,0,0-1.51,1.26l-.79,2.75-3.1.1-1.06-2.92,2.47-1.92a1.75,1.75,0,0,0-.78-3.1,9.22,9.22,0,0,0-1.59-.13Z" transform="translate(0 0)"/><g class="cls-16"><path class="cls-17" d="M222.76,262.76l-.16.58a7.93,7.93,0,0,1,.21,1.55A7.34,7.34,0,0,1,210,270.06a7.34,7.34,0,0,0,13.55-4.15A7.12,7.12,0,0,0,222.76,262.76Z" transform="translate(0 0)"/></g><path class="cls-17" d="M217.47,310a5.94,5.94,0,0,1-1.13-.1.87.87,0,0,1-.37-1.54l2.16-1.69-1-2.88-3.07.1-.7,2.44a.88.88,0,0,1-.76.63h-.08a.87.87,0,0,1-.78-.47,6.5,6.5,0,0,1,1-7.45,6.4,6.4,0,0,1,4.54-2.06h.22a6.52,6.52,0,0,1,.21,13Z" transform="translate(0 0)"/><path class="cls-13" d="M217.49,297.88a5.64,5.64,0,0,1,.18,11.28h-.2a5.23,5.23,0,0,1-1-.09l2.67-2.07-1.48-4.08-4.33.15-.88,3.05a5.43,5.43,0,0,1-.63-2.41,5.63,5.63,0,0,1,5.45-5.83h.19m0-1.75h-.25a7.39,7.39,0,0,0-6.31,10.8,1.74,1.74,0,0,0,1.55.94h.17a1.73,1.73,0,0,0,1.5-1.26l.53-1.83,1.8-.06.62,1.69-1.67,1.3a1.75,1.75,0,0,0,.75,3.09,6.73,6.73,0,0,0,1.29.12h.26a7.39,7.39,0,0,0-.24-14.77Z" transform="translate(0 0)"/><g class="cls-16"><path class="cls-17" d="M219.76,298.35a5.65,5.65,0,0,1-2.39,10l-.87.67a5,5,0,0,0,1.17.09,5.65,5.65,0,0,0,2.09-10.81Z" transform="translate(0 0)"/></g><g class="cls-3"><path class="cls-15" d="M209.69,265.38a6.06,6.06,0,0,0,3.08,6.15,10.45,10.45,0,0,1-1.51-5.34,14.2,14.2,0,0,1,1.13-5.44A6.18,6.18,0,0,0,209.69,265.38Z" transform="translate(0 0)"/></g><g class="cls-3"><path class="cls-15" d="M216.86,298.5c1.68-.32,2.29.56,2.29.56a9.6,9.6,0,0,0-3.47.7,10.66,10.66,0,0,0-3.16,2.61,7.27,7.27,0,0,1,1.25-2.29A6.07,6.07,0,0,1,216.86,298.5Z" transform="translate(0 0)"/></g><path class="cls-23" d="M220.81,237.29a6.77,6.77,0,0,1-4.26-1.29h0s-.15,0-.37,0a17.29,17.29,0,0,0-2.24.25,21.11,21.11,0,0,1-3,.32c-2.06,0-2.64-.9-2.77-1.65,0-.12-2-11.88-.36-14.76a1.67,1.67,0,0,1,1.57-.8c1.51,0,4,1.28,5.27,2,1.55-2.65,5.78-9.33,8.85-9.33.78,0,1.84.38,2.45,2.18a4,4,0,0,1-1.24,4.17,15.94,15.94,0,0,0,1.72-.59,32.56,32.56,0,0,1,11.45-2.7c4.53,0,6.29,2,7,3.69,2,5-3.21,11.6-11.85,15.07-4.27,1.71-8.65,3.46-12.14,3.46Z" transform="translate(0 0)"/><path class="cls-13" d="M223.46,212.89c.68,0,1.25.46,1.63,1.58.65,1.95-1.1,3.45-2.47,4.54-.43.34-.81.63-1.19.9a22.81,22.81,0,0,0,5.28-1.33A31.83,31.83,0,0,1,237.84,216c3,0,5.27.94,6.15,3.14,1.78,4.45-3.32,10.7-11.37,13.93-4.21,1.69-8.48,3.4-11.81,3.4a5.88,5.88,0,0,1-3.73-1.12,1.53,1.53,0,0,0-.9-.19c-1.33,0-3.63.56-5.28.56-1,0-1.79-.21-1.91-.92-.72-4.12-1.58-12.21-.46-14.18a.86.86,0,0,1,.81-.36c1.8,0,5.59,2.33,5.59,2.33s5.42-9.65,8.53-9.65m0-1.75h0c-3.22,0-7,5.48-9.17,9a12.55,12.55,0,0,0-4.95-1.7A2.53,2.53,0,0,0,207,219.7c-1.82,3.2.17,14.86.26,15.35.15.88.83,2.37,3.63,2.37a23.81,23.81,0,0,0,3.17-.32,17.21,17.21,0,0,1,2.11-.24h.07a7.74,7.74,0,0,0,4.56,1.3c3.66,0,8.12-1.78,12.43-3.51,9.13-3.66,14.55-10.78,12.37-16.21-.77-1.93-2.75-4.24-7.77-4.24a32.31,32.31,0,0,0-11.09,2.49,4.2,4.2,0,0,0,0-2.78c-.81-2.41-2.41-2.77-3.28-2.77Z" transform="translate(0 0)"/><path class="cls-23" d="M157.73,248.64a5.72,5.72,0,0,1-4.8-2.18c-1.66-2.16-1.74-5.28-.22-8.79a25,25,0,0,1,7.72-9.38c4.58-3.52,9.28-7.13,13.31-7.13a6,6,0,0,1,2.29.44,12.53,12.53,0,0,0,2.53-1,12.12,12.12,0,0,1,4.24-1.36,1.9,1.9,0,0,1,1.85,1.05c0,.11,5.31,11.2,4.5,14.5-.23.9-1.11,1.36-2.62,1.36a21.22,21.22,0,0,1-4.49-.68c-.93,3.64-3.4,11.78-6.74,11.78a3,3,0,0,1-2.39-1.54,4.15,4.15,0,0,1,.1-4.53,18.57,18.57,0,0,0-1.62,1.1c-5.29,4.08-10.14,6.32-13.66,6.32Z" transform="translate(0 0)"/><path class="cls-13" d="M182.8,220.15a1.06,1.06,0,0,1,1.06.56c1.87,3.88,5,11.65,4.44,13.91-.13.52-.85.7-1.77.7a24,24,0,0,1-5.12-.87s-2.87,12-6.11,12c-.55,0-1.11-.35-1.67-1.17-1.2-1.74.11-3.71,1.16-5.18.33-.45.63-.84.93-1.21a22.85,22.85,0,0,0-4.86,2.77c-4.78,3.68-9.58,6.14-13.13,6.14a4.89,4.89,0,0,1-4.11-1.85c-3-3.91.28-11.5,7.34-16.94,4.49-3.45,9-6.95,12.78-6.95a5.25,5.25,0,0,1,2,.37.65.65,0,0,0,.29,0c1.39,0,4.93-2.3,6.81-2.3m0-1.75h0a12.55,12.55,0,0,0-4.6,1.44,17.53,17.53,0,0,1-2.11.85,6.83,6.83,0,0,0-2.35-.4c-4.32,0-9.15,3.7-13.81,7.28a25.77,25.77,0,0,0-8,9.76c-1.65,3.81-1.53,7.24.33,9.66a6.63,6.63,0,0,0,5.49,2.52c4.54,0,9.85-3.23,13.68-6.1a4.25,4.25,0,0,0,.78,2.83,3.78,3.78,0,0,0,3.11,1.93c3.59,0,6-6.65,7.38-11.62a19.31,19.31,0,0,0,3.85.51c2.44,0,3.23-1.09,3.46-2,.91-3.67-4.33-14.63-4.56-15.09a2.77,2.77,0,0,0-2.63-1.56Z" transform="translate(0 0)"/><rect class="cls-27" x="210.63" y="278.32" width="12.31" height="11.84"/><path class="cls-13" d="M222.94,291H210.63a.87.87,0,0,1-.87-.87V278.32a.87.87,0,0,1,.87-.88h12.31a.87.87,0,0,1,.87.88v11.83A.87.87,0,0,1,222.94,291Zm-11.44-1.74h10.57V279.19H211.5Z" transform="translate(0 0)"/><rect class="cls-4" x="143.72" y="179.12" width="13.08" height="31.36" transform="translate(-77.16 288.64) rotate(-74.78)"/><path class="cls-13" d="M137.45,185.44,166,193.22l-3,10.93-28.58-7.77,3-10.94m-1.22-2.14-.46,1.69-3,10.93-.45,1.69,1.68.45,28.58,7.78,1.68.45.46-1.68,3-10.93.45-1.69-1.68-.46-28.58-7.77-1.68-.46Z" transform="translate(0 0)"/><g class="cls-40"><polygon class="cls-17" points="156.87 190.72 153.65 201.59 163.06 204.15 166.03 193.22 156.87 190.72"/></g><rect class="cls-4" x="235.28" y="190.26" width="31.36" height="13.08" transform="translate(-39.87 65.92) rotate(-13.87)"/><path class="cls-13" d="M264,187.75l2.72,11L238,205.85l-2.72-11,28.75-7.1m1.27-2.11-1.69.42-28.75,7.1-1.69.41.42,1.7,2.71,11,.42,1.69,1.7-.41,28.75-7.11,1.69-.42-.42-1.69-2.72-11-.42-1.69Z" transform="translate(0 0)"/><g class="cls-40"><polygon class="cls-17" points="246.08 203.69 243.4 192.83 235.23 194.85 237.95 205.85 266.7 198.75 266.66 198.6 246.08 203.69"/></g><path class="cls-24" d="M133,233.2c3.53,9.83,7.52,9.29,12.66,10.06,45.83,2,68.18-8.21,68.18-8.21L211,223.88a447.34,447.34,0,0,1-60.45-6.12" transform="translate(0 0)"/><path class="cls-13" d="M157.08,244.38q-5.47,0-11.48-.25l-1.58-.21c-4.56-.57-8.5-1.07-11.87-10.42a.88.88,0,1,1,1.65-.59c3,8.34,6.12,8.74,10.44,9.28l1.53.21c40.68,1.74,63-6.25,67-7.86l-2.45-9.8a453.84,453.84,0,0,1-59.92-6.12.87.87,0,0,1-.71-1,.88.88,0,0,1,1-.7A449.49,449.49,0,0,0,211,223a.89.89,0,0,1,.83.66l2.8,11.17a.88.88,0,0,1-.48,1C214,235.94,195,244.38,157.08,244.38Z" transform="translate(0 0)"/><path class="cls-24" d="M267.49,233.2C264,243,260,242.49,254.82,243.26c-44.66-1-82-22.08-82-22.08a34.54,34.54,0,0,1,16.77-4c8.86.39,8.2,1.72,16.94,2.16,11.43.57,25.86,1.49,43.35-1.62" transform="translate(0 0)"/><path class="cls-13" d="M254.82,244.13h0c-44.38-1-82-22-82.41-22.19a.88.88,0,0,1,0-1.52,35.2,35.2,0,0,1,17.24-4.07,45,45,0,0,1,8.73,1.09,43.64,43.64,0,0,0,8.21,1.06l1.62.09c11.12.56,25,1.26,41.54-1.68a.87.87,0,1,1,.31,1.71c-16.77,3-30.72,2.28-41.93,1.71l-1.63-.08a45.63,45.63,0,0,1-8.48-1.1,43.9,43.9,0,0,0-8.44-1.06,33.39,33.39,0,0,0-14.83,3.12c7.33,3.82,41.06,20.3,80,21.18.5-.08,1-.14,1.46-.2,4.32-.54,7.44-.94,10.44-9.28a.87.87,0,1,1,1.64.59c-3.36,9.35-7.3,9.85-11.87,10.42l-1.49.2Z" transform="translate(0 0)"/><path class="cls-41" d="M226.38,268.57" transform="translate(0 0)"/><path class="cls-12" d="M246.82,267.56a1.25,1.25,0,0,1-.42-.08,2.29,2.29,0,0,1-.64-.42l-.14-.12-.18.23-.26.36h-1.59l0-6h1.44l.26.31.28.3a1,1,0,0,0,.18-.13,2.33,2.33,0,0,1,.66-.42,1.27,1.27,0,0,1,.39-.06,1.42,1.42,0,0,1,1.33,1.45l0,3.1a1.43,1.43,0,0,1-1.33,1.44Z" transform="translate(0 0)"/><path class="cls-13" d="M246.84,262.44c.25,0,.45.31.45.58v3.09c0,.27-.21.57-.46.57a.23.23,0,0,1-.11,0c-.23-.08-.57-.48-.81-.56a1.61,1.61,0,0,0-.35,0,.78.78,0,0,0-.29,0c-.18.07-.52.55-.52.55h-.27l0-4.21h.17a3,3,0,0,0,.62.57.87.87,0,0,0,.3,0,1.51,1.51,0,0,0,.34,0c.23-.07.58-.47.82-.55l.1,0m-4.08-1.75v1.74l0,4.21v1.76h2.91l.18-.24a2.37,2.37,0,0,0,.32.14,2,2,0,0,0,.7.13,2.3,2.3,0,0,0,2.2-2.31l0-3.09a2.3,2.3,0,0,0-2.2-2.34,2,2,0,0,0-.69.13,2.68,2.68,0,0,0-.42.19l-.26-.3h-2.71Z" transform="translate(0 0)"/><rect class="cls-20" x="223.06" y="280.24" width="32.34" height="4.48" transform="translate(-44.55 520.18) rotate(-89.69)"/><path class="cls-13" d="M237.94,267.18h2.74l-.16,30.6h-2.74l.16-30.6m-1.73-1.75v1.74l-.17,30.6v1.74h1.75l2.74,0h1.74V297.8l.17-30.6v-1.75h-1.75l-2.74,0Z" transform="translate(0 0)"/><g class="cls-16"><polygon class="cls-20" points="239.98 267.19 239.81 297.79 240.52 297.79 240.68 267.19 239.98 267.19"/></g><polygon class="cls-20" points="236.2 308.32 236.28 293.18 237.09 287.81 241.31 287.84 242.06 293.28 241.98 308.35 236.2 308.32"/><path class="cls-13" d="M237.84,288.69l2.71,0,.64,4.63-.08,14.14-4,0,.08-14.2.68-4.56m-1.5-1.75-.22,1.49-.69,4.56,0,.12v.13l-.07,14.2v1.75h1.74l4,0h1.74v-1.74l.08-14.14v-.25l-.64-4.63-.21-1.5h-5.73Z" transform="translate(0 0)"/><g class="cls-3"><polygon class="cls-42" points="239.07 289.12 238.18 289.12 237.56 293.47 237.49 307.03 238.97 307.04 239.07 289.12"/></g><g class="cls-16"><polygon class="cls-20" points="240.55 288.71 239.85 288.7 240.48 293.33 240.41 307.47 241.11 307.48 241.19 293.34 240.55 288.71"/></g><path class="cls-17" d="M235.43,268.65c-2.15,0-3.47-2.5-4-3.81l-.23.06a6.19,6.19,0,0,0-4,4,.87.87,0,0,1-.83.6h-.07a.86.86,0,0,1-.79-.73,7.93,7.93,0,0,1,5.41-8.76,7.76,7.76,0,0,1,2.36-.36h.39l9.56.05a2.56,2.56,0,0,1,2.54,2.57l0,4.69a2.58,2.58,0,0,1-2.56,2.55Z" transform="translate(0 0)"/><path class="cls-13" d="M233.68,260.46l9.55.05a1.7,1.7,0,0,1,1.68,1.7l0,4.69a1.68,1.68,0,0,1-1.69,1.67h0l-7.67-.78c-2.29,0-3.55-4-3.55-4a8.32,8.32,0,0,0-1.05.24,7,7,0,0,0-4.54,4.5,7,7,0,0,1,6.91-8.11h.39m0-1.75h-.39a8.7,8.7,0,0,0-8.63,10.13,1.74,1.74,0,0,0,1.58,1.46h.14a1.75,1.75,0,0,0,1.66-1.2,5.31,5.31,0,0,1,2.92-3.2c.76,1.5,2.2,3.54,4.45,3.61l7.6.78h.16a3.44,3.44,0,0,0,3.46-3.41l0-4.69a3.44,3.44,0,0,0-3.41-3.46l-9.55-.05Z" transform="translate(0 0)"/><g class="cls-16"><path class="cls-17" d="M244.19,260.82a1.62,1.62,0,0,1,.08.49l0,4.69a1.69,1.69,0,0,1-1.7,1.68l-7.67-.79a3,3,0,0,1-1.47-.34,2.83,2.83,0,0,0,2.11,1.24l7.67.78a1.68,1.68,0,0,0,1.69-1.67l0-4.69A1.7,1.7,0,0,0,244.19,260.82Z" transform="translate(0 0)"/></g><g class="cls-16"><path class="cls-17" d="M230.15,263.49a6.73,6.73,0,0,0-3.74,2.75,7,7,0,0,0,0,2.33,7,7,0,0,1,4.54-4.5c.16-.05.91-.2,1.05-.24C231.91,263.27,230.83,263.23,230.15,263.49Z" transform="translate(0 0)"/></g><path class="cls-17" d="M246.5,268.21a.87.87,0,0,1-.86-.88l0-5.55a.84.84,0,0,1,.26-.62.86.86,0,0,1,.61-.25H249a.89.89,0,0,1,.87.88l0,5.56a.86.86,0,0,1-.87.86Z" transform="translate(0 0)"/><path class="cls-13" d="M246.54,261.78l2.5,0,0,5.55h-2.5l0-5.56m0-1.74a1.77,1.77,0,0,0-1.23.5,1.79,1.79,0,0,0-.52,1.23l0,5.56a1.76,1.76,0,0,0,1.74,1.76H249a1.74,1.74,0,0,0,1.74-1.74l0-5.55a1.74,1.74,0,0,0-1.73-1.76h-2.51Z" transform="translate(0 0)"/><g class="cls-16"><polygon class="cls-17" points="248.47 261.79 248.44 266.97 246.51 266.96 246.51 267.34 249.01 267.35 249.04 261.8 248.47 261.79"/></g><g class="cls-3"><rect class="cls-15" x="245.38" y="263.88" width="3.98" height="0.82" transform="translate(-18.39 510.08) rotate(-89.66)"/></g><g class="cls-3"><path class="cls-15" d="M227.53,264.18c.47-.38,3.88-3.1,5-1.12l11-.12v-1.88s-10.23-.53-12.89.4A7,7,0,0,0,227.53,264.18Z" transform="translate(0 0)"/></g><g class="cls-3"><rect class="cls-42" x="229.43" y="277.84" width="18.13" height="0.53" transform="translate(-40.92 515.07) rotate(-89.69)"/></g><rect class="cls-27" x="231.51" y="278.32" width="12.31" height="11.84"/><path class="cls-13" d="M243.82,291H231.51a.87.87,0,0,1-.87-.87V278.32a.87.87,0,0,1,.87-.88h12.31a.87.87,0,0,1,.87.88v11.83A.87.87,0,0,1,243.82,291Zm-11.43-1.74H243V279.19H232.39Z" transform="translate(0 0)"/></g></g></svg>