<svg id="Слой_2" data-name="Слой 2" xmlns="http://www.w3.org/2000/svg" viewBox="0 0 2568.35 1649.67"><defs><style>.cls-1{fill:#ebf2f9;}.cls-2{fill:#d2e4ff;}.cls-3{fill:#e27f2b;}.cls-4{fill:#e69d43;}.cls-5,.cls-6{fill:#aed3ff;}.cls-5{opacity:0.5;}.cls-7{fill:#283250;}.cls-8{fill:#233862;}.cls-9{fill:#d9935c;}.cls-10{fill:#cb7d45;}.cls-11{fill:#2b478b;}.cls-12{fill:#b64c41;}.cls-13{fill:#9ed9f0;}.cls-14{fill:#ffa412;}.cls-15{fill:#739af0;}.cls-16{fill:#4a75cb;}.cls-17{fill:#f1a34f;}.cls-18{fill:#74acbe;}.cls-19{fill:#e9f3fe;}.cls-20{fill:#bed4f4;}.cls-21{fill:#afcdfb;}</style></defs><path class="cls-1" d="M2081.37,1643.06s254.18-6,362.79-160.1c196.76-279.08,108.09-523.82-242.21-505.61-391.88,20.38-343.55-844.75-1022.1-428.22-147.34,90.45-475.27-99.5-606.28,296.24C542.41,939.48,308.45,946,157.24,1021.5-79.94,1139.88-13,1645,211.11,1647S2081.37,1643.06,2081.37,1643.06Z"/><path class="cls-2" d="M890,346.7H877.87V235.53l-3.82-.34V191h0l1.1-3.65-532-160.27L121.06,176.92l2.13,3.17a13.13,13.13,0,0,0-13.09,13.1v76.39a13.14,13.14,0,0,0,13.09,13.1H234.51a13.14,13.14,0,0,0,13.1-13.1V239h74.21V1644.66h87.3V239H768.26L868.38,346.7H847.84a13.13,13.13,0,0,0-13.09,13.1v13.09A13.13,13.13,0,0,0,847.84,386H890a13.14,13.14,0,0,0,13.1-13.1V359.8A13.14,13.14,0,0,0,890,346.7ZM344.41,35.44,860.81,191H247.41a13.13,13.13,0,0,0-12.9-10.91H130ZM830.69,239l39.54,3.5v95L778.69,239Z"/><path class="cls-3" d="M690.2,1644.43H306.09c18.5-13.65,84.89-61.26,145-87,24.92-10.65,48.76-17.54,67.67-16.69C578.76,1543.46,662.83,1618.48,690.2,1644.43Z"/><path class="cls-4" d="M568.1,1644.43H184c26.16-19.31,148.14-106.55,212.69-103.66,16.84.76,35.58,7.22,54.43,16.69C499.4,1581.72,548.41,1625.76,568.1,1644.43Z"/><path class="cls-1" d="M2426.43,427h0l1.46-2.17L2275.55,322.05,1910.62,432l.76,2.51h0V464.8l-2.62.23v76.26h-8.35a9,9,0,0,0-9,9v9a9,9,0,0,0,9,9h28.95a9,9,0,0,0,9-9v-9a9,9,0,0,0-9-9h-14.09L1984,467.43h246.34v964.19h59.89V467.43h50.91v21a9,9,0,0,0,9,9h76.36a9,9,0,0,0,9-9V436A9,9,0,0,0,2426.43,427Zm-151.74-99.22,147,99.22h-71.67a9,9,0,0,0-8.85,7.49H1920.46ZM1914,535V469.82l27.12-2.39h35.67Z"/><rect class="cls-2" x="1200.18" y="78.11" width="503.84" height="1567.84"/><rect class="cls-5" x="1200.18" y="294.45" width="364.68" height="229.69"/><rect class="cls-5" x="1200.18" y="715.04" width="364.68" height="229.69"/><rect class="cls-5" x="1200.18" y="1130.21" width="364.68" height="229.69"/><polygon class="cls-6" points="2332.11 1358.42 2264.12 1358.42 2264.12 1146.03 1704.02 1146.03 1704.02 78.11 1564.86 78.11 1564.86 1646.84 1704.02 1646.84 1704.02 1645.96 2264.12 1645.96 2264.12 1645.96 2332.11 1645.96 2332.11 1358.42"/><path class="cls-7" d="M2565.83,1649.67H2.52A2.52,2.52,0,0,1,0,1647.15H0a2.53,2.53,0,0,1,2.52-2.52H2565.83a2.53,2.53,0,0,1,2.52,2.52h0A2.52,2.52,0,0,1,2565.83,1649.67Z"/><path class="cls-8" d="M1808.17,1644.67s1-21.7,6.82-33.34,52.38-3.64,52.38-3.64,10.73,19.42,9.28,36.88Z"/><path class="cls-8" d="M1683.21,1644.67s1-21.7,6.82-33.34,52.38-3.64,52.38-3.64,10.73,19.42,9.28,36.88Z"/><path class="cls-9" d="M1838.34,723.66c-5.82,4.22-58.46,31.69-58.46,31.69l-55.52-39.58s16.86-2.45,17.31-2.58c5-1.4,4.78-14.84,5.41-29.14.1-2.21.22-4.43.38-6.64l54.36-2,0,.67c0,.69.1,1.41.15,2.16l.11,1.55c0,.54.08,1.07.12,1.63,1,12.57,3.08,30.33,7.09,32.4C1811.62,715,1827.1,714.84,1838.34,723.66Z"/><path class="cls-10" d="M1802.25,681.45c-4.49,9-14.47,24.59-29.28,24.07-14.14-.5-22.2-13.35-25.89-21.47.1-2.21.22-4.43.38-6.64l54.36-2,0,.67.15,2.16.11,1.55C1802.16,680.36,1802.21,680.89,1802.25,681.45Z"/><path class="cls-11" d="M1741,556.22s26.22-26.11,57.15.52C1798.15,556.74,1779.76,552.93,1741,556.22Z"/><path class="cls-12" d="M1731.27,652.26A225.2,225.2,0,0,1,1717.84,615c-3.66-14.29-.31-68.54,54.23-64.85a73.52,73.52,0,0,1,31.26,9.21c12.31,7,30.5,22.85,15.11,71.12l-3.72,16.2Z"/><path class="cls-9" d="M1807.56,675c-14.08,13.46-31.57,31.4-69.27-1.77-7.37-6.49-6.87-16.47-7.3-30.8-.52-17-4.6-27.35-2.71-37.13,2.25-11.7,12.26-17,33-18.79,38.12-3.31,57.39,5.28,54.83,24.2C1810.42,653,1821.88,661.35,1807.56,675Z"/><path class="cls-12" d="M1776.5,585.86s22.59-.48,27.75,7.08,5.88,16,8.48,20.26a16.41,16.41,0,0,1,2.17,9l5-33.73-30.59-6.08Z"/><path class="cls-13" d="M1908.3,771.91s-9.65,28.44-48.78,33.65c-1.06.14-2.15.26-3.25.37H1696.94l-.86-.26c-6.18-2-44.25-15-48.25-39.4,0,0,20-41.1,35.29-46.2a97.24,97.24,0,0,1,17.1-3.45c6.63-.85,13.6-1.42,19.45-1.79,8-.5,14-.63,14-.63s12.41,25.16,42.6,24.78,37.2-24.41,37.2-24.41,8.48.24,19.74,1.46c6.21.67,13.26,1.63,20.21,3,11.78,2.34,23.25,5.88,29.8,11.2C1900.66,744.44,1908.3,771.91,1908.3,771.91Z"/><path class="cls-11" d="M1870.39,991.87c-1.69-9.42-4.22-23.76-6.19-36.37,0-.17,5.9-71.2,8.08-83.19S1859.63,795,1859.63,795c-3.45-10-9.3-13-13.78-13l7.54-62.89c-7-1.39-14-2.35-20.21-3l-3.61,65.91-.06.95c-8.26.46-18.56,1-28.15,1.44s-18.48.75-23.95.75c-11.12,0-36.63-1.27-53.58-2.2l-.07-.94-4.09-67.11c-5.85.37-12.82.94-19.45,1.79l7.2,65.32h0c-4.74,0-10.2,8.43-11,13.11l-.74,20.43c-3.58,10.29-11,33.14-12.25,49.18-1.63,21.21,7.23,95,7.29,95.49-.32,8.8-1,20-2.15,30.91-6.66,18-35,101.93-32.16,214.73,2.69,105.31,4.29,285.24,16.7,372.6,2,14.18,4.31,25.92,6.95,34.5a11.64,11.64,0,0,0,9.56,8.09c14.22,2,46.3,5.61,60.1.59,6.61-2.41,11.35-39.13,14.7-86.48,3.21-45.38,5.14-100.54,6.21-144.57,0,0,0,0,0,0,.86-35.09,1.19-63.11,1.19-73.48,0-23.46,5.54-92.3,7.38-132.79a.9.9,0,0,1,1.8,0h0c2.78,48.07,12.49,121,12.65,137.17.36,39.29-1.93,291.7,15.24,300.18,13.13,6.48,44.07,1.58,58.85-.42a13.59,13.59,0,0,0,11.24-9.71c18.47-63.51,20.11-284.2,23.22-405.65C1905.11,1094.59,1877.55,1011.47,1870.39,991.87Z"/><path class="cls-9" d="M1725.68,1037.29c-5.45,4.37-23.28,2.54-30.18-3.27s-20.74-4-24-6.19c-.23-.15-64.58-76.41-71.55-108.49-7-32.38,37.5-121.49,50.1-145.78,9.33,19.71,40.41,30.35,46,32.11l.85.26h1.72c-10.48,28.35-41.84,79.39-53.92,98.62a16.68,16.68,0,0,0-1,15.89c15.52,33.28,30.7,61.35,37.34,80.79,1.32,2.16,4.16,6,7.59,5.5,4.73-.73,20-4,27.65,7.27S1731.14,1032.93,1725.68,1037.29Z"/><path class="cls-14" d="M1823.63,557a80.27,80.27,0,0,0-11.7-12.07c-1.19-1-2.47-2.07-3.84-3.1-13.81-10.51-35.92-20.77-62.58-9.65A59.43,59.43,0,0,0,1727.3,544c-1.18,1.12-2.3,2.26-3.35,3.45-23.12,25.64-21.16,65.85-21.16,65.85l133.36-1.42C1836.58,574.65,1823.63,557,1823.63,557Z"/><path class="cls-3" d="M1798.69,612.28c-.38-5.61-2.93-51.62,13.24-67.36a28.75,28.75,0,0,0-2.27-1.89c-17.24,18.09-18.35,63.4-18.28,69.32l-42.63.46c-1.26-32.66-19.29-65.18-21.45-68.81a32.37,32.37,0,0,0-2.46,2.52c3.13,5.51,14.9,37,16,66.37l-38.07.41s35.52,9.18,62.27,8.85,71.09-10.27,71.09-10.27Z"/><path class="cls-12" d="M1730.73,788.83c-13.65,26.19-52.39,31.1-52.39,31.1,12.55-30.56-12.73-40.19-28.37-71.48s12-52,12-52c-17.1,3.28-20.37,26.19-20.37,26.19-1.45-15.27,11.28-41.09,51.66-46.19,29.57-3.73,36.7-13.7,38.4-18.77.67,6.58,2.26,11.73,6.68,15.61,3.12,2.76,6.12,5.14,9,7.23-.06,1.19-.12,2.38-.17,3.56-.18,4-.29,8-.47,11.62a19.73,19.73,0,0,0-4.24,17.21,19.31,19.31,0,0,0,1.4,4.28,36,36,0,0,1,7,17.45C1752.71,751.92,1741,769.19,1730.73,788.83Z"/><path class="cls-8" d="M1870.09,990.16l-5.9-34.65a270.35,270.35,0,0,1-79.77,16.56,19.27,19.27,0,0,0-14.2-9.92l-21.16-3.06a19.28,19.28,0,0,0-19.89,10.24c-20.32-3.14-34-7.75-38.39-9.34v.19l-2.11,30.42v.08c12.22,3.25,23.95,5.78,35.15,7.7l-.62,4.23a19.29,19.29,0,0,0,16.22,21.9l23.45,3.51a19.29,19.29,0,0,0,22.12-17.87l.4-6.52C1830.09,1003.4,1859.8,994,1870.09,990.16Z"/><path class="cls-9" d="M1955.83,919.34c-7,32.08-71.32,108.34-71.54,108.49a7.11,7.11,0,0,1-2.53.83l-.11,0c-5.32.92-15.69.53-21.37,5.34-6.91,5.81-24.74,7.64-30.2,3.27s1.82-12,9.46-23.29,22.92-8,27.64-7.27c2.82.43,5.25-2.1,6.75-4.22a.94.94,0,0,1,.09-.12c.28-.41.54-.81.75-1.16,6.5-19,21.16-46.26,36.31-78.57a21,21,0,0,0-1.2-20.09c-10.12-16.17-30.66-49.75-43.87-76.69-1.54-7.79-3.08-15.12-4.27-20.66,29-4.67,41-22.33,44.93-29.86C1920.39,802,1962.71,887.71,1955.83,919.34Z"/><g id="P297LW"><path class="cls-15" d="M2391.39,1057.65c-9.73,2.25-53.71,2.79-84.6-4.15a94.2,94.2,0,0,1-17.18-5.36c-5.82-2.57-10.21-5.67-12.44-9.4-3.5-5.81-9.88-25.72-17.39-51.83C2239.1,915,2210,796.18,2210,796.18s58.44,11.93,70.81,22.11,23.29,171.7,34.92,176.07c1.71.64,4.67,2,8.46,3.86.19.09.37.19.56.27,2.26,1.12,4.8,2.41,7.55,3.82,24.13,12.4,64.06,34.74,68.2,39.71C2405.94,1048.56,2405.58,1054.38,2391.39,1057.65Z"/><path class="cls-15" d="M2279.26,888.14a46.26,46.26,0,0,0-.77-8.26c-7.52-41.35-67.32-83.7-68.5-83.7V797c0,6.32-10,18-25.31,19-18.2,1.19-40.67-9.19-40.67-19.68-.11,0-10.23,1.37-13.65,1.75-14.59,1.66-43.71,9.54-56.18,19-11.87,9,4.9,65.46,15.27,105.47,4.4,16.92,7.64,30.89,7.11,37.08-.26,3-3,44.09-5.4,81.24-2,30.64-3.82,58.62-3.88,60.37-.13,3.48,17.18,15.67,46.24,24.88a228.28,228.28,0,0,0,23,6,245.22,245.22,0,0,0,50.15,5c6,0,11.69-.33,17.06-.86C2265.28,1132.14,2279.5,1084.83,2279.26,888.14Z"/><path class="cls-9" d="M2144,795.86c-.35-16.06-.09-35.23,2.08-51.43l64.11,10.47s.06,19.57-.22,41.28c0,0,1.75,20.14-23.06,23.08S2143.35,811.41,2144,795.86Z"/><path class="cls-8" d="M2197.65,1644.68c-8.06-5-3.33-41.73-3.33-41.73s37.76-30,42.84-6.89,35.64,33.54,53,36.42c12,2,16.45,8.21,17.58,12.15Z"/><path class="cls-16" d="M2138.92,1012.55c0,61.47-29.79,44.91-47.77,28.31,2.42-37.15,4.12-168.73,4.12-168.73S2138.92,924.51,2138.92,1012.55Z"/><path class="cls-16" d="M2332.29,1002.31c-1.19,8.63-14.81,33.73-25.5,51.19a94.2,94.2,0,0,1-17.18-5.36c-5.82-2.57-10.21-5.67-12.44-9.4-3.5-5.81-9.88-25.72-17.39-51.83,5.55-32.12,10.84-63.85,10.84-63.85l1.63-21.28c0,1.64,24.92,95.13,36.2,97.31,6.8,1.32,11.63-.28,15.73-.87.19.09.37.19.56.27C2327,999.61,2329.54,1000.9,2332.29,1002.31Z"/><path class="cls-8" d="M2082,1644.68c-8.05-5-3.32-41.73-3.32-41.73s37.75-30,42.84-6.89,35.63,33.54,53,36.42c12,2,16.38,8.21,17.51,12.15Z"/><path class="cls-8" d="M2137.91,725.94s-42.79-67.47,39.38-71.94c0,0,30.82,3.63,37.8-3.35,0,0,23.9,36.34,1.58,75.29S2137.91,725.94,2137.91,725.94Z"/><path class="cls-9" d="M2208.3,761.15c-6.23,4.9-24.49,9.77-29.77,10.34,0,0-27.08-6-32-9-7.63-4.62-7.14-14-7.53-27-.47-15.4-2-27.49-.3-36.36,2-10.62,8.77-16.66,27.62-18.3,34.59-3,49,5.66,49.61,17.26.15,3.11.3,6.08.4,8.9C2217.71,743.17,2214.86,756,2208.3,761.15Z"/><path class="cls-8" d="M2216.64,718.85c-.33,21-6,33.36-10.08,34.93a86.87,86.87,0,0,1-16,4.28c-1.95.23-3.82.17-3.8-.94.07-3.3,4.48-7.38,1.2-10.3-3.44-3.07-21.92-4.11-23.41,2.59-.72,3.27,5.24,9,1.15,9.17-1.24-.22-2.45-.45-3.61-.76a53.62,53.62,0,0,1-14.24-6.28c-7.62-4.62-7.12-11.7-8.81-24.61-1.09-8.34-1.09-3.82,0,8.57,1.14,13-1.09,21.28,7.53,27,4.79,3.17,32.4,15.58,32.4,15.58-.4-6.57,23.15-12,29.37-16.91C2214.09,756.61,2217,746.09,2216.64,718.85Z"/><path class="cls-11" d="M2087.28,1101.23c-.13,3.48,17.17,15.67,46.24,24.88q3.51,1.13,7.25,2.16a.07.07,0,0,1,.06.07c2.71,31.81,10.05,76.75,16.67,120.11h0c1.72,11.24,3.38,22.38,4.9,33.15,4,28.5,7.06,54.48,7.39,73.17v.2c.14,8.58-7.09,30-7.64,34.92-.33,3-.61,6.22-.8,9.57a387.78,387.78,0,0,0,.61,46.11c4.74,73.73,24.22,168.07,31.18,172.08,13.81,8,39,0,51.74-1.88,5.29-.78,9.52-5.29,9.25-10.63-6.24-122.36,11.69-292.77,25.09-397.53q.53-4.08,1-8c1.6-12.35,2.66-23.89,3.33-34.29.61-9.12.9-17.4,1-24.58,0-2.24.06-4.38.07-6.4,0-6.56-5.19-49.49-5.43-246.18h0a8.29,8.29,0,0,0-8.26-8.27H2150.71A20.86,20.86,0,0,0,2129.88,901c.19,15-.35,36-3.61,56-4.44,27.31-13.95,52.82-33.57,59a.1.1,0,0,0,0,0c-.08.2-.62,1.39-1.48,3.38a0,0,0,0,0,0,0q-.27,7.41-.62,15.09c0,1-.09,2.06-.14,3.1,0,.61-.06,1.21-.09,1.82,0,1-.1,2.09-.15,3.14-.08,1.72-.17,3.46-.26,5.21-.08,1.38-.16,2.75-.23,4.14-.15,2.66-.31,5.36-.48,8.07-.05.88-.1,1.74-.17,2.62-.23,3.52-.47,7.09-.74,10.68-.08,1.1-.16,2.2-.25,3.32,0,.53-.08,1.06-.12,1.6-.11,1.41-.22,2.82-.34,4.23s-.25,3-.38,4.52C2086.71,1092.43,2087.42,1097.36,2087.28,1101.23Z"/><path class="cls-8" d="M2162,1445.58c4.74,73.73,24.22,168.07,31.18,172.08,13.81,8,39,0,51.74-1.88,5.29-.78,9.52-5.29,9.25-10.63-6.24-122.36,11.69-292.77,25.09-397.53q.53-4.08,1-8c1.6-12.35,2.66-23.89,3.33-34.29-6.38-41.53-42.35-43.76-75,42.16C2212.66,1236,2160.88,1428.69,2162,1445.58Z"/><path class="cls-11" d="M2085.93,1351.31c-1,8.53-11,28.79-12.16,33.62-16.49,66.32-7.38,223.57.79,229.86,12.65,9.73,38.63,5.11,51.54,4.93,5.35-.07,10.14-4,10.57-9.31,10.14-125.3,52.16-297.39,79.18-398.62,13.6-51,15.53-88.49,15.53-88.49s-126.29-77.37-139.94-35.1C2079.35,1125.6,2093.54,1285.87,2085.93,1351.31Z"/><path class="cls-14" d="M2214.55,635.14c-.87-1-1.79-1.93-2.77-2.85a48.9,48.9,0,0,0-15-9.78c-22-9.19-40.28-.71-51.7,8-1.12.85-2.18,1.71-3.16,2.55a66.44,66.44,0,0,0-9.67,10s-10.7,14.59-10.34,45.34L2232,689.53S2233.64,656.32,2214.55,635.14Z"/><path class="cls-3" d="M2152.78,688.67l6,.07c.13-1.75-.17-41.73-15.08-57.25a22,22,0,0,0-1.87,1.54C2156,646.7,2152.81,688.26,2152.78,688.67Z"/><path class="cls-3" d="M2200.65,689.2c1.26-24.48,10.63-50.2,13.16-54.77a22.68,22.68,0,0,0-2-2.14c-1.75,3-16.12,29.65-17.64,56.84l-72.27-.78s36.62,8.22,58.72,8.49,51.44-7.31,51.44-7.31Z"/><path class="cls-11" d="M2126,798.69s37.22,43.36,39.4,81.19l-19,1s-4.77-42.13-32.78-79.6c0,0,4.38-1.06,5.83-1.35C2121.47,799.54,2126,798.69,2126,798.69Z"/><path class="cls-11" d="M2218.82,798.09c26.66,40.35,29.52,82.61,29.52,82.61l19.14-.33c-1.58-29.74-20.26-62.45-30.57-78C2236.91,802.42,2223.66,799.07,2218.82,798.09Z"/><path class="cls-14" d="M2177.25,1214.19h-15.36c-7.15-3.24-45.63-19.91-82.62-20.11-26.69-.15-57.1,19.79-58.93,20-4.64.55,15.46.73,15.46.73s30.12-13.33,43.65-13.64c12.9-.3,41.54,9.08,53,13h-86.14a13.13,13.13,0,0,0-13.09,13.1v98.22a13.13,13.13,0,0,0,13.09,13.09h131a13.13,13.13,0,0,0,13.1-13.09v-98.22A13.13,13.13,0,0,0,2177.25,1214.19Z"/><rect class="cls-3" x="1990.64" y="1214.19" width="157.15" height="124.41" rx="13.1"/><path class="cls-15" d="M2096.23,1031.44c.94,44.4-4.59,132.81-4.59,132.81h-26.19c-12.37-62.21-16.74-102.23-16.74-124.06,0-4.3,0-8.3.06-12,.16-18.64.67-29.47.67-29.47-4.92-112.94,17.64-173.33,24.73-181.65s39.5-15.79,39.5-15.79,10.71,31.2,15.07,56.3-34.33,130.57-32.74,166.61C2096.1,1026.44,2096.18,1028.87,2096.23,1031.44Z"/><path class="cls-17" d="M2436.18,1061.66H2415a3.84,3.84,0,0,0-3.82,3.84v576.8a3.84,3.84,0,0,0,3.82,3.83h21.18a3.83,3.83,0,0,0,3.82-3.83V1065.5A3.84,3.84,0,0,0,2436.18,1061.66Z"/><path class="cls-11" d="M2436.18,1061.66H2415a3.84,3.84,0,0,0-3.82,3.84v17.87H2440V1065.5A3.84,3.84,0,0,0,2436.18,1061.66Z"/><path class="cls-11" d="M2411.18,1642.3a3.84,3.84,0,0,0,3.82,3.83h21.18a3.83,3.83,0,0,0,3.82-3.83v-15.42h-28.82Z"/><path class="cls-3" d="M2425.77,1099.46a2.19,2.19,0,0,0-2.18,2.18v507.71a2.18,2.18,0,0,0,4.36,0V1101.64A2.19,2.19,0,0,0,2425.77,1099.46Z"/><path class="cls-9" d="M2091.64,1164.25s5.53-88.41,4.59-132.81c-20.94-6.75-37.83-5.27-47.46-3.25,0,3.7-.06,7.7-.06,12,0,21.83,4.37,61.85,16.74,124.06-5.46,22.91-5.1,47.65,4.36,52s40.74-12,40.38-19.28S2091.64,1164.25,2091.64,1164.25Z"/><path class="cls-9" d="M2450,1062c-2.56-9.36-4.45-14.55-10.9-19.09-9.36-6.61-20.48-4.82-28.77-3.37-6.33,1.11-13-1-15.75-2.08-14.67-9.78-51.51-30-69.85-39-12.52,7.26-27.9,21.62-35.13,49.65,28.23,12.45,90,12.23,101.78,9.51,0,0,10.9,7.92,19.18,8.65,3.14.27,7.1-.64,10.79-1.88,5.83-2,12.07,0,16.26,5.17,4,5,9.28,7.71,11.47,7.71C2452.46,1077.3,2451.61,1067.92,2450,1062Z"/></g><rect class="cls-14" x="82.42" y="1175.64" width="157.15" height="124.41" rx="13.1"/><rect class="cls-3" x="124.99" y="1175.64" width="157.15" height="124.41" rx="13.1"/><path class="cls-14" d="M109.71,1176.18s31.1-22.92,35.74-22.37,12,2.18,12,2.18l-27.83,21Z"/><path class="cls-13" d="M355.2,814.16c-12.47-9.42-41.59-17.3-56.18-19-3.43-.39-13.67-.43-13.78-.43,0,10.49-22.34,19.55-40.55,18.36-15.34-1-25.3-12.67-25.3-19v0c-1.18,0-61,41.5-68.5,82.85a46.26,46.26,0,0,0-.77,8.26c-.24,196.69-12.16,226.86-8.39,226.79,0,0,22.37,17.21,63.88,21.28,5.37.54,11.06.84,17.06.87a245.19,245.19,0,0,0,50.15-5,225.72,225.72,0,0,0,23.05-6c29.06-9.21,46.37-21.4,46.24-24.88-.15-3.88.56-8.8.08-14.32-1.81-20.82-2.8-39-3.57-57.34,31.54,2.77,49.74-.35,49.74-.35C414.18,970.74,372.07,826.91,355.2,814.16Zm-7.36,160.1c-1.92.52-4,1-6.23,1.48-1.54.33-3.15.65-4.81,1,0-.76-.05-1.52-.08-2.26-.43-10.3-.91-20.12-1.59-29.45-.56-7.81-1.26-15.29-2.18-22.42C343.83,951.26,351.42,973.3,347.84,974.26Z"/><path class="cls-9" d="M219.39,794.13s-46.2,7-66.09,23.58-21.9,122.11-28.53,151.95c-1.31,5.86-2.48,15.31-3.49,26.84-3.55,40.49.71,96.63,4.23,117.39a44.4,44.4,0,0,1-2.71,19.59c-5.09,12.74-6.18,16.37,2.91,23.65s18.92,17.46,25.83,14.55c5.33-2.24,4.39-37.6,3.68-53.66,8-34.3,20.9-98.68,33.06-161.07C204.51,873.77,219.39,794.13,219.39,794.13Z"/><path class="cls-13" d="M219.39,794.14S210.81,840,199.58,898.52c-3.56,18.57-7.39,38.4-11.3,58.43-15.9,31.16-29.54,52.35-33.75,48.36-8.6-8.12-23.7-9.12-33.24-8.82,1-11.52,2.18-21,3.48-26.83.52-2.36,1-5.19,1.49-8.41,5.57-37.54,8.72-128.28,27-143.54,9.64-8,25.44-13.8,39.18-17.65h0c7-1.95,13.5-3.39,18.35-4.37C216.07,794.64,219.39,794.14,219.39,794.14Z"/><path class="cls-18" d="M154.53,1005.31c-8.6-8.12-23.69-9.12-33.25-8.81,1-11.53,2.18-21,3.49-26.84.52-2.36,1-5.19,1.49-8.41l47.67-115.06S158.74,1009.3,154.53,1005.31Z"/><path class="cls-9" d="M285.36,793c.35-16.06.08-35.24-2.09-51.44L219.17,752s0,19.56.28,41.27h-.07s-1.74,20.13,23.06,23.08S286,808.5,285.36,793Z"/><path class="cls-8" d="M231.71,1644.63c8.06-5,3.34-42,3.34-42s-37.75-30-42.84-6.89-35.63,33.54-53,36.43c-12,2-15.71,8.66-16.84,12.6Z"/><path class="cls-18" d="M341.62,975.79S329.61,992,327.16,992s-32.74-11.73-24.06-38S333,922.57,333,922.57c.92,7.13,1.62,14.61,2.18,22.42.68,9.33,1.16,19.15,1.59,29.45,0,.74,0,1.5.08,2.26,1.66-.31,3.27-.63,4.81-1Z"/><path class="cls-8" d="M347.39,1644.63c8.06-5,3.34-42,3.34-42s-37.75-30-42.84-6.89-35.63,33.54-53,36.43c-12,2-15.71,8.66-16.84,12.6Z"/><path class="cls-12" d="M291.46,723s42.79-67.48-39.38-71.94c0,0-30.82,3.63-37.79-3.35,0,0-23.91,36.33-1.59,75.29S291.46,723,291.46,723Z"/><path class="cls-9" d="M221.07,758.25c6.23,4.9,24.49,9.76,29.77,10.33,0,0,27.08-6,32-9,7.62-4.62,7.13-14,7.52-27,.47-15.39,2-27.48.3-36.36-2-10.61-8.77-16.65-27.62-18.29-34.59-3-49,5.66-49.61,17.25-.15,3.12-.3,6.09-.4,8.9C211.66,740.26,214.52,753.09,221.07,758.25Z"/><path class="cls-12" d="M212.73,716c.33,20.95,6,33.36,10.08,34.92a86,86,0,0,0,16.05,4.29c1.95.23,3.81.16,3.79-.94-.06-3.31-4.48-7.38-1.2-10.31,3.44-3.07,21.92-4.1,23.41,2.6.72,3.26-5.23,9-1.15,9.16,1.24-.21,2.45-.45,3.61-.75a54.29,54.29,0,0,0,14.24-6.28c7.62-4.62,7.12-11.71,8.81-24.61,1.09-8.35,1.09-3.82,0,8.56-1.14,13,1.09,21.28-7.52,27-4.8,3.18-32.41,15.58-32.41,15.58.4-6.57-23.14-12-29.37-16.9C215.29,753.7,212.38,743.19,212.73,716Z"/><path class="cls-11" d="M342.1,1098.33c.13,3.48-17.18,15.67-46.24,24.88-2.34.75-4.77,1.46-7.26,2.16a.07.07,0,0,0-.06.07c-2.71,31.81-10.05,76.74-16.67,120.11h0c-1.71,11.24-3.37,22.37-4.9,33.14-4,28.51-7.06,54.48-7.39,73.18v.19c-.14,8.58,7.09,30,7.64,34.93.34,3,.61,6.22.81,9.57a389.94,389.94,0,0,1-.61,46.11c-4.75,73.73-24.23,168.06-31.18,172.08-13.82,8-39,0-51.74-1.88-5.3-.78-9.53-5.29-9.26-10.63,6.24-122.36-11.69-292.77-25.09-397.53-.35-2.73-.7-5.4-1-8-1.61-12.36-2.67-23.89-3.33-34.29-.61-9.13-.91-17.41-1-24.59q0-3.36-.07-6.39c0-6.56,5.19-49.5,5.43-246.19h0a8.29,8.29,0,0,1,8.27-8.26H278.66a20.84,20.84,0,0,1,20.83,21.13c-.19,15,.36,36,3.61,55.95,4.44,27.31,13.95,52.83,33.57,59a.07.07,0,0,1,.05,0c.09.19.62,1.39,1.48,3.38a0,0,0,0,1,0,0q.29,7.41.62,15.09c.05,1,.09,2.06.14,3.1l.09,1.82.15,3.13c.08,1.73.17,3.46.27,5.22.07,1.37.15,2.75.23,4.14q.21,4,.48,8.07c0,.87.09,1.74.16,2.62.23,3.51.47,7.08.74,10.67.08,1.11.17,2.21.25,3.32l.12,1.61c.11,1.4.22,2.81.34,4.23s.25,3,.38,4.52C342.66,1089.53,342,1094.45,342.1,1098.33Z"/><path class="cls-8" d="M267.42,1442.68c-4.75,73.73-24.23,168.06-31.18,172.08-13.82,8-39,0-51.74-1.88-5.3-.78-9.53-5.29-9.26-10.63,6.24-122.36-11.69-292.77-25.09-397.53-.35-2.73-.7-5.4-1-8-1.61-12.36-2.67-23.89-3.33-34.29,6.37-41.54,42.34-43.76,75,42.16C234.73,1237.84,268.5,1425.78,267.42,1442.68Z"/><path class="cls-11" d="M343.44,1348.41c1,8.52,11,28.79,12.17,33.61,16.49,66.33,7.38,223.58-.8,229.87-12.65,9.73-38.63,5.1-51.54,4.93-5.35-.08-10.14-4-10.57-9.32-10.14-125.29-52.16-297.38-79.18-398.61-13.6-51-15.53-88.49-15.53-88.49s126.29-77.37,140-35.11C350,1122.7,335.83,1283,343.44,1348.41Z"/><path class="cls-14" d="M297.16,640.11a65.88,65.88,0,0,0-9.67-10c-1-.85-2-1.7-3.16-2.55-11.41-8.69-29.68-17.16-51.69-8a49.2,49.2,0,0,0-15,9.78c-1,.92-1.9,1.87-2.77,2.85-19.09,21.18-17.47,54.4-17.47,54.4l110.15-1.18C307.86,654.7,297.16,640.11,297.16,640.11Z"/><path class="cls-3" d="M276.59,685.77c0-.41-3.26-42,10.9-55.64a20.54,20.54,0,0,0-1.87-1.55c-14.91,15.52-15.21,55.5-15.08,57.26Z"/><path class="cls-3" d="M235.31,686.22c-1-27-15.93-53.84-17.72-56.84a22.19,22.19,0,0,0-2,2.09c2.58,4.54,12.3,30.55,13.23,54.82l-31.44.34s29.34,7.58,51.43,7.31,58.72-8.49,58.72-8.49Z"/><path class="cls-11" d="M303.35,795.78S266.13,839.14,264,877h18.92s4.82-41.12,32.83-78.59Z"/><path class="cls-11" d="M210.83,795.69C184.17,836,181,877,181,877H162.09c1.57-29.74,20.07-61.41,30.38-76.91h0C199.5,798.11,206,796.67,210.83,795.69Z"/><path class="cls-14" d="M403,1030a395.4,395.4,0,0,0-6.44-51.93,165.54,165.54,0,0,1-2.09,27.51c4.68,37.3,2.87,65.81-5.44,81.95a55.61,55.61,0,0,1-20.91,22.83,66,66,0,0,0,11.56-15.26c6.39-11.45,12.27-32.76,10.09-72.07-.44,1.12-.9,2.2-1.39,3.25,0,0-1.62.28-4.74.6,1.28,28.74-1.79,50.75-9.13,63.92A54.32,54.32,0,0,1,352.36,1113a64.94,64.94,0,0,0,7.87-9.5c7.58-11.14,15.49-33,15.83-76q-2.83.16-6.29.26c-.35,33-5.21,57.47-14.36,70.87-.42.62-.86,1.24-1.31,1.84,6.94-11.91,13.58-33.5,13.92-72.68-2,0-4.07,0-6.3,0-.33,32.92-5.21,57.42-14.35,70.81A51.87,51.87,0,0,1,326.21,1117c-2.52-.43-5.1-1-7.69-1.69-.35-.08-.7-.17-1-.28l-.11,0-1-.29q-4.74-1.38-9.2-3.15c-36.39-14.45-57.27-47-59.3-73.74-1.44-19,.1-47.29,3.94-78.06,7.56-60.64,24-130.94,44.06-158.88.34-.47.66-.93,1-1.37h0c.42-.55.84-1.09,1.27-1.59.74-.89,1.47-1.72,2.22-2.48l0,0a24.61,24.61,0,0,1,4.67-3.82,12.12,12.12,0,0,1,1.38,1,26.6,26.6,0,0,1,4.64,4.78l0,.05c2.09.45,4.26,1,6.48,1.53,1,.28,2.09.55,3.15.86a.73.73,0,0,1,.2,0c.25.05.5.13.74.2,1.3.36,2.6.74,3.91,1.13l2.23.69,2.62.85,2.84,1c1,.35,2,.71,3,1.08l-.06-.09C324.39,786,316,781.69,310.57,782a15,15,0,0,0-2.55.34,10.73,10.73,0,0,0-2.73-.37,16.35,16.35,0,0,0-5.48,1c-5.6.54-11.49,4.08-17.59,10.59-.42.43-.83.89-1.25,1.36a108.23,108.23,0,0,0-10.16,13.8l-.06.09c-32.25,51-62.32,164.2-64.11,217.2-1.41,41.94,30.88,79.44,63.51,94.8a98.37,98.37,0,0,0,9.49,3.89q2.66.93,5.26,1.66l.11,0a72.55,72.55,0,0,0,19.63,2.84c1.35,0,2.68,0,4-.13,1.36.09,2.71.13,4.05.13a57.84,57.84,0,0,0,17-2.48c.85,0,1.7-.1,2.54-.16s1.44-.13,2.14-.22c1.38-.16,2.75-.37,4.1-.62a68,68,0,0,0,11.52-.89,58.12,58.12,0,0,0,30.63-14.88,66.1,66.1,0,0,0,13.68-18.3C399.75,1081,404.57,1062.42,403,1030Zm-190.06-3.76c1.58-46.91,27.23-146.54,55.59-200.33-1,2.38-2,4.84-3,7.37-26.8,56.76-49.31,147-50.84,192.65-.65,19.08,5.68,37.23,15.85,52.8C218.29,1061.58,212.36,1042.35,212.91,1026.28Zm67.53,87.36c-40.36-19-60.48-58.33-59.49-87.36.86-25.77,9-67.47,20.86-108.73-9.25,44.6-14.41,89.84-13.14,117.63,1.6,35.19,26.6,64.45,54.52,79.69C282.27,1114.49,281.37,1114.08,280.44,1113.64Zm-45.53-78.88c-1.84-40.24,10.88-121.26,29.69-179.38,2.11-6.5,4.29-12.72,6.54-18.57.84-1.78,1.68-3.51,2.52-5.22-14.48,39.66-25.36,96.34-30.08,143.94-2.42,24.61-3.19,46.79-2,63,2.2,29,20.3,53.3,42.54,68.73C253.14,1090.07,236,1059.57,234.91,1034.76Z"/><path class="cls-9" d="M341.62,975.79c-1,.15-20.37,3.68-21.43,3.83-32.21,4.72-75.55,6.8-80.06,7-.42-.39-15.8-14.71-21.79-14.71s-23.6,6.38-25.39,11.29-2.5,13.75,2.5,15.72,25.75,6.87,31.11,7.37a15,15,0,0,0,2.58,0,544.08,544.08,0,0,0,97.24,19.52c2.28.23,15.46,2,27.17,1.83C353.14,1005.38,345.65,984.83,341.62,975.79Z"/><path class="cls-2" d="M1045.3,516.73v-8.46h-18.52V452.41h-15.33v55.86H972.62V452.41H957.29v55.86H915.08V452.41H899.75v55.86H860.92V452.41H845.59v55.86H825.28v8.46h20.31v27.19H825.28v8.46h20.31v27.19H825.28V588h20.31v27.19H825.28v8.46h20.31v27.19H825.28v8.46h20.31v27.2H825.28V695h20.31v22H825.28v8.46h20.31v27.19H825.28v8.47h20.31v27.19H825.28v8.46h20.31V824H825.28v8.46h20.31v27.2H825.28v8.46h20.31v27.19H825.28v8.46h20.31v25.95H825.28v8.47h20.31v27.19H825.28v8.46h20.31V1001H825.28v8.46h20.31v27.2H825.28v8.46h20.31v27.19H825.28v8.46h20.31V1108H825.28v8.47h20.31v22H825.28v8.46h20.31v27.19H825.28v8.46h20.31v27.2H825.28v8.46h20.31v27.19H825.28v8.46h20.31V1281H825.28v8.47h20.31v27.19H825.28v8.46h20.31v24.26H825.28v8.46h20.31v27.19H825.28v8.47h20.31v27.19H825.28v8.46h20.31v27.19H825.28v8.46h20.31V1492H825.28v8.46h20.31v27.19H825.28v8.46h20.31v22H825.28v8.47h20.31v27.19H825.28v8.46h20.31v27.19H825.28v8.46h220v-8.46h-18.52v-27.19h18.52v-8.46h-18.52v-27.19h18.52v-8.47h-18.52v-22h18.52v-8.46h-18.52v-27.19h18.52V1492h-18.52v-27.2h18.52v-8.46h-18.52v-27.19h18.52v-8.46h-18.52v-27.19h18.52v-8.47h-18.52v-27.19h18.52v-8.46h-18.52v-24.26h18.52v-8.46h-18.52V1289.5h18.52V1281h-18.52v-27.19h18.52v-8.46h-18.52v-27.19h18.52v-8.46h-18.52v-27.2h18.52v-8.46h-18.52v-27.19h18.52v-8.46h-18.52v-22h18.52V1108h-18.52v-27.19h18.52v-8.46h-18.52v-27.19h18.52v-8.46h-18.52v-27.2h18.52V1001h-18.52V973.8h18.52v-8.46h-18.52V938.15h18.52v-8.47h-18.52V903.73h18.52v-8.46h-18.52V868.08h18.52v-8.46h-18.52v-27.2h18.52V824h-18.52V796.77h18.52v-8.46h-18.52V761.12h18.52v-8.47h-18.52V725.46h18.52V717h-18.52V695h18.52v-8.46h-18.52v-27.2h18.52v-8.46h-18.52V623.69h18.52v-8.46h-18.52V588h18.52v-8.47h-18.52V552.38h18.52v-8.46h-18.52V516.73Zm-88,0v27.19H915.08V516.73ZM915.08,1593.8v-27.19h42.21v27.19Zm42.21,8.46v27.19H915.08v-27.19Zm-42.21-44.12v-22h42.21v22Zm0-30.46v-27.19h42.21v27.19Zm0-35.65v-27.2h42.21V1492Zm0-35.66v-27.19h42.21v27.19Zm0-35.65v-27.19h42.21v27.19Zm0-35.66v-27.19h42.21v27.19Zm0-35.65v-24.26h42.21v24.26Zm0-32.72V1289.5h42.21v27.19Zm0-35.66v-27.19h42.21V1281Zm0-35.65v-27.19h42.21v27.19Zm0-35.65v-27.2h42.21v27.2Zm0-35.66v-27.19h42.21v27.19Zm0-35.65v-22h42.21v22Zm0-30.47v-27.19h42.21V1108Zm0-35.65v-27.19h42.21v27.19Zm0-35.65v-27.2h42.21v27.2Zm0-35.66V973.8h42.21V1001Zm0-35.65V938.15h42.21v27.19Zm0-35.66V903.73h42.21v25.95Zm0-34.41V868.08h42.21v27.19Zm0-35.65v-27.2h42.21v27.2Zm0-35.66V796.77h42.21V824Zm0-35.65V761.12h42.21v27.19Zm0-35.66V725.46h42.21v27.19Zm0-35.65V695h42.21v22Zm0-30.46v-27.2h42.21v27.2Zm0-35.66V623.69h42.21v27.19Zm0-35.65V588h42.21v27.19Zm0-35.66V552.38h42.21v27.19Zm-54.16-62.84h38.83v27.19H860.92Zm0,35.65h38.83v27.19H860.92Zm0,35.66h38.83v27.19H860.92Zm0,35.65h38.83v27.19H860.92Zm0,35.65h38.83v27.2H860.92Zm0,35.66h38.83v22H860.92Zm0,30.46h38.83v27.19H860.92Zm0,35.66h38.83v27.19H860.92Zm0,35.65h38.83V824H860.92Zm0,35.65h38.83v27.2H860.92Zm0,35.66h38.83v27.19H860.92Zm0,35.65h38.83v25.95H860.92Zm0,34.42h38.83v27.19H860.92Zm0,35.65h38.83V1001H860.92Zm0,35.65h38.83v27.2H860.92Zm0,35.66h38.83v27.19H860.92Zm0,35.65h38.83V1108H860.92Zm0,35.66h38.83v22H860.92Zm0,30.46h38.83v27.19H860.92Zm0,35.65h38.83v27.2H860.92Zm0,35.66h38.83v27.19H860.92Zm0,35.65h38.83V1281H860.92Zm0,35.66h38.83v27.19H860.92Zm0,35.65h38.83v24.26H860.92Zm0,32.72h38.83v27.19H860.92Zm0,35.66h38.83v27.19H860.92Zm0,35.65h38.83v27.19H860.92Zm0,35.65h38.83V1492H860.92Zm0,35.66h38.83v27.19H860.92Zm0,35.65h38.83v22H860.92Zm0,30.47h38.83v27.19H860.92Zm0,35.65h38.83v27.19H860.92Zm150.53,27.19H972.62v-27.19h38.83Zm0-35.65H972.62v-27.19h38.83Zm0-35.66H972.62v-22h38.83Zm0-30.46H972.62v-27.19h38.83Zm0-35.65H972.62v-27.2h38.83Zm0-35.66H972.62v-27.19h38.83Zm0-35.65H972.62v-27.19h38.83Zm0-35.66H972.62v-27.19h38.83Zm0-35.65H972.62v-24.26h38.83Zm0-32.72H972.62V1289.5h38.83Zm0-35.66H972.62v-27.19h38.83Zm0-35.65H972.62v-27.19h38.83Zm0-35.65H972.62v-27.2h38.83Zm0-35.66H972.62v-27.19h38.83Zm0-35.65H972.62v-22h38.83Zm0-30.47H972.62v-27.19h38.83Zm0-35.65H972.62v-27.19h38.83Zm0-35.65H972.62v-27.2h38.83Zm0-35.66H972.62V973.8h38.83Zm0-35.65H972.62V938.15h38.83Zm0-35.66H972.62V903.73h38.83Zm0-34.41H972.62V868.08h38.83Zm0-35.65H972.62v-27.2h38.83Zm0-35.66H972.62V796.77h38.83Zm0-35.65H972.62V761.12h38.83Zm0-35.66H972.62V725.46h38.83Zm0-35.65H972.62V695h38.83Zm0-30.46H972.62v-27.2h38.83Zm0-35.66H972.62V623.69h38.83Zm0-35.65H972.62V588h38.83Zm0-35.66H972.62V552.38h38.83Zm0-35.65H972.62V516.73h38.83Z"/><rect class="cls-2" x="1226.26" width="5.42" height="96.56"/><rect class="cls-2" x="1526.79" width="5.42" height="96.56"/><rect class="cls-2" x="1264.23" width="5.42" height="96.56"/><rect class="cls-2" x="1553.91" width="5.42" height="96.56"/><path class="cls-11" d="M463.49,1423.27a3.24,3.24,0,0,0-3.87,2.42l-29.28,127.88c-7.91.24-15.95,8.8-18.68,20.73l-2.79,12.18a18,18,0,0,0-.38,2L441,1596a9,9,0,0,0,.63-2l2.79-12.19c2.72-11.89-.77-23.08-7.81-26.77l29.29-127.9A3.24,3.24,0,0,0,463.49,1423.27Z"/><path class="cls-4" d="M378.39,1588.33s67.54-17.49,89.1-3.25-11,29.29-11,29.29Z"/><g id="P297LW-2" data-name="P297LW"><path class="cls-14" d="M899.94,817.16C887,856.67,816.67,925,806.94,931.79c0,0-16.37-27.28-13.09-42.56,2.67-12.47,30.06-56.94,39.44-78.78.49-1.14.93-2.22,1.31-3.22,1.29-3.35,2-6,1.81-7.49-.47-4.75-15.39-16.29-32.73-30-22.54-17.81-49.16-39.23-53.49-54-7.63-26.2-34.1-129.9-34.1-129.9S781.84,600,800.4,616.39,898.62,769.18,901.89,804.1A32.87,32.87,0,0,1,899.94,817.16Z"/><path class="cls-9" d="M899.94,817.16C887,856.67,816.67,925,806.94,931.79c0,0-16.37-27.28-13.09-42.56,2.81-13.12,33-61.64,40.75-82C846.29,805.2,873.73,802.71,899.94,817.16Z"/><path class="cls-9" d="M716.11,576.69l0,8.06s2.19,25.18-28.82,28.86-54.37-7.56-53.53-27c2.79-15.05,5.71-27.64,5.92-40.09a87.6,87.6,0,0,0-1.1-15.09l60.1-1.2,17.7,2.9Z"/><path class="cls-10" d="M716.34,533.13l-.23,43.56a50.79,50.79,0,0,1-21.66,4.78c-27.62,0-45.48-20.25-54.81-35a87.6,87.6,0,0,0-1.1-15.09l60.1-1.2Z"/><path class="cls-8" d="M663.14,1644.7s-2.92-22.72-9.67-36.23-49.75-4.91-49.75-4.91-8.6,7.37-10.44,41.76Z"/><path class="cls-8" d="M809.61,1644.63c-10.1-6.16-4.35-52.16-4.35-52.16s47.07-37.66,53.54-8.83,44.72,41.78,66.49,45.31c15,2.44,19.68,10.76,21.12,15.68Z"/><path class="cls-11" d="M712.11,1305a218.3,218.3,0,0,1,3.46,25.43c4.37,85.35,71.84,280.5,83.91,285,18.67,7,48.08-7.93,63.46-12.83,6.38-2,10.68-8.47,9.26-15C838.79,1434,826.51,1212.84,822,1081.88c-2.26-66-13.58-111.52-13.58-111.52S643.9,926.46,642.93,982C642.06,1031.14,697.44,1223.89,712.11,1305Z"/><path class="cls-8" d="M712.11,1305,822,1081.88c-2.26-66-13.58-111.52-13.58-111.52S643.9,926.46,642.93,982C642.06,1031.14,697.44,1223.89,712.11,1305Z"/><path class="cls-11" d="M748.72,982.19l-87,630.5s-38.2,9.21-67.91,1.84c0,0-25.47-335.33-23.35-416.4s-18.28-216.92,4.66-231.9S748.72,982.19,748.72,982.19Z"/><path class="cls-14" d="M813.2,983.36s-44.45,25.92-108.84,25.18a482.54,482.54,0,0,1-65.47-4.92c-51.64-7.66-77.7-22.07-77.5-27.44.18-4.85.52-20.95,1.13-27.87,8.2-94.64,4-168.25,15-223.54.13-.67.27-1.34.41-2,14.61-70.31,37.52-110.7,48.89-127.26,4.16-6,6.76-8.91,6.9-8.91,0,13.12,27.93,24.45,50.71,23,19.19-1.25,31.64-15.84,31.64-23.74l0,0c1.57,0,86.54,59.06,86.62,113.94C803,945.72,817.91,983.44,813.2,983.36Z"/><path class="cls-3" d="M639,1002.82l-.12.8c-51.64-7.66-77.7-22.07-77.5-27.44.18-4.85.52-20.95,1.13-27.87,8.2-94.64,4-168.25,15-223.54C604.63,761,660.36,855.89,639,1002.82Z"/><path class="cls-19" d="M780.47,885.17l-6.94,23.1-6.9,22.91L467.06,841.07a3.58,3.58,0,0,1-1.23-.14,3.92,3.92,0,0,1-1.16-.57c-3.78-2.67-4.46-12.46-1.56-23.49.15-.61.33-1.23.51-1.85,3.5-11.86,9.88-20.63,14.77-20.71a3.77,3.77,0,0,1,1.16.15,3.94,3.94,0,0,1,1.11.54Z"/><path class="cls-20" d="M773.53,908.27l-6.9,22.91L467.06,841.07a3.58,3.58,0,0,1-1.23-.14,3.92,3.92,0,0,1-1.16-.57c-3.78-2.67-4.46-12.46-1.56-23.49,12.24,9.19,70.73,49.84,170.55,69.61C736.85,906.92,768.78,908.2,773.53,908.27Z"/><path class="cls-21" d="M781,885c-5-1.48-12.14,7.73-15.93,20.56s-2.8,24.44,2.21,25.92,12.14-7.73,15.93-20.56S786.05,886.52,781,885Z"/><path class="cls-19" d="M482.83,786.53l-35.32-5.73a4.33,4.33,0,0,0-1.17-.38,4.1,4.1,0,0,0-1.16,0c-4.85.72-10,10.25-11.93,22.47-.11.65-.2,1.27-.27,1.9a48.8,48.8,0,0,0,.13,14.43c.78,4.29,2.3,7.41,4.37,8.58l.12.07a3.7,3.7,0,0,0,2.47.4l308.79,50.1,3.83-23.62,3.86-23.8Z"/><path class="cls-20" d="M611.18,851.47c-66-4.25-101.06-39.17-128.35-64.94l-35.32-5.73a4.33,4.33,0,0,0-1.17-.38,4.1,4.1,0,0,0-1.16,0c-4.85.72-10,10.25-11.93,22.47-.11.65-.2,1.27-.27,1.9a48.8,48.8,0,0,0,.13,14.43c1.66,4.69,3.36,7.88,4.37,8.58l.12.07a3.7,3.7,0,0,0,2.47.4l308.79,50.1,3.83-23.62C748,855.31,716.16,858.22,611.18,851.47Z"/><path class="cls-21" d="M757.1,830.74c-5.16-.81-11,9.25-13.1,22.47s.42,24.59,5.58,25.4,11-9.24,13.11-22.46S762.26,831.55,757.1,830.74Z"/><path class="cls-9" d="M647.25,921.61c-71.63-11.39-119-41.41-138.4-55.92-6.64-5-10-8.11-10-8.11-36.7-77.16,29.69-212.44,41.83-235.37,13.09-24.73,93.06-35.6,93.06-35.6A435.46,435.46,0,0,0,616,673.14c-5,49-58.2,144.42-56,152.43.55,2,7,6.25,16.35,11.6,27.8,15.83,81.51,41.34,84.77,47.33C665.43,892.5,647.25,921.61,647.25,921.61Z"/><path class="cls-9" d="M661.07,884.5s40-16,49.84-9.46S737.1,891.41,737.1,898s-20.74,24-38.2,29.47-51.65-5.83-51.65-5.83Z"/><path class="cls-14" d="M616,673.14c-5,49-58.2,144.42-56,152.43.55,2,7,6.25,16.35,11.6a15.35,15.35,0,0,1-1.8,0c-41.86-1.85-60.81,21.31-65.64,28.48-6.64-5-10-8.11-10-8.11-36.7-77.16,29.69-212.44,41.83-235.37,13.09-24.73,93.06-35.6,93.06-35.6A435.46,435.46,0,0,0,616,673.14Z"/><path class="cls-9" d="M719.85,554.3s-77,15.55-85.92-32.54S609,443.3,657.79,431.34s61.76,4.61,68.65,19.93S739.64,549,719.85,554.3Z"/><path class="cls-8" d="M635.47,535.63s-14.88-31.76-27.29-45.87-5.64-84.61,48-82.35,72.76,40.61,73.33,47.94-42.87,1.7-54.72,11.29-.56,25.38-14.1,31-24.26,5.64-22,18.05S635.47,535.63,635.47,535.63Z"/><path class="cls-14" d="M652,374.66c-15.34,3.86-26.84,10-35.43,17.42-.85.73-1.68,1.49-2.48,2.25h0C582.31,424.65,595,472.88,595,472.88s4.23,12.19,7.14,16.92,45.11-.73,47.29-9.82S660,461.43,660,461.43s44.48-3.06,47.47-3.28c10-.73,38.73-10.7,38.73-10.7C745.85,444.63,729.71,355.15,652,374.66Z"/><path class="cls-3" d="M772.53,438c-5.34-1.3-14.44-2.75-29.43-3.3,0,0-12.59,10.43-37.62,18.37-11.76-14.82-45.27-50.53-88.9-61l-.38-.1c-.93,1.17-1.45,1.56-2.1,2.35h0c-.19.23-.4.5-.63.84,35.52,6.19,69.28,46.08,80.87,61A199.24,199.24,0,0,1,660,461.43s77.74,1.45,113.27-17.26A3.33,3.33,0,0,0,772.53,438Z"/><path class="cls-3" d="M851.69,791c-1.44,8.16-5.84,16.75-18.4,19.44.49-1.14.93-2.22,1.31-3.22,1.29-3.35,2-6,1.81-7.49-.47-4.75-15.39-16.29-32.73-30-1.43-7.77-4.92-30.83,0-49.13C809.67,698.25,853.33,781.73,851.69,791Z"/><path class="cls-3" d="M567.94,831.66S514.47,827.3,497,858.4c0,0,1.5,10.49,11.85,7.29,0,0,45.23-30.92,67.44-28.52C576.29,837.17,572.85,831.75,567.94,831.66Z"/><path class="cls-3" d="M833.29,810.45S861,811.61,896,826.82c0,0,7.75-7.62,4.66-12S848.36,794.78,833.29,810.45Z"/></g><path class="cls-9" d="M1218.4,628.78c24-123.23,46.07-241.21,46.07-241.21s-68.43,10.37-97.9,34.93-32.45,180.91-42.27,225.11c-1.93,8.67-3.66,22.69-5.16,39.75-5.58,63.57,1.37,158.77,6.63,185.46-.35,2.56-2.53,15.16-14.13,39.33,0,0-6,18.55,33.29,46.38C1170,976.27,1192.28,762.73,1218.4,628.78Z"/><path class="cls-15" d="M1264.47,387.57s-12.7,68-29.33,154.66c-5.27,27.5-11,56.87-16.74,86.55-23.55,46.17-43.76,77.55-50,71.65-12.73-12-35.09-13.51-49.25-13.07,1.5-17.06,3.23-31.08,5.16-39.75.78-3.5,1.51-7.69,2.22-12.45,8.24-55.62,12.91-190,40-212.66C1196,397.94,1264.47,387.57,1264.47,387.57Z"/><path class="cls-16" d="M1235.14,542.23c-5.27,27.5-11,56.87-16.74,86.55-23.55,46.17-43.76,77.55-50,71.65-12.73-12-35.09-13.51-49.25-13.07,1.5-17.06,3.23-31.08,5.16-39.75.78-3.5,1.51-7.69,2.22-12.45l70.61-170.46Z"/><path class="cls-9" d="M1362.21,385.84c.52-23.8.12-52.21-3.09-76.21l-95,15.52s0,29,.42,61.14h-.1s-2.59,29.84,34.16,34.2S1363.2,408.86,1362.21,385.84Z"/><path class="cls-10" d="M1263.88,331s22.38,45.84,48,45.84,49.66-43.11,49.66-43.11Z"/><path class="cls-8" d="M1327.18,1644.8s3.46-26.92,11.46-42.93,58.93-5.82,58.93-5.82,10.19,8.73,12.37,49.47Z"/><path class="cls-8" d="M1153.67,1644.43c12-7.3,5.15-61.79,5.15-61.79s-55.76-44.61-63.43-10.46-53,49.49-78.76,53.67c-17.8,2.89-23.32,12.75-25,18.58Z"/><path class="cls-8" d="M1371.25,282.25s63.4-100-58.34-106.57c0,0-45.66,5.37-56-5,0,0-35.42,53.83-2.34,111.54S1371.25,282.25,1371.25,282.25Z"/><path class="cls-9" d="M1267,334.41c9.23,7.26,36.28,14.47,44.11,15.31,0,0,40.12-9,47.41-13.34,11.3-6.85,10.57-20.71,11.15-40,.69-22.8,3-40.71.44-53.86-3-15.73-13-24.68-40.91-27.11-51.25-4.45-72.6,8.39-73.5,25.57-.23,4.61-.44,9-.59,13.18C1253,307.77,1257.26,326.77,1267,334.41Z"/><path class="cls-11" d="M1269.17,1239.52c-2.27,12.5-3.71,22.76-4.1,30.12-5.18,101.11-85.11,332.3-99.41,337.69-22.12,8.35-57-9.4-75.18-15.2-7.55-2.42-12.65-10-11-17.76,39.59-182,54.13-444,59.43-599.13,2.67-78.14,16.08-132.12,16.08-132.12s195-52,196.11,13.78C1352.15,915.13,1286.55,1143.47,1269.17,1239.52Z"/><path class="cls-8" d="M1269.17,1239.52,1138.94,975.24c2.67-78.14,16.08-132.12,16.08-132.12s195-52,196.11,13.78C1352.15,915.13,1286.55,1143.47,1269.17,1239.52Z"/><path class="cls-11" d="M1225.79,857.13l103.06,746.92s45.26,10.92,80.46,2.19c0,0,30.17-397.25,27.65-493.29s21.66-257-5.51-274.73S1225.79,857.13,1225.79,857.13Z"/><path class="cls-14" d="M1446.26,838.22a15.4,15.4,0,0,1-15.16,16l-162.4,2.48-119.29,1.82c-5.58.1,12.07-44.59,12.43-336,.09-65,100.76-135,102.61-135l0,0c0,9.37,14.76,26.66,37.49,28.14,27,1.77,60.08-11.66,60.08-27.2,0-.17,3.13,3.22,8.17,10.56,13.47,19.62,40.6,67.46,57.92,150.75,13.68,65.78,8.41,153.72,18.26,267.18C1447.11,825.2,1446.05,832.48,1446.26,838.22Z"/><path class="cls-15" d="M1440.27,855.12s-21.59,9.67-62,18c-30,6.24-70.42,11.76-120.06,12.06-78.93.51-108.83-26.7-108.83-26.7-5.58.1,12.07-44.59,12.43-336,.09-65,100.76-135,102.61-135l0,0s-2.58,86.59,23.61,112.05c0,0,36.73-28.37,84.39-109.13,13.47,19.62,38.34,76,55.66,159.33,3.52,16.95,5.79,35.36,7.38,55.3,4.59,57.47,3.57,127.64,10.88,211.88.72,8.2-.34,15.48-.13,21.22C1446.6,846.87,1448.92,855,1440.27,855.12Z"/><path class="cls-16" d="M1440.27,855.12s-21.59,9.67-62,18c-12.7-19.37-28.71-54.33-30.93-109.43-3.75-93.18,84.76-213.18,84.76-213.18l3.38,54.57c4.59,57.47,3.57,127.64,10.88,211.88.72,8.2-.34,15.48-.13,21.22C1446.6,846.87,1448.92,855,1440.27,855.12Z"/><rect class="cls-11" x="1260.8" y="567.16" width="174.22" height="238.98" transform="translate(-162.74 765.95) rotate(-30)"/><path class="cls-9" d="M1457.6,418.86c-18.48-14-61.88-23.88-83.24-28.09-7.53-1.48-12.32-2.26-12.32-2.26,2.23,10.27,7.24,26.38,13.78,45.72,27.44,81,81.82,218.88,70.86,221.81a300.06,300.06,0,0,1-32.87,6.33c-47.7,7-111.88,10.08-118.6,10.39-.52-.49-23.38-21.81-32.29-21.81s-35,9.46-37.61,16.74S1221.6,688.06,1229,691s38.14,10.19,46.09,10.91a21.34,21.34,0,0,0,3.82,0c57.07,16.78,106.2,25,144.06,28.91,52.82,5.42,83.72,2.41,83.72,2.41C1545,650.82,1482.59,437.75,1457.6,418.86Z"/><path class="cls-15" d="M1506.71,733.17s-30.9,3-83.72-2.41c2.91-14.35,5.62-42.38-9.18-68.39a300.06,300.06,0,0,0,32.87-6.33c11-2.93-43.42-140.76-70.86-221.81-2.19-26.2-3.35-43.74-3.35-43.74l1.89.28c21.36,4.21,64.76,14.12,83.24,28.09C1482.59,437.75,1545,650.82,1506.71,733.17Z"/><path class="cls-16" d="M1288.08,499.62s73.48-32.37,74.57-34.92-3.64-22.19-8.73-28c0,0,35.29,3.27,37.47-1.09s3.82-40.29,3.82-40.29-14.69-15.2-32.88-16.66c0,0-16,39.69-21.87,51.49C1324.82,461.43,1288.08,499.62,1288.08,499.62Z"/><path class="cls-16" d="M1270.61,435.6s4.73,37.83,17.47,64c0,0-38.38-26.74-41.66-35.47s9.28-25.64,9.28-25.64-22.92-.55-23.46-8.19,7.09-37.65,7.09-37.65,19.71-14.39,25.17-13.85Z"/><path class="cls-14" d="M1395,226.56l-163.19,1.75s-2.39-49.21,25.89-80.59c1.29-1.45,2.66-2.85,4.11-4.22A72.75,72.75,0,0,1,1284.11,129c32.61-13.6,59.67-1,76.58,11.82,1.66,1.26,3.23,2.52,4.69,3.78a98.25,98.25,0,0,1,14.32,14.78S1395.54,181,1395,226.56Z"/><path class="cls-3" d="M1349.17,227.05c-.44-6.62-3.32-63.06,16.5-82.19a30.85,30.85,0,0,0-2.71-2.26c-21.13,22-22.81,77.54-22.72,84.55l-52.17.56c-1.55-40-23.61-79.77-26.25-84.21a36.42,36.42,0,0,0-3,3.09c3.82,6.73,18.23,45.26,19.6,81.22l-46.59.5s43.47,11.23,76.2,10.83,87-12.58,87-12.58Z"/></svg>